0
SECTION
2
ENTITIES
0
POLYLINE
8
CADASTRAL_PARCEL
66
1
70
1
0
VERTEX
8
CADASTRAL_PARCEL
10
77.232105
20
28.615084
30
0.0
0
VERTEX
8
CADASTRAL_PARCEL
10
77.232101
20
28.614886
30
0.0
0
VERTEX
8
CADASTRAL_PARCEL
10
77.231564
20
28.614894
30
0.0
0
VERTEX
8
CADASTRAL_PARCEL
10
77.231568
20
28.615093
30
0.0
0
VERTEX
8
CADASTRAL_PARCEL
10
77.232105
20
28.615084
30
0.0
0
SEQEND
0
POLYLINE
8
CADASTRAL_PARCEL
66
1
70
1
0
VERTEX
8
CADASTRAL_PARCEL
10
77.232105
20
28.615084
30
0.0
0
VERTEX
8
CADASTRAL_PARCEL
10
77.231568
20
28.615093
30
0.0
0
VERTEX
8
CADASTRAL_PARCEL
10
77.231573
20
28.615291
30
0.0
0
VERTEX
8
CADASTRAL_PARCEL
10
77.232109
20
28.615282
30
0.0
0
VERTEX
8
CADASTRAL_PARCEL
10
77.232105
20
28.615084
30
0.0
0
SEQEND
0
POLYLINE
8
CADASTRAL_PARCEL
66
1
70
1
0
VERTEX
8
CADASTRAL_PARCEL
10
77.232105
20
28.615084
30
0.0
0
VERTEX
8
CADASTRAL_PARCEL
10
77.232642
20
28.615075
30
0.0
0
VERTEX
8
CADASTRAL_PARCEL
10
77.232637
20
28.614877
30
0.0
0
VERTEX
8
CADASTRAL_PARCEL
10
77.232101
20
28.614886
30
0.0
0
VERTEX
8
CADASTRAL_PARCEL
10
77.232105
20
28.615084
30
0.0
0
SEQEND
0
POLYLINE
8
CADASTRAL_PARCEL
66
1
70
1
0
VERTEX
8
CADASTRAL_PARCEL
10
77.232642
20
28.615075
30
0.0
0
VERTEX
8
CADASTRAL_PARCEL
10
77.232105
20
28.615084
30
0.0
0
VERTEX
8
CADASTRAL_PARCEL
10
77.232109
20
28.615282
30
0.0
0
VERTEX
8
CADASTRAL_PARCEL
10
77.232646
20
28.615274
30
0.0
0
VERTEX
8
CADASTRAL_PARCEL
10
77.232642
20
28.615075
30
0.0
0
SEQEND
0
POLYLINE
8
CADASTRAL_PARCEL
66
1
70
1
0
VERTEX
8
CADASTRAL_PARCEL
10
77.232626
20
28.615075
30
0.0
0
VERTEX
8
CADASTRAL_PARCEL
10
77.232626
20
28.615077
30
0.0
0
VERTEX
8
CADASTRAL_PARCEL
10
77.232627
20
28.615078
30
0.0
0
VERTEX
8
CADASTRAL_PARCEL
10
77.232627
20
28.615079
30
0.0
0
VERTEX
8
CADASTRAL_PARCEL
10
77.232628
20
28.615081
30
0.0
0
VERTEX
8
CADASTRAL_PARCEL
10
77.232628
20
28.615082
30
0.0
0
VERTEX
8
CADASTRAL_PARCEL
10
77.232629
20
28.615083
30
0.0
0
VERTEX
8
CADASTRAL_PARCEL
10
77.23263
20
28.615084
30
0.0
0
VERTEX
8
CADASTRAL_PARCEL
10
77.232631
20
28.615085
30
0.0
0
VERTEX
8
CADASTRAL_PARCEL
10
77.232632
20
28.615086
30
0.0
0
VERTEX
8
CADASTRAL_PARCEL
10
77.232633
20
28.615087
30
0.0
0
VERTEX
8
CADASTRAL_PARCEL
10
77.232635
20
28.615087
30
0.0
0
VERTEX
8
CADASTRAL_PARCEL
10
77.232636
20
28.615088
30
0.0
0
VERTEX
8
CADASTRAL_PARCEL
10
77.232637
20
28.615088
30
0.0
0
VERTEX
8
CADASTRAL_PARCEL
10
77.232639
20
28.615088
30
0.0
0
VERTEX
8
CADASTRAL_PARCEL
10
77.23264
20
28.615089
30
0.0
0
VERTEX
8
CADASTRAL_PARCEL
10
77.232642
20
28.615089
30
0.0
0
VERTEX
8
CADASTRAL_PARCEL
10
77.233178
20
28.61508
30
0.0
0
VERTEX
8
CADASTRAL_PARCEL
10
77.23318
20
28.61508
30
0.0
0
VERTEX
8
CADASTRAL_PARCEL
10
77.233181
20
28.615079
30
0.0
0
VERTEX
8
CADASTRAL_PARCEL
10
77.233183
20
28.615079
30
0.0
0
VERTEX
8
CADASTRAL_PARCEL
10
77.233184
20
28.615079
30
0.0
0
VERTEX
8
CADASTRAL_PARCEL
10
77.233186
20
28.615078
30
0.0
0
VERTEX
8
CADASTRAL_PARCEL
10
77.233187
20
28.615077
30
0.0
0
VERTEX
8
CADASTRAL_PARCEL
10
77.233188
20
28.615077
30
0.0
0
VERTEX
8
CADASTRAL_PARCEL
10
77.233189
20
28.615076
30
0.0
0
VERTEX
8
CADASTRAL_PARCEL
10
77.23319
20
28.615075
30
0.0
0
VERTEX
8
CADASTRAL_PARCEL
10
77.233191
20
28.615074
30
0.0
0
VERTEX
8
CADASTRAL_PARCEL
10
77.233192
20
28.615072
30
0.0
0
VERTEX
8
CADASTRAL_PARCEL
10
77.233192
20
28.615071
30
0.0
0
VERTEX
8
CADASTRAL_PARCEL
10
77.233193
20
28.61507
30
0.0
0
VERTEX
8
CADASTRAL_PARCEL
10
77.233193
20
28.615069
30
0.0
0
VERTEX
8
CADASTRAL_PARCEL
10
77.233193
20
28.615067
30
0.0
0
VERTEX
8
CADASTRAL_PARCEL
10
77.233194
20
28.615066
30
0.0
0
VERTEX
8
CADASTRAL_PARCEL
10
77.233189
20
28.614868
30
0.0
0
VERTEX
8
CADASTRAL_PARCEL
10
77.233189
20
28.614866
30
0.0
0
VERTEX
8
CADASTRAL_PARCEL
10
77.233189
20
28.614865
30
0.0
0
VERTEX
8
CADASTRAL_PARCEL
10
77.233189
20
28.614864
30
0.0
0
VERTEX
8
CADASTRAL_PARCEL
10
77.233188
20
28.614862
30
0.0
0
VERTEX
8
CADASTRAL_PARCEL
10
77.233187
20
28.614861
30
0.0
0
VERTEX
8
CADASTRAL_PARCEL
10
77.233187
20
28.61486
30
0.0
0
VERTEX
8
CADASTRAL_PARCEL
10
77.233186
20
28.614859
30
0.0
0
VERTEX
8
CADASTRAL_PARCEL
10
77.233185
20
28.614858
30
0.0
0
VERTEX
8
CADASTRAL_PARCEL
10
77.233183
20
28.614857
30
0.0
0
VERTEX
8
CADASTRAL_PARCEL
10
77.233182
20
28.614856
30
0.0
0
VERTEX
8
CADASTRAL_PARCEL
10
77.233181
20
28.614856
30
0.0
0
VERTEX
8
CADASTRAL_PARCEL
10
77.23318
20
28.614855
30
0.0
0
VERTEX
8
CADASTRAL_PARCEL
10
77.233178
20
28.614855
30
0.0
0
VERTEX
8
CADASTRAL_PARCEL
10
77.233177
20
28.614855
30
0.0
0
VERTEX
8
CADASTRAL_PARCEL
10
77.233175
20
28.614854
30
0.0
0
VERTEX
8
CADASTRAL_PARCEL
10
77.233174
20
28.614854
30
0.0
0
VERTEX
8
CADASTRAL_PARCEL
10
77.232637
20
28.614863
30
0.0
0
VERTEX
8
CADASTRAL_PARCEL
10
77.232636
20
28.614863
30
0.0
0
VERTEX
8
CADASTRAL_PARCEL
10
77.232634
20
28.614863
30
0.0
0
VERTEX
8
CADASTRAL_PARCEL
10
77.232633
20
28.614864
30
0.0
0
VERTEX
8
CADASTRAL_PARCEL
10
77.232631
20
28.614864
30
0.0
0
VERTEX
8
CADASTRAL_PARCEL
10
77.23263
20
28.614865
30
0.0
0
VERTEX
8
CADASTRAL_PARCEL
10
77.232629
20
28.614866
30
0.0
0
VERTEX
8
CADASTRAL_PARCEL
10
77.232627
20
28.614866
30
0.0
0
VERTEX
8
CADASTRAL_PARCEL
10
77.232626
20
28.614867
30
0.0
0
VERTEX
8
CADASTRAL_PARCEL
10
77.232625
20
28.614868
30
0.0
0
VERTEX
8
CADASTRAL_PARCEL
10
77.232624
20
28.614869
30
0.0
0
VERTEX
8
CADASTRAL_PARCEL
10
77.232624
20
28.614871
30
0.0
0
VERTEX
8
CADASTRAL_PARCEL
10
77.232623
20
28.614872
30
0.0
0
VERTEX
8
CADASTRAL_PARCEL
10
77.232623
20
28.614873
30
0.0
0
VERTEX
8
CADASTRAL_PARCEL
10
77.232622
20
28.614874
30
0.0
0
VERTEX
8
CADASTRAL_PARCEL
10
77.232622
20
28.614876
30
0.0
0
VERTEX
8
CADASTRAL_PARCEL
10
77.232622
20
28.614877
30
0.0
0
VERTEX
8
CADASTRAL_PARCEL
10
77.232626
20
28.615075
30
0.0
0
SEQEND
0
POLYLINE
8
CADASTRAL_PARCEL
66
1
70
1
0
VERTEX
8
CADASTRAL_PARCEL
10
77.233178
20
28.615066
30
0.0
0
VERTEX
8
CADASTRAL_PARCEL
10
77.232642
20
28.615075
30
0.0
0
VERTEX
8
CADASTRAL_PARCEL
10
77.232646
20
28.615274
30
0.0
0
VERTEX
8
CADASTRAL_PARCEL
10
77.233182
20
28.615265
30
0.0
0
VERTEX
8
CADASTRAL_PARCEL
10
77.233178
20
28.615066
30
0.0
0
SEQEND
0
POLYLINE
8
CADASTRAL_PARCEL
66
1
70
1
0
VERTEX
8
CADASTRAL_PARCEL
10
77.233711
20
28.614859
30
0.0
0
VERTEX
8
CADASTRAL_PARCEL
10
77.233174
20
28.614868
30
0.0
0
VERTEX
8
CADASTRAL_PARCEL
10
77.233178
20
28.615066
30
0.0
0
VERTEX
8
CADASTRAL_PARCEL
10
77.233715
20
28.615057
30
0.0
0
VERTEX
8
CADASTRAL_PARCEL
10
77.233711
20
28.614859
30
0.0
0
SEQEND
0
POLYLINE
8
CADASTRAL_PARCEL
66
1
70
1
0
VERTEX
8
CADASTRAL_PARCEL
10
77.233714
20
28.615039
30
0.0
0
VERTEX
8
CADASTRAL_PARCEL
10
77.233147
20
28.615049
30
0.0
0
VERTEX
8
CADASTRAL_PARCEL
10
77.233152
20
28.615265
30
0.0
0
VERTEX
8
CADASTRAL_PARCEL
10
77.233719
20
28.615256
30
0.0
0
VERTEX
8
CADASTRAL_PARCEL
10
77.233714
20
28.615039
30
0.0
0
SEQEND
0
POLYLINE
8
CADASTRAL_PARCEL
66
1
70
1
0
VERTEX
8
CADASTRAL_PARCEL
10
77.230274
20
28.615114
30
0.0
0
VERTEX
8
CADASTRAL_PARCEL
10
77.230269
20
28.614916
30
0.0
0
VERTEX
8
CADASTRAL_PARCEL
10
77.229673
20
28.614925
30
0.0
0
VERTEX
8
CADASTRAL_PARCEL
10
77.229677
20
28.615124
30
0.0
0
VERTEX
8
CADASTRAL_PARCEL
10
77.230274
20
28.615114
30
0.0
0
SEQEND
0
POLYLINE
8
CADASTRAL_PARCEL
66
1
70
1
0
VERTEX
8
CADASTRAL_PARCEL
10
77.230256
20
28.615131
30
0.0
0
VERTEX
8
CADASTRAL_PARCEL
10
77.229696
20
28.61514
30
0.0
0
VERTEX
8
CADASTRAL_PARCEL
10
77.2297
20
28.615306
30
0.0
0
VERTEX
8
CADASTRAL_PARCEL
10
77.230259
20
28.615297
30
0.0
0
VERTEX
8
CADASTRAL_PARCEL
10
77.230256
20
28.615131
30
0.0
0
SEQEND
0
POLYLINE
8
CADASTRAL_PARCEL
66
1
70
1
0
VERTEX
8
CADASTRAL_PARCEL
10
77.230274
20
28.615114
30
0.0
0
VERTEX
8
CADASTRAL_PARCEL
10
77.23087
20
28.615104
30
0.0
0
VERTEX
8
CADASTRAL_PARCEL
10
77.230866
20
28.614906
30
0.0
0
VERTEX
8
CADASTRAL_PARCEL
10
77.230269
20
28.614916
30
0.0
0
VERTEX
8
CADASTRAL_PARCEL
10
77.230274
20
28.615114
30
0.0
0
SEQEND
0
POLYLINE
8
CADASTRAL_PARCEL
66
1
70
1
0
VERTEX
8
CADASTRAL_PARCEL
10
77.23087
20
28.615104
30
0.0
0
VERTEX
8
CADASTRAL_PARCEL
10
77.230274
20
28.615114
30
0.0
0
VERTEX
8
CADASTRAL_PARCEL
10
77.230278
20
28.615313
30
0.0
0
VERTEX
8
CADASTRAL_PARCEL
10
77.230874
20
28.615303
30
0.0
0
VERTEX
8
CADASTRAL_PARCEL
10
77.23087
20
28.615104
30
0.0
0
SEQEND
0
POLYLINE
8
CADASTRAL_PARCEL
66
1
70
1
0
VERTEX
8
CADASTRAL_PARCEL
10
77.231462
20
28.614896
30
0.0
0
VERTEX
8
CADASTRAL_PARCEL
10
77.230866
20
28.614906
30
0.0
0
VERTEX
8
CADASTRAL_PARCEL
10
77.23087
20
28.615104
30
0.0
0
VERTEX
8
CADASTRAL_PARCEL
10
77.231466
20
28.615094
30
0.0
0
VERTEX
8
CADASTRAL_PARCEL
10
77.231462
20
28.614896
30
0.0
0
SEQEND
0
POLYLINE
8
CADASTRAL_PARCEL
66
1
70
1
0
VERTEX
8
CADASTRAL_PARCEL
10
77.231466
20
28.615094
30
0.0
0
VERTEX
8
CADASTRAL_PARCEL
10
77.23087
20
28.615104
30
0.0
0
VERTEX
8
CADASTRAL_PARCEL
10
77.230874
20
28.615303
30
0.0
0
VERTEX
8
CADASTRAL_PARCEL
10
77.23147
20
28.615293
30
0.0
0
VERTEX
8
CADASTRAL_PARCEL
10
77.231466
20
28.615094
30
0.0
0
SEQEND
0
POLYLINE
8
CADASTRAL_PARCEL
66
1
70
1
0
VERTEX
8
CADASTRAL_PARCEL
10
77.230238
20
28.61345
30
0.0
0
VERTEX
8
CADASTRAL_PARCEL
10
77.23024
20
28.61345
30
0.0
0
VERTEX
8
CADASTRAL_PARCEL
10
77.230241
20
28.61345
30
0.0
0
VERTEX
8
CADASTRAL_PARCEL
10
77.230243
20
28.613449
30
0.0
0
VERTEX
8
CADASTRAL_PARCEL
10
77.230244
20
28.613449
30
0.0
0
VERTEX
8
CADASTRAL_PARCEL
10
77.230246
20
28.613448
30
0.0
0
VERTEX
8
CADASTRAL_PARCEL
10
77.230247
20
28.613448
30
0.0
0
VERTEX
8
CADASTRAL_PARCEL
10
77.230248
20
28.613447
30
0.0
0
VERTEX
8
CADASTRAL_PARCEL
10
77.230249
20
28.613446
30
0.0
0
VERTEX
8
CADASTRAL_PARCEL
10
77.23025
20
28.613445
30
0.0
0
VERTEX
8
CADASTRAL_PARCEL
10
77.230251
20
28.613444
30
0.0
0
VERTEX
8
CADASTRAL_PARCEL
10
77.230252
20
28.613443
30
0.0
0
VERTEX
8
CADASTRAL_PARCEL
10
77.230252
20
28.613441
30
0.0
0
VERTEX
8
CADASTRAL_PARCEL
10
77.230253
20
28.61344
30
0.0
0
VERTEX
8
CADASTRAL_PARCEL
10
77.230253
20
28.613439
30
0.0
0
VERTEX
8
CADASTRAL_PARCEL
10
77.230253
20
28.613438
30
0.0
0
VERTEX
8
CADASTRAL_PARCEL
10
77.230253
20
28.613436
30
0.0
0
VERTEX
8
CADASTRAL_PARCEL
10
77.230246
20
28.613093
30
0.0
0
VERTEX
8
CADASTRAL_PARCEL
10
77.230246
20
28.613092
30
0.0
0
VERTEX
8
CADASTRAL_PARCEL
10
77.230246
20
28.613091
30
0.0
0
VERTEX
8
CADASTRAL_PARCEL
10
77.230245
20
28.61309
30
0.0
0
VERTEX
8
CADASTRAL_PARCEL
10
77.230245
20
28.613088
30
0.0
0
VERTEX
8
CADASTRAL_PARCEL
10
77.230244
20
28.613087
30
0.0
0
VERTEX
8
CADASTRAL_PARCEL
10
77.230243
20
28.613086
30
0.0
0
VERTEX
8
CADASTRAL_PARCEL
10
77.230243
20
28.613085
30
0.0
0
VERTEX
8
CADASTRAL_PARCEL
10
77.230242
20
28.613084
30
0.0
0
VERTEX
8
CADASTRAL_PARCEL
10
77.23024
20
28.613083
30
0.0
0
VERTEX
8
CADASTRAL_PARCEL
10
77.230239
20
28.613082
30
0.0
0
VERTEX
8
CADASTRAL_PARCEL
10
77.230238
20
28.613082
30
0.0
0
VERTEX
8
CADASTRAL_PARCEL
10
77.230236
20
28.613081
30
0.0
0
VERTEX
8
CADASTRAL_PARCEL
10
77.230235
20
28.613081
30
0.0
0
VERTEX
8
CADASTRAL_PARCEL
10
77.230234
20
28.61308
30
0.0
0
VERTEX
8
CADASTRAL_PARCEL
10
77.230232
20
28.61308
30
0.0
0
VERTEX
8
CADASTRAL_PARCEL
10
77.230231
20
28.61308
30
0.0
0
VERTEX
8
CADASTRAL_PARCEL
10
77.229634
20
28.61309
30
0.0
0
VERTEX
8
CADASTRAL_PARCEL
10
77.229633
20
28.61309
30
0.0
0
VERTEX
8
CADASTRAL_PARCEL
10
77.229631
20
28.61309
30
0.0
0
VERTEX
8
CADASTRAL_PARCEL
10
77.22963
20
28.613091
30
0.0
0
VERTEX
8
CADASTRAL_PARCEL
10
77.229629
20
28.613091
30
0.0
0
VERTEX
8
CADASTRAL_PARCEL
10
77.229627
20
28.613092
30
0.0
0
VERTEX
8
CADASTRAL_PARCEL
10
77.229626
20
28.613092
30
0.0
0
VERTEX
8
CADASTRAL_PARCEL
10
77.229625
20
28.613093
30
0.0
0
VERTEX
8
CADASTRAL_PARCEL
10
77.229624
20
28.613094
30
0.0
0
VERTEX
8
CADASTRAL_PARCEL
10
77.229623
20
28.613095
30
0.0
0
VERTEX
8
CADASTRAL_PARCEL
10
77.229622
20
28.613096
30
0.0
0
VERTEX
8
CADASTRAL_PARCEL
10
77.229621
20
28.613097
30
0.0
0
VERTEX
8
CADASTRAL_PARCEL
10
77.22962
20
28.613099
30
0.0
0
VERTEX
8
CADASTRAL_PARCEL
10
77.22962
20
28.6131
30
0.0
0
VERTEX
8
CADASTRAL_PARCEL
10
77.22962
20
28.613101
30
0.0
0
VERTEX
8
CADASTRAL_PARCEL
10
77.229619
20
28.613102
30
0.0
0
VERTEX
8
CADASTRAL_PARCEL
10
77.229619
20
28.613104
30
0.0
0
VERTEX
8
CADASTRAL_PARCEL
10
77.229627
20
28.613447
30
0.0
0
VERTEX
8
CADASTRAL_PARCEL
10
77.229627
20
28.613448
30
0.0
0
VERTEX
8
CADASTRAL_PARCEL
10
77.229627
20
28.613449
30
0.0
0
VERTEX
8
CADASTRAL_PARCEL
10
77.229627
20
28.61345
30
0.0
0
VERTEX
8
CADASTRAL_PARCEL
10
77.229628
20
28.613452
30
0.0
0
VERTEX
8
CADASTRAL_PARCEL
10
77.229628
20
28.613453
30
0.0
0
VERTEX
8
CADASTRAL_PARCEL
10
77.229629
20
28.613454
30
0.0
0
VERTEX
8
CADASTRAL_PARCEL
10
77.22963
20
28.613455
30
0.0
0
VERTEX
8
CADASTRAL_PARCEL
10
77.229631
20
28.613456
30
0.0
0
VERTEX
8
CADASTRAL_PARCEL
10
77.229632
20
28.613457
30
0.0
0
VERTEX
8
CADASTRAL_PARCEL
10
77.229634
20
28.613458
30
0.0
0
VERTEX
8
CADASTRAL_PARCEL
10
77.229635
20
28.613458
30
0.0
0
VERTEX
8
CADASTRAL_PARCEL
10
77.229636
20
28.613459
30
0.0
0
VERTEX
8
CADASTRAL_PARCEL
10
77.229638
20
28.613459
30
0.0
0
VERTEX
8
CADASTRAL_PARCEL
10
77.229639
20
28.61346
30
0.0
0
VERTEX
8
CADASTRAL_PARCEL
10
77.229641
20
28.61346
30
0.0
0
VERTEX
8
CADASTRAL_PARCEL
10
77.229642
20
28.61346
30
0.0
0
VERTEX
8
CADASTRAL_PARCEL
10
77.230238
20
28.61345
30
0.0
0
SEQEND
0
POLYLINE
8
CADASTRAL_PARCEL
66
1
70
1
0
VERTEX
8
CADASTRAL_PARCEL
10
77.230245
20
28.613779
30
0.0
0
VERTEX
8
CADASTRAL_PARCEL
10
77.230238
20
28.613418
30
0.0
0
VERTEX
8
CADASTRAL_PARCEL
10
77.229641
20
28.613428
30
0.0
0
VERTEX
8
CADASTRAL_PARCEL
10
77.229649
20
28.613789
30
0.0
0
VERTEX
8
CADASTRAL_PARCEL
10
77.230245
20
28.613779
30
0.0
0
SEQEND
0
POLYLINE
8
CADASTRAL_PARCEL
66
1
70
1
0
VERTEX
8
CADASTRAL_PARCEL
10
77.230253
20
28.614122
30
0.0
0
VERTEX
8
CADASTRAL_PARCEL
10
77.230245
20
28.613779
30
0.0
0
VERTEX
8
CADASTRAL_PARCEL
10
77.229649
20
28.613789
30
0.0
0
VERTEX
8
CADASTRAL_PARCEL
10
77.229656
20
28.614132
30
0.0
0
VERTEX
8
CADASTRAL_PARCEL
10
77.230253
20
28.614122
30
0.0
0
SEQEND
0
POLYLINE
8
CADASTRAL_PARCEL
66
1
70
1
0
VERTEX
8
CADASTRAL_PARCEL
10
77.23026
20
28.614465
30
0.0
0
VERTEX
8
CADASTRAL_PARCEL
10
77.230253
20
28.614122
30
0.0
0
VERTEX
8
CADASTRAL_PARCEL
10
77.229656
20
28.614132
30
0.0
0
VERTEX
8
CADASTRAL_PARCEL
10
77.229664
20
28.614475
30
0.0
0
VERTEX
8
CADASTRAL_PARCEL
10
77.23026
20
28.614465
30
0.0
0
SEQEND
0
POLYLINE
8
CADASTRAL_PARCEL
66
1
70
1
0
VERTEX
8
CADASTRAL_PARCEL
10
77.23026
20
28.614465
30
0.0
0
VERTEX
8
CADASTRAL_PARCEL
10
77.229664
20
28.614475
30
0.0
0
VERTEX
8
CADASTRAL_PARCEL
10
77.229671
20
28.614817
30
0.0
0
VERTEX
8
CADASTRAL_PARCEL
10
77.230267
20
28.614807
30
0.0
0
VERTEX
8
CADASTRAL_PARCEL
10
77.23026
20
28.614465
30
0.0
0
SEQEND
0
POLYLINE
8
CADASTRAL_PARCEL
66
1
70
1
0
VERTEX
8
CADASTRAL_PARCEL
10
77.230256
20
28.61342
30
0.0
0
VERTEX
8
CADASTRAL_PARCEL
10
77.230816
20
28.613411
30
0.0
0
VERTEX
8
CADASTRAL_PARCEL
10
77.230809
20
28.6131
30
0.0
0
VERTEX
8
CADASTRAL_PARCEL
10
77.23025
20
28.61311
30
0.0
0
VERTEX
8
CADASTRAL_PARCEL
10
77.230256
20
28.61342
30
0.0
0
SEQEND
0
POLYLINE
8
CADASTRAL_PARCEL
66
1
70
1
0
VERTEX
8
CADASTRAL_PARCEL
10
77.230238
20
28.613436
30
0.0
0
VERTEX
8
CADASTRAL_PARCEL
10
77.230245
20
28.613779
30
0.0
0
VERTEX
8
CADASTRAL_PARCEL
10
77.230842
20
28.613769
30
0.0
0
VERTEX
8
CADASTRAL_PARCEL
10
77.230834
20
28.613427
30
0.0
0
VERTEX
8
CADASTRAL_PARCEL
10
77.230238
20
28.613436
30
0.0
0
SEQEND
0
POLYLINE
8
CADASTRAL_PARCEL
66
1
70
1
0
VERTEX
8
CADASTRAL_PARCEL
10
77.230245
20
28.613779
30
0.0
0
VERTEX
8
CADASTRAL_PARCEL
10
77.230253
20
28.614122
30
0.0
0
VERTEX
8
CADASTRAL_PARCEL
10
77.230849
20
28.614112
30
0.0
0
VERTEX
8
CADASTRAL_PARCEL
10
77.230842
20
28.613769
30
0.0
0
VERTEX
8
CADASTRAL_PARCEL
10
77.230245
20
28.613779
30
0.0
0
SEQEND
0
POLYLINE
8
CADASTRAL_PARCEL
66
1
70
1
0
VERTEX
8
CADASTRAL_PARCEL
10
77.230253
20
28.614122
30
0.0
0
VERTEX
8
CADASTRAL_PARCEL
10
77.23026
20
28.614465
30
0.0
0
VERTEX
8
CADASTRAL_PARCEL
10
77.230856
20
28.614455
30
0.0
0
VERTEX
8
CADASTRAL_PARCEL
10
77.230849
20
28.614112
30
0.0
0
VERTEX
8
CADASTRAL_PARCEL
10
77.230253
20
28.614122
30
0.0
0
SEQEND
0
POLYLINE
8
CADASTRAL_PARCEL
66
1
70
1
0
VERTEX
8
CADASTRAL_PARCEL
10
77.230229
20
28.614447
30
0.0
0
VERTEX
8
CADASTRAL_PARCEL
10
77.230236
20
28.614808
30
0.0
0
VERTEX
8
CADASTRAL_PARCEL
10
77.230863
20
28.614798
30
0.0
0
VERTEX
8
CADASTRAL_PARCEL
10
77.230856
20
28.614437
30
0.0
0
VERTEX
8
CADASTRAL_PARCEL
10
77.230229
20
28.614447
30
0.0
0
SEQEND
0
POLYLINE
8
CADASTRAL_PARCEL
66
1
70
1
0
VERTEX
8
CADASTRAL_PARCEL
10
77.231439
20
28.613074
30
0.0
0
VERTEX
8
CADASTRAL_PARCEL
10
77.231439
20
28.613073
30
0.0
0
VERTEX
8
CADASTRAL_PARCEL
10
77.231438
20
28.613071
30
0.0
0
VERTEX
8
CADASTRAL_PARCEL
10
77.231438
20
28.61307
30
0.0
0
VERTEX
8
CADASTRAL_PARCEL
10
77.231437
20
28.613069
30
0.0
0
VERTEX
8
CADASTRAL_PARCEL
10
77.231437
20
28.613067
30
0.0
0
VERTEX
8
CADASTRAL_PARCEL
10
77.231436
20
28.613066
30
0.0
0
VERTEX
8
CADASTRAL_PARCEL
10
77.231435
20
28.613065
30
0.0
0
VERTEX
8
CADASTRAL_PARCEL
10
77.231434
20
28.613064
30
0.0
0
VERTEX
8
CADASTRAL_PARCEL
10
77.231433
20
28.613063
30
0.0
0
VERTEX
8
CADASTRAL_PARCEL
10
77.231432
20
28.613063
30
0.0
0
VERTEX
8
CADASTRAL_PARCEL
10
77.23143
20
28.613062
30
0.0
0
VERTEX
8
CADASTRAL_PARCEL
10
77.231429
20
28.613061
30
0.0
0
VERTEX
8
CADASTRAL_PARCEL
10
77.231428
20
28.613061
30
0.0
0
VERTEX
8
CADASTRAL_PARCEL
10
77.231426
20
28.613061
30
0.0
0
VERTEX
8
CADASTRAL_PARCEL
10
77.231425
20
28.613061
30
0.0
0
VERTEX
8
CADASTRAL_PARCEL
10
77.231423
20
28.613061
30
0.0
0
VERTEX
8
CADASTRAL_PARCEL
10
77.230827
20
28.61307
30
0.0
0
VERTEX
8
CADASTRAL_PARCEL
10
77.230825
20
28.61307
30
0.0
0
VERTEX
8
CADASTRAL_PARCEL
10
77.230824
20
28.613071
30
0.0
0
VERTEX
8
CADASTRAL_PARCEL
10
77.230822
20
28.613071
30
0.0
0
VERTEX
8
CADASTRAL_PARCEL
10
77.230821
20
28.613071
30
0.0
0
VERTEX
8
CADASTRAL_PARCEL
10
77.23082
20
28.613072
30
0.0
0
VERTEX
8
CADASTRAL_PARCEL
10
77.230818
20
28.613073
30
0.0
0
VERTEX
8
CADASTRAL_PARCEL
10
77.230817
20
28.613074
30
0.0
0
VERTEX
8
CADASTRAL_PARCEL
10
77.230816
20
28.613075
30
0.0
0
VERTEX
8
CADASTRAL_PARCEL
10
77.230815
20
28.613076
30
0.0
0
VERTEX
8
CADASTRAL_PARCEL
10
77.230814
20
28.613077
30
0.0
0
VERTEX
8
CADASTRAL_PARCEL
10
77.230813
20
28.613078
30
0.0
0
VERTEX
8
CADASTRAL_PARCEL
10
77.230813
20
28.613079
30
0.0
0
VERTEX
8
CADASTRAL_PARCEL
10
77.230812
20
28.61308
30
0.0
0
VERTEX
8
CADASTRAL_PARCEL
10
77.230812
20
28.613082
30
0.0
0
VERTEX
8
CADASTRAL_PARCEL
10
77.230812
20
28.613083
30
0.0
0
VERTEX
8
CADASTRAL_PARCEL
10
77.230812
20
28.613084
30
0.0
0
VERTEX
8
CADASTRAL_PARCEL
10
77.230819
20
28.613427
30
0.0
0
VERTEX
8
CADASTRAL_PARCEL
10
77.230819
20
28.613428
30
0.0
0
VERTEX
8
CADASTRAL_PARCEL
10
77.230819
20
28.61343
30
0.0
0
VERTEX
8
CADASTRAL_PARCEL
10
77.23082
20
28.613431
30
0.0
0
VERTEX
8
CADASTRAL_PARCEL
10
77.23082
20
28.613432
30
0.0
0
VERTEX
8
CADASTRAL_PARCEL
10
77.230821
20
28.613433
30
0.0
0
VERTEX
8
CADASTRAL_PARCEL
10
77.230822
20
28.613434
30
0.0
0
VERTEX
8
CADASTRAL_PARCEL
10
77.230823
20
28.613435
30
0.0
0
VERTEX
8
CADASTRAL_PARCEL
10
77.230824
20
28.613436
30
0.0
0
VERTEX
8
CADASTRAL_PARCEL
10
77.230825
20
28.613437
30
0.0
0
VERTEX
8
CADASTRAL_PARCEL
10
77.230826
20
28.613438
30
0.0
0
VERTEX
8
CADASTRAL_PARCEL
10
77.230827
20
28.613439
30
0.0
0
VERTEX
8
CADASTRAL_PARCEL
10
77.230829
20
28.613439
30
0.0
0
VERTEX
8
CADASTRAL_PARCEL
10
77.23083
20
28.61344
30
0.0
0
VERTEX
8
CADASTRAL_PARCEL
10
77.230832
20
28.61344
30
0.0
0
VERTEX
8
CADASTRAL_PARCEL
10
77.230833
20
28.61344
30
0.0
0
VERTEX
8
CADASTRAL_PARCEL
10
77.230835
20
28.61344
30
0.0
0
VERTEX
8
CADASTRAL_PARCEL
10
77.231431
20
28.61343
30
0.0
0
VERTEX
8
CADASTRAL_PARCEL
10
77.231432
20
28.61343
30
0.0
0
VERTEX
8
CADASTRAL_PARCEL
10
77.231434
20
28.61343
30
0.0
0
VERTEX
8
CADASTRAL_PARCEL
10
77.231435
20
28.61343
30
0.0
0
VERTEX
8
CADASTRAL_PARCEL
10
77.231437
20
28.613429
30
0.0
0
VERTEX
8
CADASTRAL_PARCEL
10
77.231438
20
28.613429
30
0.0
0
VERTEX
8
CADASTRAL_PARCEL
10
77.231439
20
28.613428
30
0.0
0
VERTEX
8
CADASTRAL_PARCEL
10
77.231441
20
28.613427
30
0.0
0
VERTEX
8
CADASTRAL_PARCEL
10
77.231442
20
28.613426
30
0.0
0
VERTEX
8
CADASTRAL_PARCEL
10
77.231443
20
28.613425
30
0.0
0
VERTEX
8
CADASTRAL_PARCEL
10
77.231444
20
28.613424
30
0.0
0
VERTEX
8
CADASTRAL_PARCEL
10
77.231444
20
28.613423
30
0.0
0
VERTEX
8
CADASTRAL_PARCEL
10
77.231445
20
28.613422
30
0.0
0
VERTEX
8
CADASTRAL_PARCEL
10
77.231445
20
28.613421
30
0.0
0
VERTEX
8
CADASTRAL_PARCEL
10
77.231446
20
28.613419
30
0.0
0
VERTEX
8
CADASTRAL_PARCEL
10
77.231446
20
28.613418
30
0.0
0
VERTEX
8
CADASTRAL_PARCEL
10
77.231446
20
28.613417
30
0.0
0
VERTEX
8
CADASTRAL_PARCEL
10
77.231439
20
28.613074
30
0.0
0
SEQEND
0
POLYLINE
8
CADASTRAL_PARCEL
66
1
70
1
0
VERTEX
8
CADASTRAL_PARCEL
10
77.231431
20
28.613417
30
0.0
0
VERTEX
8
CADASTRAL_PARCEL
10
77.230834
20
28.613427
30
0.0
0
VERTEX
8
CADASTRAL_PARCEL
10
77.230842
20
28.613769
30
0.0
0
VERTEX
8
CADASTRAL_PARCEL
10
77.231438
20
28.61376
30
0.0
0
VERTEX
8
CADASTRAL_PARCEL
10
77.231431
20
28.613417
30
0.0
0
SEQEND
0
POLYLINE
8
CADASTRAL_PARCEL
66
1
70
1
0
VERTEX
8
CADASTRAL_PARCEL
10
77.231438
20
28.61376
30
0.0
0
VERTEX
8
CADASTRAL_PARCEL
10
77.230842
20
28.613769
30
0.0
0
VERTEX
8
CADASTRAL_PARCEL
10
77.230849
20
28.614112
30
0.0
0
VERTEX
8
CADASTRAL_PARCEL
10
77.231445
20
28.614102
30
0.0
0
VERTEX
8
CADASTRAL_PARCEL
10
77.231438
20
28.61376
30
0.0
0
SEQEND
0
POLYLINE
8
CADASTRAL_PARCEL
66
1
70
1
0
VERTEX
8
CADASTRAL_PARCEL
10
77.231445
20
28.614102
30
0.0
0
VERTEX
8
CADASTRAL_PARCEL
10
77.230849
20
28.614112
30
0.0
0
VERTEX
8
CADASTRAL_PARCEL
10
77.230856
20
28.614455
30
0.0
0
VERTEX
8
CADASTRAL_PARCEL
10
77.231452
20
28.614445
30
0.0
0
VERTEX
8
CADASTRAL_PARCEL
10
77.231445
20
28.614102
30
0.0
0
SEQEND
0
POLYLINE
8
CADASTRAL_PARCEL
66
1
70
1
0
VERTEX
8
CADASTRAL_PARCEL
10
77.231452
20
28.614445
30
0.0
0
VERTEX
8
CADASTRAL_PARCEL
10
77.230856
20
28.614455
30
0.0
0
VERTEX
8
CADASTRAL_PARCEL
10
77.230863
20
28.614798
30
0.0
0
VERTEX
8
CADASTRAL_PARCEL
10
77.23146
20
28.614788
30
0.0
0
VERTEX
8
CADASTRAL_PARCEL
10
77.231452
20
28.614445
30
0.0
0
SEQEND
0
POLYLINE
8
CADASTRAL_PARCEL
66
1
70
1
0
VERTEX
8
CADASTRAL_PARCEL
10
77.23019
20
28.612018
30
0.0
0
VERTEX
8
CADASTRAL_PARCEL
10
77.230183
20
28.611721
30
0.0
0
VERTEX
8
CADASTRAL_PARCEL
10
77.229624
20
28.61173
30
0.0
0
VERTEX
8
CADASTRAL_PARCEL
10
77.22963
20
28.612027
30
0.0
0
VERTEX
8
CADASTRAL_PARCEL
10
77.23019
20
28.612018
30
0.0
0
SEQEND
0
POLYLINE
8
CADASTRAL_PARCEL
66
1
70
1
0
VERTEX
8
CADASTRAL_PARCEL
10
77.230215
20
28.612363
30
0.0
0
VERTEX
8
CADASTRAL_PARCEL
10
77.230208
20
28.612034
30
0.0
0
VERTEX
8
CADASTRAL_PARCEL
10
77.229612
20
28.612044
30
0.0
0
VERTEX
8
CADASTRAL_PARCEL
10
77.229619
20
28.612373
30
0.0
0
VERTEX
8
CADASTRAL_PARCEL
10
77.230215
20
28.612363
30
0.0
0
SEQEND
0
POLYLINE
8
CADASTRAL_PARCEL
66
1
70
1
0
VERTEX
8
CADASTRAL_PARCEL
10
77.230222
20
28.612692
30
0.0
0
VERTEX
8
CADASTRAL_PARCEL
10
77.230215
20
28.612345
30
0.0
0
VERTEX
8
CADASTRAL_PARCEL
10
77.229619
20
28.612355
30
0.0
0
VERTEX
8
CADASTRAL_PARCEL
10
77.229626
20
28.612702
30
0.0
0
VERTEX
8
CADASTRAL_PARCEL
10
77.230222
20
28.612692
30
0.0
0
SEQEND
0
POLYLINE
8
CADASTRAL_PARCEL
66
1
70
1
0
VERTEX
8
CADASTRAL_PARCEL
10
77.230222
20
28.612692
30
0.0
0
VERTEX
8
CADASTRAL_PARCEL
10
77.229626
20
28.612702
30
0.0
0
VERTEX
8
CADASTRAL_PARCEL
10
77.229633
20
28.613031
30
0.0
0
VERTEX
8
CADASTRAL_PARCEL
10
77.230229
20
28.613022
30
0.0
0
VERTEX
8
CADASTRAL_PARCEL
10
77.230222
20
28.612692
30
0.0
0
SEQEND
0
POLYLINE
8
CADASTRAL_PARCEL
66
1
70
1
0
VERTEX
8
CADASTRAL_PARCEL
10
77.230208
20
28.612034
30
0.0
0
VERTEX
8
CADASTRAL_PARCEL
10
77.230805
20
28.612024
30
0.0
0
VERTEX
8
CADASTRAL_PARCEL
10
77.230798
20
28.611695
30
0.0
0
VERTEX
8
CADASTRAL_PARCEL
10
77.230202
20
28.611705
30
0.0
0
VERTEX
8
CADASTRAL_PARCEL
10
77.230208
20
28.612034
30
0.0
0
SEQEND
0
POLYLINE
8
CADASTRAL_PARCEL
66
1
70
1
0
VERTEX
8
CADASTRAL_PARCEL
10
77.230208
20
28.61202
30
0.0
0
VERTEX
8
CADASTRAL_PARCEL
10
77.230207
20
28.61202
30
0.0
0
VERTEX
8
CADASTRAL_PARCEL
10
77.230205
20
28.612021
30
0.0
0
VERTEX
8
CADASTRAL_PARCEL
10
77.230204
20
28.612021
30
0.0
0
VERTEX
8
CADASTRAL_PARCEL
10
77.230202
20
28.612022
30
0.0
0
VERTEX
8
CADASTRAL_PARCEL
10
77.230201
20
28.612022
30
0.0
0
VERTEX
8
CADASTRAL_PARCEL
10
77.2302
20
28.612023
30
0.0
0
VERTEX
8
CADASTRAL_PARCEL
10
77.230199
20
28.612024
30
0.0
0
VERTEX
8
CADASTRAL_PARCEL
10
77.230197
20
28.612025
30
0.0
0
VERTEX
8
CADASTRAL_PARCEL
10
77.230196
20
28.612026
30
0.0
0
VERTEX
8
CADASTRAL_PARCEL
10
77.230196
20
28.612027
30
0.0
0
VERTEX
8
CADASTRAL_PARCEL
10
77.230195
20
28.612028
30
0.0
0
VERTEX
8
CADASTRAL_PARCEL
10
77.230194
20
28.612029
30
0.0
0
VERTEX
8
CADASTRAL_PARCEL
10
77.230194
20
28.61203
30
0.0
0
VERTEX
8
CADASTRAL_PARCEL
10
77.230193
20
28.612032
30
0.0
0
VERTEX
8
CADASTRAL_PARCEL
10
77.230193
20
28.612033
30
0.0
0
VERTEX
8
CADASTRAL_PARCEL
10
77.230193
20
28.612034
30
0.0
0
VERTEX
8
CADASTRAL_PARCEL
10
77.2302
20
28.612363
30
0.0
0
VERTEX
8
CADASTRAL_PARCEL
10
77.2302
20
28.612365
30
0.0
0
VERTEX
8
CADASTRAL_PARCEL
10
77.2302
20
28.612366
30
0.0
0
VERTEX
8
CADASTRAL_PARCEL
10
77.230201
20
28.612367
30
0.0
0
VERTEX
8
CADASTRAL_PARCEL
10
77.230201
20
28.612369
30
0.0
0
VERTEX
8
CADASTRAL_PARCEL
10
77.230202
20
28.61237
30
0.0
0
VERTEX
8
CADASTRAL_PARCEL
10
77.230203
20
28.612371
30
0.0
0
VERTEX
8
CADASTRAL_PARCEL
10
77.230204
20
28.612372
30
0.0
0
VERTEX
8
CADASTRAL_PARCEL
10
77.230205
20
28.612373
30
0.0
0
VERTEX
8
CADASTRAL_PARCEL
10
77.230206
20
28.612374
30
0.0
0
VERTEX
8
CADASTRAL_PARCEL
10
77.230207
20
28.612375
30
0.0
0
VERTEX
8
CADASTRAL_PARCEL
10
77.230208
20
28.612375
30
0.0
0
VERTEX
8
CADASTRAL_PARCEL
10
77.23021
20
28.612376
30
0.0
0
VERTEX
8
CADASTRAL_PARCEL
10
77.230211
20
28.612376
30
0.0
0
VERTEX
8
CADASTRAL_PARCEL
10
77.230213
20
28.612376
30
0.0
0
VERTEX
8
CADASTRAL_PARCEL
10
77.230214
20
28.612377
30
0.0
0
VERTEX
8
CADASTRAL_PARCEL
10
77.230216
20
28.612377
30
0.0
0
VERTEX
8
CADASTRAL_PARCEL
10
77.230812
20
28.612367
30
0.0
0
VERTEX
8
CADASTRAL_PARCEL
10
77.230813
20
28.612367
30
0.0
0
VERTEX
8
CADASTRAL_PARCEL
10
77.230815
20
28.612367
30
0.0
0
VERTEX
8
CADASTRAL_PARCEL
10
77.230816
20
28.612366
30
0.0
0
VERTEX
8
CADASTRAL_PARCEL
10
77.230818
20
28.612366
30
0.0
0
VERTEX
8
CADASTRAL_PARCEL
10
77.230819
20
28.612365
30
0.0
0
VERTEX
8
CADASTRAL_PARCEL
10
77.23082
20
28.612364
30
0.0
0
VERTEX
8
CADASTRAL_PARCEL
10
77.230822
20
28.612364
30
0.0
0
VERTEX
8
CADASTRAL_PARCEL
10
77.230823
20
28.612363
30
0.0
0
VERTEX
8
CADASTRAL_PARCEL
10
77.230824
20
28.612362
30
0.0
0
VERTEX
8
CADASTRAL_PARCEL
10
77.230825
20
28.612361
30
0.0
0
VERTEX
8
CADASTRAL_PARCEL
10
77.230825
20
28.612359
30
0.0
0
VERTEX
8
CADASTRAL_PARCEL
10
77.230826
20
28.612358
30
0.0
0
VERTEX
8
CADASTRAL_PARCEL
10
77.230826
20
28.612357
30
0.0
0
VERTEX
8
CADASTRAL_PARCEL
10
77.230827
20
28.612356
30
0.0
0
VERTEX
8
CADASTRAL_PARCEL
10
77.230827
20
28.612354
30
0.0
0
VERTEX
8
CADASTRAL_PARCEL
10
77.230827
20
28.612353
30
0.0
0
VERTEX
8
CADASTRAL_PARCEL
10
77.23082
20
28.612024
30
0.0
0
VERTEX
8
CADASTRAL_PARCEL
10
77.23082
20
28.612023
30
0.0
0
VERTEX
8
CADASTRAL_PARCEL
10
77.23082
20
28.612021
30
0.0
0
VERTEX
8
CADASTRAL_PARCEL
10
77.230819
20
28.61202
30
0.0
0
VERTEX
8
CADASTRAL_PARCEL
10
77.230819
20
28.612019
30
0.0
0
VERTEX
8
CADASTRAL_PARCEL
10
77.230818
20
28.612017
30
0.0
0
VERTEX
8
CADASTRAL_PARCEL
10
77.230817
20
28.612016
30
0.0
0
VERTEX
8
CADASTRAL_PARCEL
10
77.230816
20
28.612015
30
0.0
0
VERTEX
8
CADASTRAL_PARCEL
10
77.230815
20
28.612014
30
0.0
0
VERTEX
8
CADASTRAL_PARCEL
10
77.230814
20
28.612013
30
0.0
0
VERTEX
8
CADASTRAL_PARCEL
10
77.230813
20
28.612013
30
0.0
0
VERTEX
8
CADASTRAL_PARCEL
10
77.230812
20
28.612012
30
0.0
0
VERTEX
8
CADASTRAL_PARCEL
10
77.23081
20
28.612011
30
0.0
0
VERTEX
8
CADASTRAL_PARCEL
10
77.230809
20
28.612011
30
0.0
0
VERTEX
8
CADASTRAL_PARCEL
10
77.230807
20
28.612011
30
0.0
0
VERTEX
8
CADASTRAL_PARCEL
10
77.230806
20
28.612011
30
0.0
0
VERTEX
8
CADASTRAL_PARCEL
10
77.230804
20
28.612011
30
0.0
0
VERTEX
8
CADASTRAL_PARCEL
10
77.230208
20
28.61202
30
0.0
0
SEQEND
0
POLYLINE
8
CADASTRAL_PARCEL
66
1
70
1
0
VERTEX
8
CADASTRAL_PARCEL
10
77.230215
20
28.612363
30
0.0
0
VERTEX
8
CADASTRAL_PARCEL
10
77.230222
20
28.612692
30
0.0
0
VERTEX
8
CADASTRAL_PARCEL
10
77.230819
20
28.612683
30
0.0
0
VERTEX
8
CADASTRAL_PARCEL
10
77.230812
20
28.612353
30
0.0
0
VERTEX
8
CADASTRAL_PARCEL
10
77.230215
20
28.612363
30
0.0
0
SEQEND
0
POLYLINE
8
CADASTRAL_PARCEL
66
1
70
1
0
VERTEX
8
CADASTRAL_PARCEL
10
77.230819
20
28.612683
30
0.0
0
VERTEX
8
CADASTRAL_PARCEL
10
77.230222
20
28.612692
30
0.0
0
VERTEX
8
CADASTRAL_PARCEL
10
77.230229
20
28.613022
30
0.0
0
VERTEX
8
CADASTRAL_PARCEL
10
77.230826
20
28.613012
30
0.0
0
VERTEX
8
CADASTRAL_PARCEL
10
77.230819
20
28.612683
30
0.0
0
SEQEND
0
POLYLINE
8
CADASTRAL_PARCEL
66
1
70
1
0
VERTEX
8
CADASTRAL_PARCEL
10
77.231394
20
28.611685
30
0.0
0
VERTEX
8
CADASTRAL_PARCEL
10
77.230798
20
28.611695
30
0.0
0
VERTEX
8
CADASTRAL_PARCEL
10
77.230805
20
28.612024
30
0.0
0
VERTEX
8
CADASTRAL_PARCEL
10
77.231401
20
28.612014
30
0.0
0
VERTEX
8
CADASTRAL_PARCEL
10
77.231394
20
28.611685
30
0.0
0
SEQEND
0
POLYLINE
8
CADASTRAL_PARCEL
66
1
70
1
0
VERTEX
8
CADASTRAL_PARCEL
10
77.231401
20
28.612014
30
0.0
0
VERTEX
8
CADASTRAL_PARCEL
10
77.230805
20
28.612024
30
0.0
0
VERTEX
8
CADASTRAL_PARCEL
10
77.230812
20
28.612353
30
0.0
0
VERTEX
8
CADASTRAL_PARCEL
10
77.231408
20
28.612343
30
0.0
0
VERTEX
8
CADASTRAL_PARCEL
10
77.231401
20
28.612014
30
0.0
0
SEQEND
0
POLYLINE
8
CADASTRAL_PARCEL
66
1
70
1
0
VERTEX
8
CADASTRAL_PARCEL
10
77.23139
20
28.61236
30
0.0
0
VERTEX
8
CADASTRAL_PARCEL
10
77.23083
20
28.612369
30
0.0
0
VERTEX
8
CADASTRAL_PARCEL
10
77.230837
20
28.612666
30
0.0
0
VERTEX
8
CADASTRAL_PARCEL
10
77.231396
20
28.612657
30
0.0
0
VERTEX
8
CADASTRAL_PARCEL
10
77.23139
20
28.61236
30
0.0
0
SEQEND
0
POLYLINE
8
CADASTRAL_PARCEL
66
1
70
1
0
VERTEX
8
CADASTRAL_PARCEL
10
77.231415
20
28.612673
30
0.0
0
VERTEX
8
CADASTRAL_PARCEL
10
77.230819
20
28.612683
30
0.0
0
VERTEX
8
CADASTRAL_PARCEL
10
77.230826
20
28.613012
30
0.0
0
VERTEX
8
CADASTRAL_PARCEL
10
77.231422
20
28.613002
30
0.0
0
VERTEX
8
CADASTRAL_PARCEL
10
77.231415
20
28.612673
30
0.0
0
SEQEND
0
POLYLINE
8
CADASTRAL_PARCEL
66
1
70
1
0
VERTEX
8
CADASTRAL_PARCEL
10
77.23204
20
28.612004
30
0.0
0
VERTEX
8
CADASTRAL_PARCEL
10
77.232033
20
28.611675
30
0.0
0
VERTEX
8
CADASTRAL_PARCEL
10
77.231496
20
28.611683
30
0.0
0
VERTEX
8
CADASTRAL_PARCEL
10
77.231503
20
28.612013
30
0.0
0
VERTEX
8
CADASTRAL_PARCEL
10
77.23204
20
28.612004
30
0.0
0
SEQEND
0
POLYLINE
8
CADASTRAL_PARCEL
66
1
70
1
0
VERTEX
8
CADASTRAL_PARCEL
10
77.232047
20
28.612333
30
0.0
0
VERTEX
8
CADASTRAL_PARCEL
10
77.23204
20
28.612004
30
0.0
0
VERTEX
8
CADASTRAL_PARCEL
10
77.231503
20
28.612013
30
0.0
0
VERTEX
8
CADASTRAL_PARCEL
10
77.23151
20
28.612342
30
0.0
0
VERTEX
8
CADASTRAL_PARCEL
10
77.232047
20
28.612333
30
0.0
0
SEQEND
0
POLYLINE
8
CADASTRAL_PARCEL
66
1
70
1
0
VERTEX
8
CADASTRAL_PARCEL
10
77.232054
20
28.612662
30
0.0
0
VERTEX
8
CADASTRAL_PARCEL
10
77.232047
20
28.612333
30
0.0
0
VERTEX
8
CADASTRAL_PARCEL
10
77.23151
20
28.612342
30
0.0
0
VERTEX
8
CADASTRAL_PARCEL
10
77.231517
20
28.612671
30
0.0
0
VERTEX
8
CADASTRAL_PARCEL
10
77.232054
20
28.612662
30
0.0
0
SEQEND
0
POLYLINE
8
CADASTRAL_PARCEL
66
1
70
1
0
VERTEX
8
CADASTRAL_PARCEL
10
77.232069
20
28.612662
30
0.0
0
VERTEX
8
CADASTRAL_PARCEL
10
77.232069
20
28.612661
30
0.0
0
VERTEX
8
CADASTRAL_PARCEL
10
77.232069
20
28.612659
30
0.0
0
VERTEX
8
CADASTRAL_PARCEL
10
77.232068
20
28.612658
30
0.0
0
VERTEX
8
CADASTRAL_PARCEL
10
77.232068
20
28.612657
30
0.0
0
VERTEX
8
CADASTRAL_PARCEL
10
77.232067
20
28.612656
30
0.0
0
VERTEX
8
CADASTRAL_PARCEL
10
77.232066
20
28.612654
30
0.0
0
VERTEX
8
CADASTRAL_PARCEL
10
77.232065
20
28.612653
30
0.0
0
VERTEX
8
CADASTRAL_PARCEL
10
77.232064
20
28.612652
30
0.0
0
VERTEX
8
CADASTRAL_PARCEL
10
77.232063
20
28.612652
30
0.0
0
VERTEX
8
CADASTRAL_PARCEL
10
77.232062
20
28.612651
30
0.0
0
VERTEX
8
CADASTRAL_PARCEL
10
77.232061
20
28.61265
30
0.0
0
VERTEX
8
CADASTRAL_PARCEL
10
77.232059
20
28.61265
30
0.0
0
VERTEX
8
CADASTRAL_PARCEL
10
77.232058
20
28.612649
30
0.0
0
VERTEX
8
CADASTRAL_PARCEL
10
77.232056
20
28.612649
30
0.0
0
VERTEX
8
CADASTRAL_PARCEL
10
77.232055
20
28.612649
30
0.0
0
VERTEX
8
CADASTRAL_PARCEL
10
77.232053
20
28.612649
30
0.0
0
VERTEX
8
CADASTRAL_PARCEL
10
77.231517
20
28.612657
30
0.0
0
VERTEX
8
CADASTRAL_PARCEL
10
77.231515
20
28.612658
30
0.0
0
VERTEX
8
CADASTRAL_PARCEL
10
77.231514
20
28.612658
30
0.0
0
VERTEX
8
CADASTRAL_PARCEL
10
77.231512
20
28.612658
30
0.0
0
VERTEX
8
CADASTRAL_PARCEL
10
77.231511
20
28.612659
30
0.0
0
VERTEX
8
CADASTRAL_PARCEL
10
77.23151
20
28.612659
30
0.0
0
VERTEX
8
CADASTRAL_PARCEL
10
77.231508
20
28.61266
30
0.0
0
VERTEX
8
CADASTRAL_PARCEL
10
77.231507
20
28.612661
30
0.0
0
VERTEX
8
CADASTRAL_PARCEL
10
77.231506
20
28.612662
30
0.0
0
VERTEX
8
CADASTRAL_PARCEL
10
77.231505
20
28.612663
30
0.0
0
VERTEX
8
CADASTRAL_PARCEL
10
77.231504
20
28.612664
30
0.0
0
VERTEX
8
CADASTRAL_PARCEL
10
77.231503
20
28.612665
30
0.0
0
VERTEX
8
CADASTRAL_PARCEL
10
77.231503
20
28.612666
30
0.0
0
VERTEX
8
CADASTRAL_PARCEL
10
77.231502
20
28.612667
30
0.0
0
VERTEX
8
CADASTRAL_PARCEL
10
77.231502
20
28.612669
30
0.0
0
VERTEX
8
CADASTRAL_PARCEL
10
77.231502
20
28.61267
30
0.0
0
VERTEX
8
CADASTRAL_PARCEL
10
77.231502
20
28.612671
30
0.0
0
VERTEX
8
CADASTRAL_PARCEL
10
77.231509
20
28.613
30
0.0
0
VERTEX
8
CADASTRAL_PARCEL
10
77.231509
20
28.613002
30
0.0
0
VERTEX
8
CADASTRAL_PARCEL
10
77.231509
20
28.613003
30
0.0
0
VERTEX
8
CADASTRAL_PARCEL
10
77.231509
20
28.613004
30
0.0
0
VERTEX
8
CADASTRAL_PARCEL
10
77.23151
20
28.613006
30
0.0
0
VERTEX
8
CADASTRAL_PARCEL
10
77.231511
20
28.613007
30
0.0
0
VERTEX
8
CADASTRAL_PARCEL
10
77.231511
20
28.613008
30
0.0
0
VERTEX
8
CADASTRAL_PARCEL
10
77.231512
20
28.613009
30
0.0
0
VERTEX
8
CADASTRAL_PARCEL
10
77.231513
20
28.61301
30
0.0
0
VERTEX
8
CADASTRAL_PARCEL
10
77.231515
20
28.613011
30
0.0
0
VERTEX
8
CADASTRAL_PARCEL
10
77.231516
20
28.613012
30
0.0
0
VERTEX
8
CADASTRAL_PARCEL
10
77.231517
20
28.613012
30
0.0
0
VERTEX
8
CADASTRAL_PARCEL
10
77.231518
20
28.613013
30
0.0
0
VERTEX
8
CADASTRAL_PARCEL
10
77.23152
20
28.613013
30
0.0
0
VERTEX
8
CADASTRAL_PARCEL
10
77.231521
20
28.613014
30
0.0
0
VERTEX
8
CADASTRAL_PARCEL
10
77.231523
20
28.613014
30
0.0
0
VERTEX
8
CADASTRAL_PARCEL
10
77.231524
20
28.613014
30
0.0
0
VERTEX
8
CADASTRAL_PARCEL
10
77.232061
20
28.613005
30
0.0
0
VERTEX
8
CADASTRAL_PARCEL
10
77.232062
20
28.613005
30
0.0
0
VERTEX
8
CADASTRAL_PARCEL
10
77.232064
20
28.613005
30
0.0
0
VERTEX
8
CADASTRAL_PARCEL
10
77.232065
20
28.613004
30
0.0
0
VERTEX
8
CADASTRAL_PARCEL
10
77.232067
20
28.613004
30
0.0
0
VERTEX
8
CADASTRAL_PARCEL
10
77.232068
20
28.613003
30
0.0
0
VERTEX
8
CADASTRAL_PARCEL
10
77.232069
20
28.613003
30
0.0
0
VERTEX
8
CADASTRAL_PARCEL
10
77.232071
20
28.613002
30
0.0
0
VERTEX
8
CADASTRAL_PARCEL
10
77.232072
20
28.613001
30
0.0
0
VERTEX
8
CADASTRAL_PARCEL
10
77.232073
20
28.613
30
0.0
0
VERTEX
8
CADASTRAL_PARCEL
10
77.232074
20
28.612999
30
0.0
0
VERTEX
8
CADASTRAL_PARCEL
10
77.232074
20
28.612998
30
0.0
0
VERTEX
8
CADASTRAL_PARCEL
10
77.232075
20
28.612996
30
0.0
0
VERTEX
8
CADASTRAL_PARCEL
10
77.232075
20
28.612995
30
0.0
0
VERTEX
8
CADASTRAL_PARCEL
10
77.232076
20
28.612994
30
0.0
0
VERTEX
8
CADASTRAL_PARCEL
10
77.232076
20
28.612992
30
0.0
0
VERTEX
8
CADASTRAL_PARCEL
10
77.232076
20
28.612991
30
0.0
0
VERTEX
8
CADASTRAL_PARCEL
10
77.232069
20
28.612662
30
0.0
0
SEQEND
0
POLYLINE
8
CADASTRAL_PARCEL
66
1
70
1
0
VERTEX
8
CADASTRAL_PARCEL
10
77.23204
20
28.612004
30
0.0
0
VERTEX
8
CADASTRAL_PARCEL
10
77.232576
20
28.611995
30
0.0
0
VERTEX
8
CADASTRAL_PARCEL
10
77.232569
20
28.611666
30
0.0
0
VERTEX
8
CADASTRAL_PARCEL
10
77.232033
20
28.611675
30
0.0
0
VERTEX
8
CADASTRAL_PARCEL
10
77.23204
20
28.612004
30
0.0
0
SEQEND
0
POLYLINE
8
CADASTRAL_PARCEL
66
1
70
1
0
VERTEX
8
CADASTRAL_PARCEL
10
77.23204
20
28.612004
30
0.0
0
VERTEX
8
CADASTRAL_PARCEL
10
77.232047
20
28.612333
30
0.0
0
VERTEX
8
CADASTRAL_PARCEL
10
77.232583
20
28.612324
30
0.0
0
VERTEX
8
CADASTRAL_PARCEL
10
77.232576
20
28.611995
30
0.0
0
VERTEX
8
CADASTRAL_PARCEL
10
77.23204
20
28.612004
30
0.0
0
SEQEND
0
POLYLINE
8
CADASTRAL_PARCEL
66
1
70
1
0
VERTEX
8
CADASTRAL_PARCEL
10
77.232016
20
28.612315
30
0.0
0
VERTEX
8
CADASTRAL_PARCEL
10
77.232023
20
28.612663
30
0.0
0
VERTEX
8
CADASTRAL_PARCEL
10
77.23259
20
28.612653
30
0.0
0
VERTEX
8
CADASTRAL_PARCEL
10
77.232583
20
28.612306
30
0.0
0
VERTEX
8
CADASTRAL_PARCEL
10
77.232016
20
28.612315
30
0.0
0
SEQEND
0
POLYLINE
8
CADASTRAL_PARCEL
66
1
70
1
0
VERTEX
8
CADASTRAL_PARCEL
10
77.23259
20
28.612653
30
0.0
0
VERTEX
8
CADASTRAL_PARCEL
10
77.232054
20
28.612662
30
0.0
0
VERTEX
8
CADASTRAL_PARCEL
10
77.232061
20
28.612991
30
0.0
0
VERTEX
8
CADASTRAL_PARCEL
10
77.232597
20
28.612983
30
0.0
0
VERTEX
8
CADASTRAL_PARCEL
10
77.23259
20
28.612653
30
0.0
0
SEQEND
0
POLYLINE
8
CADASTRAL_PARCEL
66
1
70
1
0
VERTEX
8
CADASTRAL_PARCEL
10
77.232594
20
28.611978
30
0.0
0
VERTEX
8
CADASTRAL_PARCEL
10
77.233094
20
28.61197
30
0.0
0
VERTEX
8
CADASTRAL_PARCEL
10
77.233088
20
28.611673
30
0.0
0
VERTEX
8
CADASTRAL_PARCEL
10
77.232588
20
28.611682
30
0.0
0
VERTEX
8
CADASTRAL_PARCEL
10
77.232594
20
28.611978
30
0.0
0
SEQEND
0
POLYLINE
8
CADASTRAL_PARCEL
66
1
70
1
0
VERTEX
8
CADASTRAL_PARCEL
10
77.232576
20
28.611995
30
0.0
0
VERTEX
8
CADASTRAL_PARCEL
10
77.232583
20
28.612324
30
0.0
0
VERTEX
8
CADASTRAL_PARCEL
10
77.23312
20
28.612315
30
0.0
0
VERTEX
8
CADASTRAL_PARCEL
10
77.233113
20
28.611986
30
0.0
0
VERTEX
8
CADASTRAL_PARCEL
10
77.232576
20
28.611995
30
0.0
0
SEQEND
0
POLYLINE
8
CADASTRAL_PARCEL
66
1
70
1
0
VERTEX
8
CADASTRAL_PARCEL
10
77.232583
20
28.612324
30
0.0
0
VERTEX
8
CADASTRAL_PARCEL
10
77.23259
20
28.612653
30
0.0
0
VERTEX
8
CADASTRAL_PARCEL
10
77.233127
20
28.612645
30
0.0
0
VERTEX
8
CADASTRAL_PARCEL
10
77.23312
20
28.612315
30
0.0
0
VERTEX
8
CADASTRAL_PARCEL
10
77.232583
20
28.612324
30
0.0
0
SEQEND
0
POLYLINE
8
CADASTRAL_PARCEL
66
1
70
1
0
VERTEX
8
CADASTRAL_PARCEL
10
77.233127
20
28.612645
30
0.0
0
VERTEX
8
CADASTRAL_PARCEL
10
77.23259
20
28.612653
30
0.0
0
VERTEX
8
CADASTRAL_PARCEL
10
77.232597
20
28.612983
30
0.0
0
VERTEX
8
CADASTRAL_PARCEL
10
77.233134
20
28.612974
30
0.0
0
VERTEX
8
CADASTRAL_PARCEL
10
77.233127
20
28.612645
30
0.0
0
SEQEND
0
POLYLINE
8
CADASTRAL_PARCEL
66
1
70
1
0
VERTEX
8
CADASTRAL_PARCEL
10
77.233643
20
28.611648
30
0.0
0
VERTEX
8
CADASTRAL_PARCEL
10
77.233106
20
28.611657
30
0.0
0
VERTEX
8
CADASTRAL_PARCEL
10
77.233113
20
28.611986
30
0.0
0
VERTEX
8
CADASTRAL_PARCEL
10
77.23365
20
28.611977
30
0.0
0
VERTEX
8
CADASTRAL_PARCEL
10
77.233643
20
28.611648
30
0.0
0
SEQEND
0
POLYLINE
8
CADASTRAL_PARCEL
66
1
70
1
0
VERTEX
8
CADASTRAL_PARCEL
10
77.233665
20
28.611977
30
0.0
0
VERTEX
8
CADASTRAL_PARCEL
10
77.233665
20
28.611976
30
0.0
0
VERTEX
8
CADASTRAL_PARCEL
10
77.233665
20
28.611974
30
0.0
0
VERTEX
8
CADASTRAL_PARCEL
10
77.233664
20
28.611973
30
0.0
0
VERTEX
8
CADASTRAL_PARCEL
10
77.233664
20
28.611972
30
0.0
0
VERTEX
8
CADASTRAL_PARCEL
10
77.233663
20
28.611971
30
0.0
0
VERTEX
8
CADASTRAL_PARCEL
10
77.233662
20
28.61197
30
0.0
0
VERTEX
8
CADASTRAL_PARCEL
10
77.233661
20
28.611968
30
0.0
0
VERTEX
8
CADASTRAL_PARCEL
10
77.23366
20
28.611967
30
0.0
0
VERTEX
8
CADASTRAL_PARCEL
10
77.233659
20
28.611967
30
0.0
0
VERTEX
8
CADASTRAL_PARCEL
10
77.233658
20
28.611966
30
0.0
0
VERTEX
8
CADASTRAL_PARCEL
10
77.233657
20
28.611965
30
0.0
0
VERTEX
8
CADASTRAL_PARCEL
10
77.233655
20
28.611965
30
0.0
0
VERTEX
8
CADASTRAL_PARCEL
10
77.233654
20
28.611964
30
0.0
0
VERTEX
8
CADASTRAL_PARCEL
10
77.233652
20
28.611964
30
0.0
0
VERTEX
8
CADASTRAL_PARCEL
10
77.233651
20
28.611964
30
0.0
0
VERTEX
8
CADASTRAL_PARCEL
10
77.233649
20
28.611964
30
0.0
0
VERTEX
8
CADASTRAL_PARCEL
10
77.233113
20
28.611973
30
0.0
0
VERTEX
8
CADASTRAL_PARCEL
10
77.233111
20
28.611973
30
0.0
0
VERTEX
8
CADASTRAL_PARCEL
10
77.23311
20
28.611973
30
0.0
0
VERTEX
8
CADASTRAL_PARCEL
10
77.233108
20
28.611973
30
0.0
0
VERTEX
8
CADASTRAL_PARCEL
10
77.233107
20
28.611974
30
0.0
0
VERTEX
8
CADASTRAL_PARCEL
10
77.233106
20
28.611974
30
0.0
0
VERTEX
8
CADASTRAL_PARCEL
10
77.233104
20
28.611975
30
0.0
0
VERTEX
8
CADASTRAL_PARCEL
10
77.233103
20
28.611976
30
0.0
0
VERTEX
8
CADASTRAL_PARCEL
10
77.233102
20
28.611977
30
0.0
0
VERTEX
8
CADASTRAL_PARCEL
10
77.233101
20
28.611978
30
0.0
0
VERTEX
8
CADASTRAL_PARCEL
10
77.2331
20
28.611979
30
0.0
0
VERTEX
8
CADASTRAL_PARCEL
10
77.233099
20
28.61198
30
0.0
0
VERTEX
8
CADASTRAL_PARCEL
10
77.233099
20
28.611981
30
0.0
0
VERTEX
8
CADASTRAL_PARCEL
10
77.233098
20
28.611982
30
0.0
0
VERTEX
8
CADASTRAL_PARCEL
10
77.233098
20
28.611984
30
0.0
0
VERTEX
8
CADASTRAL_PARCEL
10
77.233098
20
28.611985
30
0.0
0
VERTEX
8
CADASTRAL_PARCEL
10
77.233098
20
28.611986
30
0.0
0
VERTEX
8
CADASTRAL_PARCEL
10
77.233105
20
28.612316
30
0.0
0
VERTEX
8
CADASTRAL_PARCEL
10
77.233105
20
28.612317
30
0.0
0
VERTEX
8
CADASTRAL_PARCEL
10
77.233105
20
28.612318
30
0.0
0
VERTEX
8
CADASTRAL_PARCEL
10
77.233105
20
28.612319
30
0.0
0
VERTEX
8
CADASTRAL_PARCEL
10
77.233106
20
28.612321
30
0.0
0
VERTEX
8
CADASTRAL_PARCEL
10
77.233107
20
28.612322
30
0.0
0
VERTEX
8
CADASTRAL_PARCEL
10
77.233107
20
28.612323
30
0.0
0
VERTEX
8
CADASTRAL_PARCEL
10
77.233108
20
28.612324
30
0.0
0
VERTEX
8
CADASTRAL_PARCEL
10
77.233109
20
28.612325
30
0.0
0
VERTEX
8
CADASTRAL_PARCEL
10
77.23311
20
28.612326
30
0.0
0
VERTEX
8
CADASTRAL_PARCEL
10
77.233112
20
28.612327
30
0.0
0
VERTEX
8
CADASTRAL_PARCEL
10
77.233113
20
28.612327
30
0.0
0
VERTEX
8
CADASTRAL_PARCEL
10
77.233114
20
28.612328
30
0.0
0
VERTEX
8
CADASTRAL_PARCEL
10
77.233116
20
28.612328
30
0.0
0
VERTEX
8
CADASTRAL_PARCEL
10
77.233117
20
28.612329
30
0.0
0
VERTEX
8
CADASTRAL_PARCEL
10
77.233119
20
28.612329
30
0.0
0
VERTEX
8
CADASTRAL_PARCEL
10
77.23312
20
28.612329
30
0.0
0
VERTEX
8
CADASTRAL_PARCEL
10
77.233657
20
28.61232
30
0.0
0
VERTEX
8
CADASTRAL_PARCEL
10
77.233658
20
28.61232
30
0.0
0
VERTEX
8
CADASTRAL_PARCEL
10
77.23366
20
28.61232
30
0.0
0
VERTEX
8
CADASTRAL_PARCEL
10
77.233661
20
28.612319
30
0.0
0
VERTEX
8
CADASTRAL_PARCEL
10
77.233663
20
28.612319
30
0.0
0
VERTEX
8
CADASTRAL_PARCEL
10
77.233664
20
28.612318
30
0.0
0
VERTEX
8
CADASTRAL_PARCEL
10
77.233665
20
28.612318
30
0.0
0
VERTEX
8
CADASTRAL_PARCEL
10
77.233667
20
28.612317
30
0.0
0
VERTEX
8
CADASTRAL_PARCEL
10
77.233668
20
28.612316
30
0.0
0
VERTEX
8
CADASTRAL_PARCEL
10
77.233669
20
28.612315
30
0.0
0
VERTEX
8
CADASTRAL_PARCEL
10
77.233669
20
28.612314
30
0.0
0
VERTEX
8
CADASTRAL_PARCEL
10
77.23367
20
28.612313
30
0.0
0
VERTEX
8
CADASTRAL_PARCEL
10
77.233671
20
28.612311
30
0.0
0
VERTEX
8
CADASTRAL_PARCEL
10
77.233671
20
28.61231
30
0.0
0
VERTEX
8
CADASTRAL_PARCEL
10
77.233672
20
28.612309
30
0.0
0
VERTEX
8
CADASTRAL_PARCEL
10
77.233672
20
28.612308
30
0.0
0
VERTEX
8
CADASTRAL_PARCEL
10
77.233672
20
28.612306
30
0.0
0
VERTEX
8
CADASTRAL_PARCEL
10
77.233665
20
28.611977
30
0.0
0
SEQEND
0
POLYLINE
8
CADASTRAL_PARCEL
66
1
70
1
0
VERTEX
8
CADASTRAL_PARCEL
10
77.233089
20
28.612298
30
0.0
0
VERTEX
8
CADASTRAL_PARCEL
10
77.233096
20
28.612645
30
0.0
0
VERTEX
8
CADASTRAL_PARCEL
10
77.233664
20
28.612636
30
0.0
0
VERTEX
8
CADASTRAL_PARCEL
10
77.233656
20
28.612288
30
0.0
0
VERTEX
8
CADASTRAL_PARCEL
10
77.233089
20
28.612298
30
0.0
0
SEQEND
0
POLYLINE
8
CADASTRAL_PARCEL
66
1
70
1
0
VERTEX
8
CADASTRAL_PARCEL
10
77.233664
20
28.612636
30
0.0
0
VERTEX
8
CADASTRAL_PARCEL
10
77.233127
20
28.612645
30
0.0
0
VERTEX
8
CADASTRAL_PARCEL
10
77.233134
20
28.612974
30
0.0
0
VERTEX
8
CADASTRAL_PARCEL
10
77.233671
20
28.612965
30
0.0
0
VERTEX
8
CADASTRAL_PARCEL
10
77.233664
20
28.612636
30
0.0
0
SEQEND
0
POLYLINE
8
CADASTRAL_PARCEL
66
1
70
1
0
VERTEX
8
CADASTRAL_PARCEL
10
77.232069
20
28.613406
30
0.0
0
VERTEX
8
CADASTRAL_PARCEL
10
77.232062
20
28.613064
30
0.0
0
VERTEX
8
CADASTRAL_PARCEL
10
77.231526
20
28.613072
30
0.0
0
VERTEX
8
CADASTRAL_PARCEL
10
77.231533
20
28.613415
30
0.0
0
VERTEX
8
CADASTRAL_PARCEL
10
77.232069
20
28.613406
30
0.0
0
SEQEND
0
POLYLINE
8
CADASTRAL_PARCEL
66
1
70
1
0
VERTEX
8
CADASTRAL_PARCEL
10
77.232077
20
28.613749
30
0.0
0
VERTEX
8
CADASTRAL_PARCEL
10
77.232069
20
28.613406
30
0.0
0
VERTEX
8
CADASTRAL_PARCEL
10
77.231533
20
28.613415
30
0.0
0
VERTEX
8
CADASTRAL_PARCEL
10
77.23154
20
28.613758
30
0.0
0
VERTEX
8
CADASTRAL_PARCEL
10
77.232077
20
28.613749
30
0.0
0
SEQEND
0
POLYLINE
8
CADASTRAL_PARCEL
66
1
70
1
0
VERTEX
8
CADASTRAL_PARCEL
10
77.232065
20
28.614076
30
0.0
0
VERTEX
8
CADASTRAL_PARCEL
10
77.232059
20
28.613766
30
0.0
0
VERTEX
8
CADASTRAL_PARCEL
10
77.231559
20
28.613774
30
0.0
0
VERTEX
8
CADASTRAL_PARCEL
10
77.231565
20
28.614084
30
0.0
0
VERTEX
8
CADASTRAL_PARCEL
10
77.232065
20
28.614076
30
0.0
0
SEQEND
0
POLYLINE
8
CADASTRAL_PARCEL
66
1
70
1
0
VERTEX
8
CADASTRAL_PARCEL
10
77.232091
20
28.614435
30
0.0
0
VERTEX
8
CADASTRAL_PARCEL
10
77.232084
20
28.614092
30
0.0
0
VERTEX
8
CADASTRAL_PARCEL
10
77.231547
20
28.614101
30
0.0
0
VERTEX
8
CADASTRAL_PARCEL
10
77.231555
20
28.614443
30
0.0
0
VERTEX
8
CADASTRAL_PARCEL
10
77.232091
20
28.614435
30
0.0
0
SEQEND
0
POLYLINE
8
CADASTRAL_PARCEL
66
1
70
1
0
VERTEX
8
CADASTRAL_PARCEL
10
77.232091
20
28.614435
30
0.0
0
VERTEX
8
CADASTRAL_PARCEL
10
77.231555
20
28.614443
30
0.0
0
VERTEX
8
CADASTRAL_PARCEL
10
77.231562
20
28.614786
30
0.0
0
VERTEX
8
CADASTRAL_PARCEL
10
77.232098
20
28.614777
30
0.0
0
VERTEX
8
CADASTRAL_PARCEL
10
77.232091
20
28.614435
30
0.0
0
SEQEND
0
POLYLINE
8
CADASTRAL_PARCEL
66
1
70
1
0
VERTEX
8
CADASTRAL_PARCEL
10
77.232069
20
28.613406
30
0.0
0
VERTEX
8
CADASTRAL_PARCEL
10
77.232606
20
28.613397
30
0.0
0
VERTEX
8
CADASTRAL_PARCEL
10
77.232599
20
28.613055
30
0.0
0
VERTEX
8
CADASTRAL_PARCEL
10
77.232062
20
28.613064
30
0.0
0
VERTEX
8
CADASTRAL_PARCEL
10
77.232069
20
28.613406
30
0.0
0
SEQEND
0
POLYLINE
8
CADASTRAL_PARCEL
66
1
70
1
0
VERTEX
8
CADASTRAL_PARCEL
10
77.232038
20
28.613389
30
0.0
0
VERTEX
8
CADASTRAL_PARCEL
10
77.232046
20
28.61375
30
0.0
0
VERTEX
8
CADASTRAL_PARCEL
10
77.232613
20
28.61374
30
0.0
0
VERTEX
8
CADASTRAL_PARCEL
10
77.232606
20
28.613379
30
0.0
0
VERTEX
8
CADASTRAL_PARCEL
10
77.232038
20
28.613389
30
0.0
0
SEQEND
0
POLYLINE
8
CADASTRAL_PARCEL
66
1
70
1
0
VERTEX
8
CADASTRAL_PARCEL
10
77.232076
20
28.613736
30
0.0
0
VERTEX
8
CADASTRAL_PARCEL
10
77.232075
20
28.613736
30
0.0
0
VERTEX
8
CADASTRAL_PARCEL
10
77.232073
20
28.613736
30
0.0
0
VERTEX
8
CADASTRAL_PARCEL
10
77.232072
20
28.613736
30
0.0
0
VERTEX
8
CADASTRAL_PARCEL
10
77.232071
20
28.613737
30
0.0
0
VERTEX
8
CADASTRAL_PARCEL
10
77.232069
20
28.613737
30
0.0
0
VERTEX
8
CADASTRAL_PARCEL
10
77.232068
20
28.613738
30
0.0
0
VERTEX
8
CADASTRAL_PARCEL
10
77.232067
20
28.613739
30
0.0
0
VERTEX
8
CADASTRAL_PARCEL
10
77.232066
20
28.61374
30
0.0
0
VERTEX
8
CADASTRAL_PARCEL
10
77.232065
20
28.613741
30
0.0
0
VERTEX
8
CADASTRAL_PARCEL
10
77.232064
20
28.613742
30
0.0
0
VERTEX
8
CADASTRAL_PARCEL
10
77.232063
20
28.613743
30
0.0
0
VERTEX
8
CADASTRAL_PARCEL
10
77.232062
20
28.613744
30
0.0
0
VERTEX
8
CADASTRAL_PARCEL
10
77.232062
20
28.613745
30
0.0
0
VERTEX
8
CADASTRAL_PARCEL
10
77.232062
20
28.613747
30
0.0
0
VERTEX
8
CADASTRAL_PARCEL
10
77.232061
20
28.613748
30
0.0
0
VERTEX
8
CADASTRAL_PARCEL
10
77.232061
20
28.613749
30
0.0
0
VERTEX
8
CADASTRAL_PARCEL
10
77.232069
20
28.614092
30
0.0
0
VERTEX
8
CADASTRAL_PARCEL
10
77.232069
20
28.614093
30
0.0
0
VERTEX
8
CADASTRAL_PARCEL
10
77.232069
20
28.614095
30
0.0
0
VERTEX
8
CADASTRAL_PARCEL
10
77.232069
20
28.614096
30
0.0
0
VERTEX
8
CADASTRAL_PARCEL
10
77.23207
20
28.614097
30
0.0
0
VERTEX
8
CADASTRAL_PARCEL
10
77.232071
20
28.614098
30
0.0
0
VERTEX
8
CADASTRAL_PARCEL
10
77.232071
20
28.6141
30
0.0
0
VERTEX
8
CADASTRAL_PARCEL
10
77.232072
20
28.614101
30
0.0
0
VERTEX
8
CADASTRAL_PARCEL
10
77.232073
20
28.614102
30
0.0
0
VERTEX
8
CADASTRAL_PARCEL
10
77.232074
20
28.614102
30
0.0
0
VERTEX
8
CADASTRAL_PARCEL
10
77.232076
20
28.614103
30
0.0
0
VERTEX
8
CADASTRAL_PARCEL
10
77.232077
20
28.614104
30
0.0
0
VERTEX
8
CADASTRAL_PARCEL
10
77.232078
20
28.614104
30
0.0
0
VERTEX
8
CADASTRAL_PARCEL
10
77.23208
20
28.614105
30
0.0
0
VERTEX
8
CADASTRAL_PARCEL
10
77.232081
20
28.614105
30
0.0
0
VERTEX
8
CADASTRAL_PARCEL
10
77.232083
20
28.614105
30
0.0
0
VERTEX
8
CADASTRAL_PARCEL
10
77.232084
20
28.614105
30
0.0
0
VERTEX
8
CADASTRAL_PARCEL
10
77.232621
20
28.614096
30
0.0
0
VERTEX
8
CADASTRAL_PARCEL
10
77.232622
20
28.614096
30
0.0
0
VERTEX
8
CADASTRAL_PARCEL
10
77.232624
20
28.614096
30
0.0
0
VERTEX
8
CADASTRAL_PARCEL
10
77.232625
20
28.614096
30
0.0
0
VERTEX
8
CADASTRAL_PARCEL
10
77.232627
20
28.614095
30
0.0
0
VERTEX
8
CADASTRAL_PARCEL
10
77.232628
20
28.614095
30
0.0
0
VERTEX
8
CADASTRAL_PARCEL
10
77.232629
20
28.614094
30
0.0
0
VERTEX
8
CADASTRAL_PARCEL
10
77.232631
20
28.614093
30
0.0
0
VERTEX
8
CADASTRAL_PARCEL
10
77.232632
20
28.614092
30
0.0
0
VERTEX
8
CADASTRAL_PARCEL
10
77.232633
20
28.614091
30
0.0
0
VERTEX
8
CADASTRAL_PARCEL
10
77.232633
20
28.61409
30
0.0
0
VERTEX
8
CADASTRAL_PARCEL
10
77.232634
20
28.614089
30
0.0
0
VERTEX
8
CADASTRAL_PARCEL
10
77.232635
20
28.614088
30
0.0
0
VERTEX
8
CADASTRAL_PARCEL
10
77.232635
20
28.614087
30
0.0
0
VERTEX
8
CADASTRAL_PARCEL
10
77.232636
20
28.614085
30
0.0
0
VERTEX
8
CADASTRAL_PARCEL
10
77.232636
20
28.614084
30
0.0
0
VERTEX
8
CADASTRAL_PARCEL
10
77.232636
20
28.614083
30
0.0
0
VERTEX
8
CADASTRAL_PARCEL
10
77.232629
20
28.61374
30
0.0
0
VERTEX
8
CADASTRAL_PARCEL
10
77.232629
20
28.613739
30
0.0
0
VERTEX
8
CADASTRAL_PARCEL
10
77.232628
20
28.613737
30
0.0
0
VERTEX
8
CADASTRAL_PARCEL
10
77.232628
20
28.613736
30
0.0
0
VERTEX
8
CADASTRAL_PARCEL
10
77.232627
20
28.613735
30
0.0
0
VERTEX
8
CADASTRAL_PARCEL
10
77.232627
20
28.613734
30
0.0
0
VERTEX
8
CADASTRAL_PARCEL
10
77.232626
20
28.613732
30
0.0
0
VERTEX
8
CADASTRAL_PARCEL
10
77.232625
20
28.613731
30
0.0
0
VERTEX
8
CADASTRAL_PARCEL
10
77.232624
20
28.61373
30
0.0
0
VERTEX
8
CADASTRAL_PARCEL
10
77.232623
20
28.61373
30
0.0
0
VERTEX
8
CADASTRAL_PARCEL
10
77.232622
20
28.613729
30
0.0
0
VERTEX
8
CADASTRAL_PARCEL
10
77.23262
20
28.613728
30
0.0
0
VERTEX
8
CADASTRAL_PARCEL
10
77.232619
20
28.613728
30
0.0
0
VERTEX
8
CADASTRAL_PARCEL
10
77.232617
20
28.613727
30
0.0
0
VERTEX
8
CADASTRAL_PARCEL
10
77.232616
20
28.613727
30
0.0
0
VERTEX
8
CADASTRAL_PARCEL
10
77.232615
20
28.613727
30
0.0
0
VERTEX
8
CADASTRAL_PARCEL
10
77.232613
20
28.613727
30
0.0
0
VERTEX
8
CADASTRAL_PARCEL
10
77.232076
20
28.613736
30
0.0
0
SEQEND
0
POLYLINE
8
CADASTRAL_PARCEL
66
1
70
1
0
VERTEX
8
CADASTRAL_PARCEL
10
77.232084
20
28.614092
30
0.0
0
VERTEX
8
CADASTRAL_PARCEL
10
77.232091
20
28.614435
30
0.0
0
VERTEX
8
CADASTRAL_PARCEL
10
77.232628
20
28.614426
30
0.0
0
VERTEX
8
CADASTRAL_PARCEL
10
77.232621
20
28.614083
30
0.0
0
VERTEX
8
CADASTRAL_PARCEL
10
77.232084
20
28.614092
30
0.0
0
SEQEND
0
POLYLINE
8
CADASTRAL_PARCEL
66
1
70
1
0
VERTEX
8
CADASTRAL_PARCEL
10
77.232628
20
28.614426
30
0.0
0
VERTEX
8
CADASTRAL_PARCEL
10
77.232091
20
28.614435
30
0.0
0
VERTEX
8
CADASTRAL_PARCEL
10
77.232098
20
28.614777
30
0.0
0
VERTEX
8
CADASTRAL_PARCEL
10
77.232635
20
28.614768
30
0.0
0
VERTEX
8
CADASTRAL_PARCEL
10
77.232628
20
28.614426
30
0.0
0
SEQEND
0
POLYLINE
8
CADASTRAL_PARCEL
66
1
70
1
0
VERTEX
8
CADASTRAL_PARCEL
10
77.232606
20
28.613397
30
0.0
0
VERTEX
8
CADASTRAL_PARCEL
10
77.233143
20
28.613389
30
0.0
0
VERTEX
8
CADASTRAL_PARCEL
10
77.233135
20
28.613046
30
0.0
0
VERTEX
8
CADASTRAL_PARCEL
10
77.232599
20
28.613055
30
0.0
0
VERTEX
8
CADASTRAL_PARCEL
10
77.232606
20
28.613397
30
0.0
0
SEQEND
0
POLYLINE
8
CADASTRAL_PARCEL
66
1
70
1
0
VERTEX
8
CADASTRAL_PARCEL
10
77.232606
20
28.613397
30
0.0
0
VERTEX
8
CADASTRAL_PARCEL
10
77.232613
20
28.61374
30
0.0
0
VERTEX
8
CADASTRAL_PARCEL
10
77.23315
20
28.613731
30
0.0
0
VERTEX
8
CADASTRAL_PARCEL
10
77.233143
20
28.613389
30
0.0
0
VERTEX
8
CADASTRAL_PARCEL
10
77.232606
20
28.613397
30
0.0
0
SEQEND
0
POLYLINE
8
CADASTRAL_PARCEL
66
1
70
1
0
VERTEX
8
CADASTRAL_PARCEL
10
77.232632
20
28.613756
30
0.0
0
VERTEX
8
CADASTRAL_PARCEL
10
77.232639
20
28.614066
30
0.0
0
VERTEX
8
CADASTRAL_PARCEL
10
77.233138
20
28.614058
30
0.0
0
VERTEX
8
CADASTRAL_PARCEL
10
77.233132
20
28.613748
30
0.0
0
VERTEX
8
CADASTRAL_PARCEL
10
77.232632
20
28.613756
30
0.0
0
SEQEND
0
POLYLINE
8
CADASTRAL_PARCEL
66
1
70
1
0
VERTEX
8
CADASTRAL_PARCEL
10
77.232621
20
28.614083
30
0.0
0
VERTEX
8
CADASTRAL_PARCEL
10
77.232628
20
28.614426
30
0.0
0
VERTEX
8
CADASTRAL_PARCEL
10
77.233164
20
28.614417
30
0.0
0
VERTEX
8
CADASTRAL_PARCEL
10
77.233157
20
28.614074
30
0.0
0
VERTEX
8
CADASTRAL_PARCEL
10
77.232621
20
28.614083
30
0.0
0
SEQEND
0
POLYLINE
8
CADASTRAL_PARCEL
66
1
70
1
0
VERTEX
8
CADASTRAL_PARCEL
10
77.232597
20
28.614408
30
0.0
0
VERTEX
8
CADASTRAL_PARCEL
10
77.232604
20
28.614769
30
0.0
0
VERTEX
8
CADASTRAL_PARCEL
10
77.233172
20
28.61476
30
0.0
0
VERTEX
8
CADASTRAL_PARCEL
10
77.233164
20
28.614399
30
0.0
0
VERTEX
8
CADASTRAL_PARCEL
10
77.232597
20
28.614408
30
0.0
0
SEQEND
0
POLYLINE
8
CADASTRAL_PARCEL
66
1
70
1
0
VERTEX
8
CADASTRAL_PARCEL
10
77.233672
20
28.613037
30
0.0
0
VERTEX
8
CADASTRAL_PARCEL
10
77.233135
20
28.613046
30
0.0
0
VERTEX
8
CADASTRAL_PARCEL
10
77.233143
20
28.613389
30
0.0
0
VERTEX
8
CADASTRAL_PARCEL
10
77.233679
20
28.61338
30
0.0
0
VERTEX
8
CADASTRAL_PARCEL
10
77.233672
20
28.613037
30
0.0
0
SEQEND
0
POLYLINE
8
CADASTRAL_PARCEL
66
1
70
1
0
VERTEX
8
CADASTRAL_PARCEL
10
77.233679
20
28.61338
30
0.0
0
VERTEX
8
CADASTRAL_PARCEL
10
77.233143
20
28.613389
30
0.0
0
VERTEX
8
CADASTRAL_PARCEL
10
77.23315
20
28.613731
30
0.0
0
VERTEX
8
CADASTRAL_PARCEL
10
77.233687
20
28.613723
30
0.0
0
VERTEX
8
CADASTRAL_PARCEL
10
77.233679
20
28.61338
30
0.0
0
SEQEND
0
POLYLINE
8
CADASTRAL_PARCEL
66
1
70
1
0
VERTEX
8
CADASTRAL_PARCEL
10
77.233702
20
28.613722
30
0.0
0
VERTEX
8
CADASTRAL_PARCEL
10
77.233702
20
28.613721
30
0.0
0
VERTEX
8
CADASTRAL_PARCEL
10
77.233702
20
28.61372
30
0.0
0
VERTEX
8
CADASTRAL_PARCEL
10
77.233701
20
28.613718
30
0.0
0
VERTEX
8
CADASTRAL_PARCEL
10
77.233701
20
28.613717
30
0.0
0
VERTEX
8
CADASTRAL_PARCEL
10
77.2337
20
28.613716
30
0.0
0
VERTEX
8
CADASTRAL_PARCEL
10
77.233699
20
28.613715
30
0.0
0
VERTEX
8
CADASTRAL_PARCEL
10
77.233698
20
28.613714
30
0.0
0
VERTEX
8
CADASTRAL_PARCEL
10
77.233697
20
28.613713
30
0.0
0
VERTEX
8
CADASTRAL_PARCEL
10
77.233696
20
28.613712
30
0.0
0
VERTEX
8
CADASTRAL_PARCEL
10
77.233695
20
28.613711
30
0.0
0
VERTEX
8
CADASTRAL_PARCEL
10
77.233694
20
28.61371
30
0.0
0
VERTEX
8
CADASTRAL_PARCEL
10
77.233692
20
28.61371
30
0.0
0
VERTEX
8
CADASTRAL_PARCEL
10
77.233691
20
28.61371
30
0.0
0
VERTEX
8
CADASTRAL_PARCEL
10
77.233689
20
28.613709
30
0.0
0
VERTEX
8
CADASTRAL_PARCEL
10
77.233688
20
28.613709
30
0.0
0
VERTEX
8
CADASTRAL_PARCEL
10
77.233686
20
28.613709
30
0.0
0
VERTEX
8
CADASTRAL_PARCEL
10
77.23315
20
28.613718
30
0.0
0
VERTEX
8
CADASTRAL_PARCEL
10
77.233148
20
28.613718
30
0.0
0
VERTEX
8
CADASTRAL_PARCEL
10
77.233147
20
28.613718
30
0.0
0
VERTEX
8
CADASTRAL_PARCEL
10
77.233145
20
28.613718
30
0.0
0
VERTEX
8
CADASTRAL_PARCEL
10
77.233144
20
28.613719
30
0.0
0
VERTEX
8
CADASTRAL_PARCEL
10
77.233142
20
28.61372
30
0.0
0
VERTEX
8
CADASTRAL_PARCEL
10
77.233141
20
28.61372
30
0.0
0
VERTEX
8
CADASTRAL_PARCEL
10
77.23314
20
28.613721
30
0.0
0
VERTEX
8
CADASTRAL_PARCEL
10
77.233139
20
28.613722
30
0.0
0
VERTEX
8
CADASTRAL_PARCEL
10
77.233138
20
28.613723
30
0.0
0
VERTEX
8
CADASTRAL_PARCEL
10
77.233137
20
28.613724
30
0.0
0
VERTEX
8
CADASTRAL_PARCEL
10
77.233136
20
28.613725
30
0.0
0
VERTEX
8
CADASTRAL_PARCEL
10
77.233136
20
28.613726
30
0.0
0
VERTEX
8
CADASTRAL_PARCEL
10
77.233135
20
28.613728
30
0.0
0
VERTEX
8
CADASTRAL_PARCEL
10
77.233135
20
28.613729
30
0.0
0
VERTEX
8
CADASTRAL_PARCEL
10
77.233135
20
28.61373
30
0.0
0
VERTEX
8
CADASTRAL_PARCEL
10
77.233135
20
28.613732
30
0.0
0
VERTEX
8
CADASTRAL_PARCEL
10
77.233142
20
28.614074
30
0.0
0
VERTEX
8
CADASTRAL_PARCEL
10
77.233142
20
28.614076
30
0.0
0
VERTEX
8
CADASTRAL_PARCEL
10
77.233142
20
28.614077
30
0.0
0
VERTEX
8
CADASTRAL_PARCEL
10
77.233143
20
28.614078
30
0.0
0
VERTEX
8
CADASTRAL_PARCEL
10
77.233143
20
28.61408
30
0.0
0
VERTEX
8
CADASTRAL_PARCEL
10
77.233144
20
28.614081
30
0.0
0
VERTEX
8
CADASTRAL_PARCEL
10
77.233145
20
28.614082
30
0.0
0
VERTEX
8
CADASTRAL_PARCEL
10
77.233146
20
28.614083
30
0.0
0
VERTEX
8
CADASTRAL_PARCEL
10
77.233147
20
28.614084
30
0.0
0
VERTEX
8
CADASTRAL_PARCEL
10
77.233148
20
28.614085
30
0.0
0
VERTEX
8
CADASTRAL_PARCEL
10
77.233149
20
28.614086
30
0.0
0
VERTEX
8
CADASTRAL_PARCEL
10
77.23315
20
28.614086
30
0.0
0
VERTEX
8
CADASTRAL_PARCEL
10
77.233152
20
28.614087
30
0.0
0
VERTEX
8
CADASTRAL_PARCEL
10
77.233153
20
28.614087
30
0.0
0
VERTEX
8
CADASTRAL_PARCEL
10
77.233154
20
28.614087
30
0.0
0
VERTEX
8
CADASTRAL_PARCEL
10
77.233156
20
28.614088
30
0.0
0
VERTEX
8
CADASTRAL_PARCEL
10
77.233157
20
28.614088
30
0.0
0
VERTEX
8
CADASTRAL_PARCEL
10
77.233694
20
28.614079
30
0.0
0
VERTEX
8
CADASTRAL_PARCEL
10
77.233696
20
28.614079
30
0.0
0
VERTEX
8
CADASTRAL_PARCEL
10
77.233697
20
28.614078
30
0.0
0
VERTEX
8
CADASTRAL_PARCEL
10
77.233699
20
28.614078
30
0.0
0
VERTEX
8
CADASTRAL_PARCEL
10
77.2337
20
28.614078
30
0.0
0
VERTEX
8
CADASTRAL_PARCEL
10
77.233701
20
28.614077
30
0.0
0
VERTEX
8
CADASTRAL_PARCEL
10
77.233703
20
28.614076
30
0.0
0
VERTEX
8
CADASTRAL_PARCEL
10
77.233704
20
28.614076
30
0.0
0
VERTEX
8
CADASTRAL_PARCEL
10
77.233705
20
28.614075
30
0.0
0
VERTEX
8
CADASTRAL_PARCEL
10
77.233706
20
28.614074
30
0.0
0
VERTEX
8
CADASTRAL_PARCEL
10
77.233707
20
28.614073
30
0.0
0
VERTEX
8
CADASTRAL_PARCEL
10
77.233707
20
28.614071
30
0.0
0
VERTEX
8
CADASTRAL_PARCEL
10
77.233708
20
28.61407
30
0.0
0
VERTEX
8
CADASTRAL_PARCEL
10
77.233709
20
28.614069
30
0.0
0
VERTEX
8
CADASTRAL_PARCEL
10
77.233709
20
28.614068
30
0.0
0
VERTEX
8
CADASTRAL_PARCEL
10
77.233709
20
28.614066
30
0.0
0
VERTEX
8
CADASTRAL_PARCEL
10
77.233709
20
28.614065
30
0.0
0
VERTEX
8
CADASTRAL_PARCEL
10
77.233702
20
28.613722
30
0.0
0
SEQEND
0
POLYLINE
8
CADASTRAL_PARCEL
66
1
70
1
0
VERTEX
8
CADASTRAL_PARCEL
10
77.233694
20
28.614065
30
0.0
0
VERTEX
8
CADASTRAL_PARCEL
10
77.233157
20
28.614074
30
0.0
0
VERTEX
8
CADASTRAL_PARCEL
10
77.233164
20
28.614417
30
0.0
0
VERTEX
8
CADASTRAL_PARCEL
10
77.233701
20
28.614408
30
0.0
0
VERTEX
8
CADASTRAL_PARCEL
10
77.233694
20
28.614065
30
0.0
0
SEQEND
0
POLYLINE
8
CADASTRAL_PARCEL
66
1
70
1
0
VERTEX
8
CADASTRAL_PARCEL
10
77.233701
20
28.614408
30
0.0
0
VERTEX
8
CADASTRAL_PARCEL
10
77.233164
20
28.614417
30
0.0
0
VERTEX
8
CADASTRAL_PARCEL
10
77.233172
20
28.61476
30
0.0
0
VERTEX
8
CADASTRAL_PARCEL
10
77.233708
20
28.614751
30
0.0
0
VERTEX
8
CADASTRAL_PARCEL
10
77.233701
20
28.614408
30
0.0
0
SEQEND
0
ENDSEC
0
EOF