0
SECTION
2
ENTITIES
0
POLYLINE
8
CADASTRAL_PARCEL
66
1
70
1
0
VERTEX
8
CADASTRAL_PARCEL
10
77.23425
20
28.611967
30
0.0
0
VERTEX
8
CADASTRAL_PARCEL
10
77.234243
20
28.611638
30
0.0
0
VERTEX
8
CADASTRAL_PARCEL
10
77.233745
20
28.611646
30
0.0
0
VERTEX
8
CADASTRAL_PARCEL
10
77.233752
20
28.611976
30
0.0
0
VERTEX
8
CADASTRAL_PARCEL
10
77.23425
20
28.611967
30
0.0
0
SEQEND
0
POLYLINE
8
CADASTRAL_PARCEL
66
1
70
1
0
VERTEX
8
CADASTRAL_PARCEL
10
77.234257
20
28.612297
30
0.0
0
VERTEX
8
CADASTRAL_PARCEL
10
77.23425
20
28.611967
30
0.0
0
VERTEX
8
CADASTRAL_PARCEL
10
77.233752
20
28.611976
30
0.0
0
VERTEX
8
CADASTRAL_PARCEL
10
77.233759
20
28.612305
30
0.0
0
VERTEX
8
CADASTRAL_PARCEL
10
77.234257
20
28.612297
30
0.0
0
SEQEND
0
POLYLINE
8
CADASTRAL_PARCEL
66
1
70
1
0
VERTEX
8
CADASTRAL_PARCEL
10
77.234264
20
28.612626
30
0.0
0
VERTEX
8
CADASTRAL_PARCEL
10
77.234257
20
28.612297
30
0.0
0
VERTEX
8
CADASTRAL_PARCEL
10
77.233759
20
28.612305
30
0.0
0
VERTEX
8
CADASTRAL_PARCEL
10
77.233766
20
28.612634
30
0.0
0
VERTEX
8
CADASTRAL_PARCEL
10
77.234264
20
28.612626
30
0.0
0
SEQEND
0
POLYLINE
8
CADASTRAL_PARCEL
66
1
70
1
0
VERTEX
8
CADASTRAL_PARCEL
10
77.234264
20
28.612626
30
0.0
0
VERTEX
8
CADASTRAL_PARCEL
10
77.233766
20
28.612634
30
0.0
0
VERTEX
8
CADASTRAL_PARCEL
10
77.233773
20
28.612963
30
0.0
0
VERTEX
8
CADASTRAL_PARCEL
10
77.234271
20
28.612955
30
0.0
0
VERTEX
8
CADASTRAL_PARCEL
10
77.234264
20
28.612626
30
0.0
0
SEQEND
0
POLYLINE
8
CADASTRAL_PARCEL
66
1
70
1
0
VERTEX
8
CADASTRAL_PARCEL
10
77.234235
20
28.611968
30
0.0
0
VERTEX
8
CADASTRAL_PARCEL
10
77.234235
20
28.611969
30
0.0
0
VERTEX
8
CADASTRAL_PARCEL
10
77.234235
20
28.61197
30
0.0
0
VERTEX
8
CADASTRAL_PARCEL
10
77.234236
20
28.611972
30
0.0
0
VERTEX
8
CADASTRAL_PARCEL
10
77.234236
20
28.611973
30
0.0
0
VERTEX
8
CADASTRAL_PARCEL
10
77.234237
20
28.611974
30
0.0
0
VERTEX
8
CADASTRAL_PARCEL
10
77.234238
20
28.611975
30
0.0
0
VERTEX
8
CADASTRAL_PARCEL
10
77.234238
20
28.611976
30
0.0
0
VERTEX
8
CADASTRAL_PARCEL
10
77.234239
20
28.611977
30
0.0
0
VERTEX
8
CADASTRAL_PARCEL
10
77.234241
20
28.611978
30
0.0
0
VERTEX
8
CADASTRAL_PARCEL
10
77.234242
20
28.611979
30
0.0
0
VERTEX
8
CADASTRAL_PARCEL
10
77.234243
20
28.611979
30
0.0
0
VERTEX
8
CADASTRAL_PARCEL
10
77.234245
20
28.61198
30
0.0
0
VERTEX
8
CADASTRAL_PARCEL
10
77.234246
20
28.61198
30
0.0
0
VERTEX
8
CADASTRAL_PARCEL
10
77.234247
20
28.611981
30
0.0
0
VERTEX
8
CADASTRAL_PARCEL
10
77.234249
20
28.611981
30
0.0
0
VERTEX
8
CADASTRAL_PARCEL
10
77.23425
20
28.611981
30
0.0
0
VERTEX
8
CADASTRAL_PARCEL
10
77.234749
20
28.611973
30
0.0
0
VERTEX
8
CADASTRAL_PARCEL
10
77.23475
20
28.611973
30
0.0
0
VERTEX
8
CADASTRAL_PARCEL
10
77.234752
20
28.611972
30
0.0
0
VERTEX
8
CADASTRAL_PARCEL
10
77.234753
20
28.611972
30
0.0
0
VERTEX
8
CADASTRAL_PARCEL
10
77.234755
20
28.611972
30
0.0
0
VERTEX
8
CADASTRAL_PARCEL
10
77.234756
20
28.611971
30
0.0
0
VERTEX
8
CADASTRAL_PARCEL
10
77.234757
20
28.61197
30
0.0
0
VERTEX
8
CADASTRAL_PARCEL
10
77.234758
20
28.611969
30
0.0
0
VERTEX
8
CADASTRAL_PARCEL
10
77.234759
20
28.611969
30
0.0
0
VERTEX
8
CADASTRAL_PARCEL
10
77.23476
20
28.611968
30
0.0
0
VERTEX
8
CADASTRAL_PARCEL
10
77.234761
20
28.611966
30
0.0
0
VERTEX
8
CADASTRAL_PARCEL
10
77.234762
20
28.611965
30
0.0
0
VERTEX
8
CADASTRAL_PARCEL
10
77.234763
20
28.611964
30
0.0
0
VERTEX
8
CADASTRAL_PARCEL
10
77.234763
20
28.611963
30
0.0
0
VERTEX
8
CADASTRAL_PARCEL
10
77.234763
20
28.611962
30
0.0
0
VERTEX
8
CADASTRAL_PARCEL
10
77.234764
20
28.61196
30
0.0
0
VERTEX
8
CADASTRAL_PARCEL
10
77.234764
20
28.611959
30
0.0
0
VERTEX
8
CADASTRAL_PARCEL
10
77.234757
20
28.61163
30
0.0
0
VERTEX
8
CADASTRAL_PARCEL
10
77.234757
20
28.611628
30
0.0
0
VERTEX
8
CADASTRAL_PARCEL
10
77.234756
20
28.611627
30
0.0
0
VERTEX
8
CADASTRAL_PARCEL
10
77.234756
20
28.611626
30
0.0
0
VERTEX
8
CADASTRAL_PARCEL
10
77.234755
20
28.611624
30
0.0
0
VERTEX
8
CADASTRAL_PARCEL
10
77.234755
20
28.611623
30
0.0
0
VERTEX
8
CADASTRAL_PARCEL
10
77.234754
20
28.611622
30
0.0
0
VERTEX
8
CADASTRAL_PARCEL
10
77.234753
20
28.611621
30
0.0
0
VERTEX
8
CADASTRAL_PARCEL
10
77.234752
20
28.61162
30
0.0
0
VERTEX
8
CADASTRAL_PARCEL
10
77.234751
20
28.611619
30
0.0
0
VERTEX
8
CADASTRAL_PARCEL
10
77.23475
20
28.611619
30
0.0
0
VERTEX
8
CADASTRAL_PARCEL
10
77.234748
20
28.611618
30
0.0
0
VERTEX
8
CADASTRAL_PARCEL
10
77.234747
20
28.611617
30
0.0
0
VERTEX
8
CADASTRAL_PARCEL
10
77.234746
20
28.611617
30
0.0
0
VERTEX
8
CADASTRAL_PARCEL
10
77.234744
20
28.611617
30
0.0
0
VERTEX
8
CADASTRAL_PARCEL
10
77.234743
20
28.611616
30
0.0
0
VERTEX
8
CADASTRAL_PARCEL
10
77.234741
20
28.611616
30
0.0
0
VERTEX
8
CADASTRAL_PARCEL
10
77.234243
20
28.611625
30
0.0
0
VERTEX
8
CADASTRAL_PARCEL
10
77.234241
20
28.611625
30
0.0
0
VERTEX
8
CADASTRAL_PARCEL
10
77.23424
20
28.611625
30
0.0
0
VERTEX
8
CADASTRAL_PARCEL
10
77.234238
20
28.611625
30
0.0
0
VERTEX
8
CADASTRAL_PARCEL
10
77.234237
20
28.611626
30
0.0
0
VERTEX
8
CADASTRAL_PARCEL
10
77.234236
20
28.611626
30
0.0
0
VERTEX
8
CADASTRAL_PARCEL
10
77.234234
20
28.611627
30
0.0
0
VERTEX
8
CADASTRAL_PARCEL
10
77.234233
20
28.611628
30
0.0
0
VERTEX
8
CADASTRAL_PARCEL
10
77.234232
20
28.611629
30
0.0
0
VERTEX
8
CADASTRAL_PARCEL
10
77.234231
20
28.61163
30
0.0
0
VERTEX
8
CADASTRAL_PARCEL
10
77.23423
20
28.611631
30
0.0
0
VERTEX
8
CADASTRAL_PARCEL
10
77.234229
20
28.611632
30
0.0
0
VERTEX
8
CADASTRAL_PARCEL
10
77.234229
20
28.611633
30
0.0
0
VERTEX
8
CADASTRAL_PARCEL
10
77.234228
20
28.611634
30
0.0
0
VERTEX
8
CADASTRAL_PARCEL
10
77.234228
20
28.611636
30
0.0
0
VERTEX
8
CADASTRAL_PARCEL
10
77.234228
20
28.611637
30
0.0
0
VERTEX
8
CADASTRAL_PARCEL
10
77.234228
20
28.611638
30
0.0
0
VERTEX
8
CADASTRAL_PARCEL
10
77.234235
20
28.611968
30
0.0
0
SEQEND
0
POLYLINE
8
CADASTRAL_PARCEL
66
1
70
1
0
VERTEX
8
CADASTRAL_PARCEL
10
77.23425
20
28.611967
30
0.0
0
VERTEX
8
CADASTRAL_PARCEL
10
77.234257
20
28.612297
30
0.0
0
VERTEX
8
CADASTRAL_PARCEL
10
77.234755
20
28.612288
30
0.0
0
VERTEX
8
CADASTRAL_PARCEL
10
77.234748
20
28.611959
30
0.0
0
VERTEX
8
CADASTRAL_PARCEL
10
77.23425
20
28.611967
30
0.0
0
SEQEND
0
POLYLINE
8
CADASTRAL_PARCEL
66
1
70
1
0
VERTEX
8
CADASTRAL_PARCEL
10
77.234257
20
28.612297
30
0.0
0
VERTEX
8
CADASTRAL_PARCEL
10
77.234264
20
28.612626
30
0.0
0
VERTEX
8
CADASTRAL_PARCEL
10
77.234762
20
28.612618
30
0.0
0
VERTEX
8
CADASTRAL_PARCEL
10
77.234755
20
28.612288
30
0.0
0
VERTEX
8
CADASTRAL_PARCEL
10
77.234257
20
28.612297
30
0.0
0
SEQEND
0
POLYLINE
8
CADASTRAL_PARCEL
66
1
70
1
0
VERTEX
8
CADASTRAL_PARCEL
10
77.234233
20
28.612608
30
0.0
0
VERTEX
8
CADASTRAL_PARCEL
10
77.23424
20
28.612955
30
0.0
0
VERTEX
8
CADASTRAL_PARCEL
10
77.234769
20
28.612947
30
0.0
0
VERTEX
8
CADASTRAL_PARCEL
10
77.234762
20
28.6126
30
0.0
0
VERTEX
8
CADASTRAL_PARCEL
10
77.234233
20
28.612608
30
0.0
0
SEQEND
0
POLYLINE
8
CADASTRAL_PARCEL
66
1
70
1
0
VERTEX
8
CADASTRAL_PARCEL
10
77.234748
20
28.611959
30
0.0
0
VERTEX
8
CADASTRAL_PARCEL
10
77.235247
20
28.611951
30
0.0
0
VERTEX
8
CADASTRAL_PARCEL
10
77.23524
20
28.611622
30
0.0
0
VERTEX
8
CADASTRAL_PARCEL
10
77.234741
20
28.61163
30
0.0
0
VERTEX
8
CADASTRAL_PARCEL
10
77.234748
20
28.611959
30
0.0
0
SEQEND
0
POLYLINE
8
CADASTRAL_PARCEL
66
1
70
1
0
VERTEX
8
CADASTRAL_PARCEL
10
77.234767
20
28.611975
30
0.0
0
VERTEX
8
CADASTRAL_PARCEL
10
77.234773
20
28.612272
30
0.0
0
VERTEX
8
CADASTRAL_PARCEL
10
77.235235
20
28.612264
30
0.0
0
VERTEX
8
CADASTRAL_PARCEL
10
77.235229
20
28.611967
30
0.0
0
VERTEX
8
CADASTRAL_PARCEL
10
77.234767
20
28.611975
30
0.0
0
SEQEND
0
POLYLINE
8
CADASTRAL_PARCEL
66
1
70
1
0
VERTEX
8
CADASTRAL_PARCEL
10
77.234755
20
28.612288
30
0.0
0
VERTEX
8
CADASTRAL_PARCEL
10
77.234762
20
28.612618
30
0.0
0
VERTEX
8
CADASTRAL_PARCEL
10
77.235261
20
28.612609
30
0.0
0
VERTEX
8
CADASTRAL_PARCEL
10
77.235254
20
28.61228
30
0.0
0
VERTEX
8
CADASTRAL_PARCEL
10
77.234755
20
28.612288
30
0.0
0
SEQEND
0
POLYLINE
8
CADASTRAL_PARCEL
66
1
70
1
0
VERTEX
8
CADASTRAL_PARCEL
10
77.235261
20
28.612609
30
0.0
0
VERTEX
8
CADASTRAL_PARCEL
10
77.234762
20
28.612618
30
0.0
0
VERTEX
8
CADASTRAL_PARCEL
10
77.234769
20
28.612947
30
0.0
0
VERTEX
8
CADASTRAL_PARCEL
10
77.235268
20
28.612939
30
0.0
0
VERTEX
8
CADASTRAL_PARCEL
10
77.235261
20
28.612609
30
0.0
0
SEQEND
0
POLYLINE
8
CADASTRAL_PARCEL
66
1
70
1
0
VERTEX
8
CADASTRAL_PARCEL
10
77.235738
20
28.611613
30
0.0
0
VERTEX
8
CADASTRAL_PARCEL
10
77.23524
20
28.611622
30
0.0
0
VERTEX
8
CADASTRAL_PARCEL
10
77.235247
20
28.611951
30
0.0
0
VERTEX
8
CADASTRAL_PARCEL
10
77.235745
20
28.611943
30
0.0
0
VERTEX
8
CADASTRAL_PARCEL
10
77.235738
20
28.611613
30
0.0
0
SEQEND
0
POLYLINE
8
CADASTRAL_PARCEL
66
1
70
1
0
VERTEX
8
CADASTRAL_PARCEL
10
77.235745
20
28.611943
30
0.0
0
VERTEX
8
CADASTRAL_PARCEL
10
77.235247
20
28.611951
30
0.0
0
VERTEX
8
CADASTRAL_PARCEL
10
77.235254
20
28.61228
30
0.0
0
VERTEX
8
CADASTRAL_PARCEL
10
77.235752
20
28.612272
30
0.0
0
VERTEX
8
CADASTRAL_PARCEL
10
77.235745
20
28.611943
30
0.0
0
SEQEND
0
POLYLINE
8
CADASTRAL_PARCEL
66
1
70
1
0
VERTEX
8
CADASTRAL_PARCEL
10
77.235767
20
28.612272
30
0.0
0
VERTEX
8
CADASTRAL_PARCEL
10
77.235767
20
28.61227
30
0.0
0
VERTEX
8
CADASTRAL_PARCEL
10
77.235767
20
28.612269
30
0.0
0
VERTEX
8
CADASTRAL_PARCEL
10
77.235767
20
28.612268
30
0.0
0
VERTEX
8
CADASTRAL_PARCEL
10
77.235766
20
28.612266
30
0.0
0
VERTEX
8
CADASTRAL_PARCEL
10
77.235765
20
28.612265
30
0.0
0
VERTEX
8
CADASTRAL_PARCEL
10
77.235765
20
28.612264
30
0.0
0
VERTEX
8
CADASTRAL_PARCEL
10
77.235764
20
28.612263
30
0.0
0
VERTEX
8
CADASTRAL_PARCEL
10
77.235763
20
28.612262
30
0.0
0
VERTEX
8
CADASTRAL_PARCEL
10
77.235761
20
28.612261
30
0.0
0
VERTEX
8
CADASTRAL_PARCEL
10
77.23576
20
28.612261
30
0.0
0
VERTEX
8
CADASTRAL_PARCEL
10
77.235759
20
28.61226
30
0.0
0
VERTEX
8
CADASTRAL_PARCEL
10
77.235758
20
28.612259
30
0.0
0
VERTEX
8
CADASTRAL_PARCEL
10
77.235756
20
28.612259
30
0.0
0
VERTEX
8
CADASTRAL_PARCEL
10
77.235755
20
28.612259
30
0.0
0
VERTEX
8
CADASTRAL_PARCEL
10
77.235753
20
28.612258
30
0.0
0
VERTEX
8
CADASTRAL_PARCEL
10
77.235752
20
28.612258
30
0.0
0
VERTEX
8
CADASTRAL_PARCEL
10
77.235253
20
28.612267
30
0.0
0
VERTEX
8
CADASTRAL_PARCEL
10
77.235252
20
28.612267
30
0.0
0
VERTEX
8
CADASTRAL_PARCEL
10
77.23525
20
28.612267
30
0.0
0
VERTEX
8
CADASTRAL_PARCEL
10
77.235249
20
28.612267
30
0.0
0
VERTEX
8
CADASTRAL_PARCEL
10
77.235248
20
28.612268
30
0.0
0
VERTEX
8
CADASTRAL_PARCEL
10
77.235246
20
28.612268
30
0.0
0
VERTEX
8
CADASTRAL_PARCEL
10
77.235245
20
28.612269
30
0.0
0
VERTEX
8
CADASTRAL_PARCEL
10
77.235244
20
28.61227
30
0.0
0
VERTEX
8
CADASTRAL_PARCEL
10
77.235243
20
28.612271
30
0.0
0
VERTEX
8
CADASTRAL_PARCEL
10
77.235242
20
28.612272
30
0.0
0
VERTEX
8
CADASTRAL_PARCEL
10
77.235241
20
28.612273
30
0.0
0
VERTEX
8
CADASTRAL_PARCEL
10
77.23524
20
28.612274
30
0.0
0
VERTEX
8
CADASTRAL_PARCEL
10
77.235239
20
28.612275
30
0.0
0
VERTEX
8
CADASTRAL_PARCEL
10
77.235239
20
28.612276
30
0.0
0
VERTEX
8
CADASTRAL_PARCEL
10
77.235239
20
28.612278
30
0.0
0
VERTEX
8
CADASTRAL_PARCEL
10
77.235238
20
28.612279
30
0.0
0
VERTEX
8
CADASTRAL_PARCEL
10
77.235238
20
28.61228
30
0.0
0
VERTEX
8
CADASTRAL_PARCEL
10
77.235245
20
28.61261
30
0.0
0
VERTEX
8
CADASTRAL_PARCEL
10
77.235245
20
28.612611
30
0.0
0
VERTEX
8
CADASTRAL_PARCEL
10
77.235246
20
28.612612
30
0.0
0
VERTEX
8
CADASTRAL_PARCEL
10
77.235246
20
28.612614
30
0.0
0
VERTEX
8
CADASTRAL_PARCEL
10
77.235247
20
28.612615
30
0.0
0
VERTEX
8
CADASTRAL_PARCEL
10
77.235247
20
28.612616
30
0.0
0
VERTEX
8
CADASTRAL_PARCEL
10
77.235248
20
28.612617
30
0.0
0
VERTEX
8
CADASTRAL_PARCEL
10
77.235249
20
28.612618
30
0.0
0
VERTEX
8
CADASTRAL_PARCEL
10
77.23525
20
28.612619
30
0.0
0
VERTEX
8
CADASTRAL_PARCEL
10
77.235251
20
28.61262
30
0.0
0
VERTEX
8
CADASTRAL_PARCEL
10
77.235252
20
28.612621
30
0.0
0
VERTEX
8
CADASTRAL_PARCEL
10
77.235254
20
28.612621
30
0.0
0
VERTEX
8
CADASTRAL_PARCEL
10
77.235255
20
28.612622
30
0.0
0
VERTEX
8
CADASTRAL_PARCEL
10
77.235256
20
28.612622
30
0.0
0
VERTEX
8
CADASTRAL_PARCEL
10
77.235258
20
28.612623
30
0.0
0
VERTEX
8
CADASTRAL_PARCEL
10
77.235259
20
28.612623
30
0.0
0
VERTEX
8
CADASTRAL_PARCEL
10
77.235261
20
28.612623
30
0.0
0
VERTEX
8
CADASTRAL_PARCEL
10
77.235759
20
28.612615
30
0.0
0
VERTEX
8
CADASTRAL_PARCEL
10
77.235761
20
28.612615
30
0.0
0
VERTEX
8
CADASTRAL_PARCEL
10
77.235762
20
28.612614
30
0.0
0
VERTEX
8
CADASTRAL_PARCEL
10
77.235764
20
28.612614
30
0.0
0
VERTEX
8
CADASTRAL_PARCEL
10
77.235765
20
28.612614
30
0.0
0
VERTEX
8
CADASTRAL_PARCEL
10
77.235766
20
28.612613
30
0.0
0
VERTEX
8
CADASTRAL_PARCEL
10
77.235768
20
28.612612
30
0.0
0
VERTEX
8
CADASTRAL_PARCEL
10
77.235769
20
28.612611
30
0.0
0
VERTEX
8
CADASTRAL_PARCEL
10
77.23577
20
28.61261
30
0.0
0
VERTEX
8
CADASTRAL_PARCEL
10
77.235771
20
28.612609
30
0.0
0
VERTEX
8
CADASTRAL_PARCEL
10
77.235772
20
28.612608
30
0.0
0
VERTEX
8
CADASTRAL_PARCEL
10
77.235773
20
28.612607
30
0.0
0
VERTEX
8
CADASTRAL_PARCEL
10
77.235773
20
28.612606
30
0.0
0
VERTEX
8
CADASTRAL_PARCEL
10
77.235774
20
28.612605
30
0.0
0
VERTEX
8
CADASTRAL_PARCEL
10
77.235774
20
28.612604
30
0.0
0
VERTEX
8
CADASTRAL_PARCEL
10
77.235774
20
28.612602
30
0.0
0
VERTEX
8
CADASTRAL_PARCEL
10
77.235774
20
28.612601
30
0.0
0
VERTEX
8
CADASTRAL_PARCEL
10
77.235767
20
28.612272
30
0.0
0
SEQEND
0
POLYLINE
8
CADASTRAL_PARCEL
66
1
70
1
0
VERTEX
8
CADASTRAL_PARCEL
10
77.235759
20
28.612583
30
0.0
0
VERTEX
8
CADASTRAL_PARCEL
10
77.23523
20
28.612592
30
0.0
0
VERTEX
8
CADASTRAL_PARCEL
10
77.235237
20
28.612939
30
0.0
0
VERTEX
8
CADASTRAL_PARCEL
10
77.235766
20
28.61293
30
0.0
0
VERTEX
8
CADASTRAL_PARCEL
10
77.235759
20
28.612583
30
0.0
0
SEQEND
0
POLYLINE
8
CADASTRAL_PARCEL
66
1
70
1
0
VERTEX
8
CADASTRAL_PARCEL
10
77.23428
20
28.61337
30
0.0
0
VERTEX
8
CADASTRAL_PARCEL
10
77.234273
20
28.613027
30
0.0
0
VERTEX
8
CADASTRAL_PARCEL
10
77.233774
20
28.613035
30
0.0
0
VERTEX
8
CADASTRAL_PARCEL
10
77.233782
20
28.613378
30
0.0
0
VERTEX
8
CADASTRAL_PARCEL
10
77.23428
20
28.61337
30
0.0
0
SEQEND
0
POLYLINE
8
CADASTRAL_PARCEL
66
1
70
1
0
VERTEX
8
CADASTRAL_PARCEL
10
77.234287
20
28.613713
30
0.0
0
VERTEX
8
CADASTRAL_PARCEL
10
77.23428
20
28.61337
30
0.0
0
VERTEX
8
CADASTRAL_PARCEL
10
77.233782
20
28.613378
30
0.0
0
VERTEX
8
CADASTRAL_PARCEL
10
77.233789
20
28.613721
30
0.0
0
VERTEX
8
CADASTRAL_PARCEL
10
77.234287
20
28.613713
30
0.0
0
SEQEND
0
POLYLINE
8
CADASTRAL_PARCEL
66
1
70
1
0
VERTEX
8
CADASTRAL_PARCEL
10
77.234294
20
28.614055
30
0.0
0
VERTEX
8
CADASTRAL_PARCEL
10
77.234287
20
28.613713
30
0.0
0
VERTEX
8
CADASTRAL_PARCEL
10
77.233789
20
28.613721
30
0.0
0
VERTEX
8
CADASTRAL_PARCEL
10
77.233796
20
28.614064
30
0.0
0
VERTEX
8
CADASTRAL_PARCEL
10
77.234294
20
28.614055
30
0.0
0
SEQEND
0
POLYLINE
8
CADASTRAL_PARCEL
66
1
70
1
0
VERTEX
8
CADASTRAL_PARCEL
10
77.234283
20
28.614382
30
0.0
0
VERTEX
8
CADASTRAL_PARCEL
10
77.234276
20
28.614072
30
0.0
0
VERTEX
8
CADASTRAL_PARCEL
10
77.233815
20
28.61408
30
0.0
0
VERTEX
8
CADASTRAL_PARCEL
10
77.233821
20
28.61439
30
0.0
0
VERTEX
8
CADASTRAL_PARCEL
10
77.234283
20
28.614382
30
0.0
0
SEQEND
0
POLYLINE
8
CADASTRAL_PARCEL
66
1
70
1
0
VERTEX
8
CADASTRAL_PARCEL
10
77.234302
20
28.614398
30
0.0
0
VERTEX
8
CADASTRAL_PARCEL
10
77.233803
20
28.614406
30
0.0
0
VERTEX
8
CADASTRAL_PARCEL
10
77.233811
20
28.614749
30
0.0
0
VERTEX
8
CADASTRAL_PARCEL
10
77.234309
20
28.614741
30
0.0
0
VERTEX
8
CADASTRAL_PARCEL
10
77.234302
20
28.614398
30
0.0
0
SEQEND
0
POLYLINE
8
CADASTRAL_PARCEL
66
1
70
1
0
VERTEX
8
CADASTRAL_PARCEL
10
77.23428
20
28.61337
30
0.0
0
VERTEX
8
CADASTRAL_PARCEL
10
77.234778
20
28.613362
30
0.0
0
VERTEX
8
CADASTRAL_PARCEL
10
77.234771
20
28.613019
30
0.0
0
VERTEX
8
CADASTRAL_PARCEL
10
77.234273
20
28.613027
30
0.0
0
VERTEX
8
CADASTRAL_PARCEL
10
77.23428
20
28.61337
30
0.0
0
SEQEND
0
POLYLINE
8
CADASTRAL_PARCEL
66
1
70
1
0
VERTEX
8
CADASTRAL_PARCEL
10
77.23428
20
28.61337
30
0.0
0
VERTEX
8
CADASTRAL_PARCEL
10
77.234287
20
28.613713
30
0.0
0
VERTEX
8
CADASTRAL_PARCEL
10
77.234785
20
28.613704
30
0.0
0
VERTEX
8
CADASTRAL_PARCEL
10
77.234778
20
28.613362
30
0.0
0
VERTEX
8
CADASTRAL_PARCEL
10
77.23428
20
28.61337
30
0.0
0
SEQEND
0
POLYLINE
8
CADASTRAL_PARCEL
66
1
70
1
0
VERTEX
8
CADASTRAL_PARCEL
10
77.234256
20
28.613695
30
0.0
0
VERTEX
8
CADASTRAL_PARCEL
10
77.234264
20
28.614056
30
0.0
0
VERTEX
8
CADASTRAL_PARCEL
10
77.234793
20
28.614047
30
0.0
0
VERTEX
8
CADASTRAL_PARCEL
10
77.234785
20
28.613686
30
0.0
0
VERTEX
8
CADASTRAL_PARCEL
10
77.234256
20
28.613695
30
0.0
0
SEQEND
0
POLYLINE
8
CADASTRAL_PARCEL
66
1
70
1
0
VERTEX
8
CADASTRAL_PARCEL
10
77.234294
20
28.614042
30
0.0
0
VERTEX
8
CADASTRAL_PARCEL
10
77.234293
20
28.614042
30
0.0
0
VERTEX
8
CADASTRAL_PARCEL
10
77.234291
20
28.614042
30
0.0
0
VERTEX
8
CADASTRAL_PARCEL
10
77.23429
20
28.614042
30
0.0
0
VERTEX
8
CADASTRAL_PARCEL
10
77.234288
20
28.614043
30
0.0
0
VERTEX
8
CADASTRAL_PARCEL
10
77.234287
20
28.614044
30
0.0
0
VERTEX
8
CADASTRAL_PARCEL
10
77.234286
20
28.614044
30
0.0
0
VERTEX
8
CADASTRAL_PARCEL
10
77.234284
20
28.614045
30
0.0
0
VERTEX
8
CADASTRAL_PARCEL
10
77.234283
20
28.614046
30
0.0
0
VERTEX
8
CADASTRAL_PARCEL
10
77.234282
20
28.614047
30
0.0
0
VERTEX
8
CADASTRAL_PARCEL
10
77.234281
20
28.614048
30
0.0
0
VERTEX
8
CADASTRAL_PARCEL
10
77.234281
20
28.614049
30
0.0
0
VERTEX
8
CADASTRAL_PARCEL
10
77.23428
20
28.61405
30
0.0
0
VERTEX
8
CADASTRAL_PARCEL
10
77.23428
20
28.614052
30
0.0
0
VERTEX
8
CADASTRAL_PARCEL
10
77.234279
20
28.614053
30
0.0
0
VERTEX
8
CADASTRAL_PARCEL
10
77.234279
20
28.614054
30
0.0
0
VERTEX
8
CADASTRAL_PARCEL
10
77.234279
20
28.614056
30
0.0
0
VERTEX
8
CADASTRAL_PARCEL
10
77.234286
20
28.614398
30
0.0
0
VERTEX
8
CADASTRAL_PARCEL
10
77.234286
20
28.6144
30
0.0
0
VERTEX
8
CADASTRAL_PARCEL
10
77.234287
20
28.614401
30
0.0
0
VERTEX
8
CADASTRAL_PARCEL
10
77.234287
20
28.614402
30
0.0
0
VERTEX
8
CADASTRAL_PARCEL
10
77.234288
20
28.614404
30
0.0
0
VERTEX
8
CADASTRAL_PARCEL
10
77.234288
20
28.614405
30
0.0
0
VERTEX
8
CADASTRAL_PARCEL
10
77.234289
20
28.614406
30
0.0
0
VERTEX
8
CADASTRAL_PARCEL
10
77.23429
20
28.614407
30
0.0
0
VERTEX
8
CADASTRAL_PARCEL
10
77.234291
20
28.614408
30
0.0
0
VERTEX
8
CADASTRAL_PARCEL
10
77.234292
20
28.614409
30
0.0
0
VERTEX
8
CADASTRAL_PARCEL
10
77.234293
20
28.61441
30
0.0
0
VERTEX
8
CADASTRAL_PARCEL
10
77.234295
20
28.61441
30
0.0
0
VERTEX
8
CADASTRAL_PARCEL
10
77.234296
20
28.614411
30
0.0
0
VERTEX
8
CADASTRAL_PARCEL
10
77.234297
20
28.614411
30
0.0
0
VERTEX
8
CADASTRAL_PARCEL
10
77.234299
20
28.614411
30
0.0
0
VERTEX
8
CADASTRAL_PARCEL
10
77.2343
20
28.614412
30
0.0
0
VERTEX
8
CADASTRAL_PARCEL
10
77.234302
20
28.614412
30
0.0
0
VERTEX
8
CADASTRAL_PARCEL
10
77.2348
20
28.614403
30
0.0
0
VERTEX
8
CADASTRAL_PARCEL
10
77.234802
20
28.614403
30
0.0
0
VERTEX
8
CADASTRAL_PARCEL
10
77.234803
20
28.614403
30
0.0
0
VERTEX
8
CADASTRAL_PARCEL
10
77.234805
20
28.614403
30
0.0
0
VERTEX
8
CADASTRAL_PARCEL
10
77.234806
20
28.614402
30
0.0
0
VERTEX
8
CADASTRAL_PARCEL
10
77.234807
20
28.614402
30
0.0
0
VERTEX
8
CADASTRAL_PARCEL
10
77.234809
20
28.614401
30
0.0
0
VERTEX
8
CADASTRAL_PARCEL
10
77.23481
20
28.6144
30
0.0
0
VERTEX
8
CADASTRAL_PARCEL
10
77.234811
20
28.614399
30
0.0
0
VERTEX
8
CADASTRAL_PARCEL
10
77.234812
20
28.614398
30
0.0
0
VERTEX
8
CADASTRAL_PARCEL
10
77.234813
20
28.614397
30
0.0
0
VERTEX
8
CADASTRAL_PARCEL
10
77.234814
20
28.614396
30
0.0
0
VERTEX
8
CADASTRAL_PARCEL
10
77.234814
20
28.614395
30
0.0
0
VERTEX
8
CADASTRAL_PARCEL
10
77.234815
20
28.614394
30
0.0
0
VERTEX
8
CADASTRAL_PARCEL
10
77.234815
20
28.614392
30
0.0
0
VERTEX
8
CADASTRAL_PARCEL
10
77.234815
20
28.614391
30
0.0
0
VERTEX
8
CADASTRAL_PARCEL
10
77.234815
20
28.61439
30
0.0
0
VERTEX
8
CADASTRAL_PARCEL
10
77.234808
20
28.614047
30
0.0
0
VERTEX
8
CADASTRAL_PARCEL
10
77.234808
20
28.614046
30
0.0
0
VERTEX
8
CADASTRAL_PARCEL
10
77.234808
20
28.614044
30
0.0
0
VERTEX
8
CADASTRAL_PARCEL
10
77.234807
20
28.614043
30
0.0
0
VERTEX
8
CADASTRAL_PARCEL
10
77.234807
20
28.614042
30
0.0
0
VERTEX
8
CADASTRAL_PARCEL
10
77.234806
20
28.614041
30
0.0
0
VERTEX
8
CADASTRAL_PARCEL
10
77.234805
20
28.614039
30
0.0
0
VERTEX
8
CADASTRAL_PARCEL
10
77.234804
20
28.614038
30
0.0
0
VERTEX
8
CADASTRAL_PARCEL
10
77.234803
20
28.614037
30
0.0
0
VERTEX
8
CADASTRAL_PARCEL
10
77.234802
20
28.614037
30
0.0
0
VERTEX
8
CADASTRAL_PARCEL
10
77.234801
20
28.614036
30
0.0
0
VERTEX
8
CADASTRAL_PARCEL
10
77.2348
20
28.614035
30
0.0
0
VERTEX
8
CADASTRAL_PARCEL
10
77.234798
20
28.614035
30
0.0
0
VERTEX
8
CADASTRAL_PARCEL
10
77.234797
20
28.614034
30
0.0
0
VERTEX
8
CADASTRAL_PARCEL
10
77.234795
20
28.614034
30
0.0
0
VERTEX
8
CADASTRAL_PARCEL
10
77.234794
20
28.614034
30
0.0
0
VERTEX
8
CADASTRAL_PARCEL
10
77.234792
20
28.614034
30
0.0
0
VERTEX
8
CADASTRAL_PARCEL
10
77.234294
20
28.614042
30
0.0
0
SEQEND
0
POLYLINE
8
CADASTRAL_PARCEL
66
1
70
1
0
VERTEX
8
CADASTRAL_PARCEL
10
77.2348
20
28.61439
30
0.0
0
VERTEX
8
CADASTRAL_PARCEL
10
77.234302
20
28.614398
30
0.0
0
VERTEX
8
CADASTRAL_PARCEL
10
77.234309
20
28.614741
30
0.0
0
VERTEX
8
CADASTRAL_PARCEL
10
77.234807
20
28.614733
30
0.0
0
VERTEX
8
CADASTRAL_PARCEL
10
77.2348
20
28.61439
30
0.0
0
SEQEND
0
POLYLINE
8
CADASTRAL_PARCEL
66
1
70
1
0
VERTEX
8
CADASTRAL_PARCEL
10
77.234778
20
28.613362
30
0.0
0
VERTEX
8
CADASTRAL_PARCEL
10
77.235276
20
28.613353
30
0.0
0
VERTEX
8
CADASTRAL_PARCEL
10
77.235269
20
28.613011
30
0.0
0
VERTEX
8
CADASTRAL_PARCEL
10
77.234771
20
28.613019
30
0.0
0
VERTEX
8
CADASTRAL_PARCEL
10
77.234778
20
28.613362
30
0.0
0
SEQEND
0
POLYLINE
8
CADASTRAL_PARCEL
66
1
70
1
0
VERTEX
8
CADASTRAL_PARCEL
10
77.234778
20
28.613362
30
0.0
0
VERTEX
8
CADASTRAL_PARCEL
10
77.234785
20
28.613704
30
0.0
0
VERTEX
8
CADASTRAL_PARCEL
10
77.235284
20
28.613696
30
0.0
0
VERTEX
8
CADASTRAL_PARCEL
10
77.235276
20
28.613353
30
0.0
0
VERTEX
8
CADASTRAL_PARCEL
10
77.234778
20
28.613362
30
0.0
0
SEQEND
0
POLYLINE
8
CADASTRAL_PARCEL
66
1
70
1
0
VERTEX
8
CADASTRAL_PARCEL
10
77.234785
20
28.613704
30
0.0
0
VERTEX
8
CADASTRAL_PARCEL
10
77.234793
20
28.614047
30
0.0
0
VERTEX
8
CADASTRAL_PARCEL
10
77.235291
20
28.614039
30
0.0
0
VERTEX
8
CADASTRAL_PARCEL
10
77.235284
20
28.613696
30
0.0
0
VERTEX
8
CADASTRAL_PARCEL
10
77.234785
20
28.613704
30
0.0
0
SEQEND
0
POLYLINE
8
CADASTRAL_PARCEL
66
1
70
1
0
VERTEX
8
CADASTRAL_PARCEL
10
77.234811
20
28.614063
30
0.0
0
VERTEX
8
CADASTRAL_PARCEL
10
77.234818
20
28.614373
30
0.0
0
VERTEX
8
CADASTRAL_PARCEL
10
77.235279
20
28.614366
30
0.0
0
VERTEX
8
CADASTRAL_PARCEL
10
77.235273
20
28.614055
30
0.0
0
VERTEX
8
CADASTRAL_PARCEL
10
77.234811
20
28.614063
30
0.0
0
SEQEND
0
POLYLINE
8
CADASTRAL_PARCEL
66
1
70
1
0
VERTEX
8
CADASTRAL_PARCEL
10
77.235298
20
28.614382
30
0.0
0
VERTEX
8
CADASTRAL_PARCEL
10
77.2348
20
28.61439
30
0.0
0
VERTEX
8
CADASTRAL_PARCEL
10
77.234807
20
28.614733
30
0.0
0
VERTEX
8
CADASTRAL_PARCEL
10
77.235305
20
28.614724
30
0.0
0
VERTEX
8
CADASTRAL_PARCEL
10
77.235298
20
28.614382
30
0.0
0
SEQEND
0
POLYLINE
8
CADASTRAL_PARCEL
66
1
70
1
0
VERTEX
8
CADASTRAL_PARCEL
10
77.235767
20
28.612984
30
0.0
0
VERTEX
8
CADASTRAL_PARCEL
10
77.235238
20
28.612993
30
0.0
0
VERTEX
8
CADASTRAL_PARCEL
10
77.235246
20
28.613354
30
0.0
0
VERTEX
8
CADASTRAL_PARCEL
10
77.235775
20
28.613345
30
0.0
0
VERTEX
8
CADASTRAL_PARCEL
10
77.235767
20
28.612984
30
0.0
0
SEQEND
0
POLYLINE
8
CADASTRAL_PARCEL
66
1
70
1
0
VERTEX
8
CADASTRAL_PARCEL
10
77.235775
20
28.613345
30
0.0
0
VERTEX
8
CADASTRAL_PARCEL
10
77.235276
20
28.613353
30
0.0
0
VERTEX
8
CADASTRAL_PARCEL
10
77.235284
20
28.613696
30
0.0
0
VERTEX
8
CADASTRAL_PARCEL
10
77.235782
20
28.613688
30
0.0
0
VERTEX
8
CADASTRAL_PARCEL
10
77.235775
20
28.613345
30
0.0
0
SEQEND
0
POLYLINE
8
CADASTRAL_PARCEL
66
1
70
1
0
VERTEX
8
CADASTRAL_PARCEL
10
77.235782
20
28.613688
30
0.0
0
VERTEX
8
CADASTRAL_PARCEL
10
77.235284
20
28.613696
30
0.0
0
VERTEX
8
CADASTRAL_PARCEL
10
77.235291
20
28.614039
30
0.0
0
VERTEX
8
CADASTRAL_PARCEL
10
77.235789
20
28.614031
30
0.0
0
VERTEX
8
CADASTRAL_PARCEL
10
77.235782
20
28.613688
30
0.0
0
SEQEND
0
POLYLINE
8
CADASTRAL_PARCEL
66
1
70
1
0
VERTEX
8
CADASTRAL_PARCEL
10
77.235805
20
28.61403
30
0.0
0
VERTEX
8
CADASTRAL_PARCEL
10
77.235804
20
28.614029
30
0.0
0
VERTEX
8
CADASTRAL_PARCEL
10
77.235804
20
28.614028
30
0.0
0
VERTEX
8
CADASTRAL_PARCEL
10
77.235804
20
28.614027
30
0.0
0
VERTEX
8
CADASTRAL_PARCEL
10
77.235803
20
28.614025
30
0.0
0
VERTEX
8
CADASTRAL_PARCEL
10
77.235803
20
28.614024
30
0.0
0
VERTEX
8
CADASTRAL_PARCEL
10
77.235802
20
28.614023
30
0.0
0
VERTEX
8
CADASTRAL_PARCEL
10
77.235801
20
28.614022
30
0.0
0
VERTEX
8
CADASTRAL_PARCEL
10
77.2358
20
28.614021
30
0.0
0
VERTEX
8
CADASTRAL_PARCEL
10
77.235799
20
28.61402
30
0.0
0
VERTEX
8
CADASTRAL_PARCEL
10
77.235797
20
28.614019
30
0.0
0
VERTEX
8
CADASTRAL_PARCEL
10
77.235796
20
28.614019
30
0.0
0
VERTEX
8
CADASTRAL_PARCEL
10
77.235795
20
28.614018
30
0.0
0
VERTEX
8
CADASTRAL_PARCEL
10
77.235793
20
28.614018
30
0.0
0
VERTEX
8
CADASTRAL_PARCEL
10
77.235792
20
28.614017
30
0.0
0
VERTEX
8
CADASTRAL_PARCEL
10
77.23579
20
28.614017
30
0.0
0
VERTEX
8
CADASTRAL_PARCEL
10
77.235789
20
28.614017
30
0.0
0
VERTEX
8
CADASTRAL_PARCEL
10
77.235291
20
28.614025
30
0.0
0
VERTEX
8
CADASTRAL_PARCEL
10
77.235289
20
28.614025
30
0.0
0
VERTEX
8
CADASTRAL_PARCEL
10
77.235288
20
28.614026
30
0.0
0
VERTEX
8
CADASTRAL_PARCEL
10
77.235286
20
28.614026
30
0.0
0
VERTEX
8
CADASTRAL_PARCEL
10
77.235285
20
28.614027
30
0.0
0
VERTEX
8
CADASTRAL_PARCEL
10
77.235283
20
28.614027
30
0.0
0
VERTEX
8
CADASTRAL_PARCEL
10
77.235282
20
28.614028
30
0.0
0
VERTEX
8
CADASTRAL_PARCEL
10
77.235281
20
28.614029
30
0.0
0
VERTEX
8
CADASTRAL_PARCEL
10
77.23528
20
28.61403
30
0.0
0
VERTEX
8
CADASTRAL_PARCEL
10
77.235279
20
28.614031
30
0.0
0
VERTEX
8
CADASTRAL_PARCEL
10
77.235278
20
28.614032
30
0.0
0
VERTEX
8
CADASTRAL_PARCEL
10
77.235277
20
28.614033
30
0.0
0
VERTEX
8
CADASTRAL_PARCEL
10
77.235277
20
28.614034
30
0.0
0
VERTEX
8
CADASTRAL_PARCEL
10
77.235276
20
28.614035
30
0.0
0
VERTEX
8
CADASTRAL_PARCEL
10
77.235276
20
28.614037
30
0.0
0
VERTEX
8
CADASTRAL_PARCEL
10
77.235276
20
28.614038
30
0.0
0
VERTEX
8
CADASTRAL_PARCEL
10
77.235276
20
28.614039
30
0.0
0
VERTEX
8
CADASTRAL_PARCEL
10
77.235283
20
28.614382
30
0.0
0
VERTEX
8
CADASTRAL_PARCEL
10
77.235283
20
28.614383
30
0.0
0
VERTEX
8
CADASTRAL_PARCEL
10
77.235283
20
28.614385
30
0.0
0
VERTEX
8
CADASTRAL_PARCEL
10
77.235284
20
28.614386
30
0.0
0
VERTEX
8
CADASTRAL_PARCEL
10
77.235284
20
28.614387
30
0.0
0
VERTEX
8
CADASTRAL_PARCEL
10
77.235285
20
28.614388
30
0.0
0
VERTEX
8
CADASTRAL_PARCEL
10
77.235286
20
28.614389
30
0.0
0
VERTEX
8
CADASTRAL_PARCEL
10
77.235286
20
28.61439
30
0.0
0
VERTEX
8
CADASTRAL_PARCEL
10
77.235288
20
28.614391
30
0.0
0
VERTEX
8
CADASTRAL_PARCEL
10
77.235289
20
28.614392
30
0.0
0
VERTEX
8
CADASTRAL_PARCEL
10
77.23529
20
28.614393
30
0.0
0
VERTEX
8
CADASTRAL_PARCEL
10
77.235291
20
28.614394
30
0.0
0
VERTEX
8
CADASTRAL_PARCEL
10
77.235293
20
28.614394
30
0.0
0
VERTEX
8
CADASTRAL_PARCEL
10
77.235294
20
28.614395
30
0.0
0
VERTEX
8
CADASTRAL_PARCEL
10
77.235295
20
28.614395
30
0.0
0
VERTEX
8
CADASTRAL_PARCEL
10
77.235297
20
28.614395
30
0.0
0
VERTEX
8
CADASTRAL_PARCEL
10
77.235298
20
28.614395
30
0.0
0
VERTEX
8
CADASTRAL_PARCEL
10
77.235797
20
28.614387
30
0.0
0
VERTEX
8
CADASTRAL_PARCEL
10
77.235798
20
28.614387
30
0.0
0
VERTEX
8
CADASTRAL_PARCEL
10
77.2358
20
28.614387
30
0.0
0
VERTEX
8
CADASTRAL_PARCEL
10
77.235801
20
28.614386
30
0.0
0
VERTEX
8
CADASTRAL_PARCEL
10
77.235803
20
28.614386
30
0.0
0
VERTEX
8
CADASTRAL_PARCEL
10
77.235804
20
28.614385
30
0.0
0
VERTEX
8
CADASTRAL_PARCEL
10
77.235805
20
28.614385
30
0.0
0
VERTEX
8
CADASTRAL_PARCEL
10
77.235806
20
28.614384
30
0.0
0
VERTEX
8
CADASTRAL_PARCEL
10
77.235808
20
28.614383
30
0.0
0
VERTEX
8
CADASTRAL_PARCEL
10
77.235808
20
28.614382
30
0.0
0
VERTEX
8
CADASTRAL_PARCEL
10
77.235809
20
28.614381
30
0.0
0
VERTEX
8
CADASTRAL_PARCEL
10
77.23581
20
28.61438
30
0.0
0
VERTEX
8
CADASTRAL_PARCEL
10
77.235811
20
28.614378
30
0.0
0
VERTEX
8
CADASTRAL_PARCEL
10
77.235811
20
28.614377
30
0.0
0
VERTEX
8
CADASTRAL_PARCEL
10
77.235812
20
28.614376
30
0.0
0
VERTEX
8
CADASTRAL_PARCEL
10
77.235812
20
28.614375
30
0.0
0
VERTEX
8
CADASTRAL_PARCEL
10
77.235812
20
28.614373
30
0.0
0
VERTEX
8
CADASTRAL_PARCEL
10
77.235805
20
28.61403
30
0.0
0
SEQEND
0
POLYLINE
8
CADASTRAL_PARCEL
66
1
70
1
0
VERTEX
8
CADASTRAL_PARCEL
10
77.235796
20
28.614373
30
0.0
0
VERTEX
8
CADASTRAL_PARCEL
10
77.235298
20
28.614382
30
0.0
0
VERTEX
8
CADASTRAL_PARCEL
10
77.235305
20
28.614724
30
0.0
0
VERTEX
8
CADASTRAL_PARCEL
10
77.235804
20
28.614716
30
0.0
0
VERTEX
8
CADASTRAL_PARCEL
10
77.235796
20
28.614373
30
0.0
0
SEQEND
0
POLYLINE
8
CADASTRAL_PARCEL
66
1
70
1
0
VERTEX
8
CADASTRAL_PARCEL
10
77.234319
20
28.61521
30
0.0
0
VERTEX
8
CADASTRAL_PARCEL
10
77.234311
20
28.614849
30
0.0
0
VERTEX
8
CADASTRAL_PARCEL
10
77.233813
20
28.614857
30
0.0
0
VERTEX
8
CADASTRAL_PARCEL
10
77.23382
20
28.615218
30
0.0
0
VERTEX
8
CADASTRAL_PARCEL
10
77.234319
20
28.61521
30
0.0
0
SEQEND
0
POLYLINE
8
CADASTRAL_PARCEL
66
1
70
1
0
VERTEX
8
CADASTRAL_PARCEL
10
77.234326
20
28.615571
30
0.0
0
VERTEX
8
CADASTRAL_PARCEL
10
77.234319
20
28.61521
30
0.0
0
VERTEX
8
CADASTRAL_PARCEL
10
77.23382
20
28.615218
30
0.0
0
VERTEX
8
CADASTRAL_PARCEL
10
77.233828
20
28.615579
30
0.0
0
VERTEX
8
CADASTRAL_PARCEL
10
77.234326
20
28.615571
30
0.0
0
SEQEND
0
POLYLINE
8
CADASTRAL_PARCEL
66
1
70
1
0
VERTEX
8
CADASTRAL_PARCEL
10
77.234334
20
28.615931
30
0.0
0
VERTEX
8
CADASTRAL_PARCEL
10
77.234326
20
28.615571
30
0.0
0
VERTEX
8
CADASTRAL_PARCEL
10
77.233828
20
28.615579
30
0.0
0
VERTEX
8
CADASTRAL_PARCEL
10
77.233836
20
28.61594
30
0.0
0
VERTEX
8
CADASTRAL_PARCEL
10
77.234334
20
28.615931
30
0.0
0
SEQEND
0
POLYLINE
8
CADASTRAL_PARCEL
66
1
70
1
0
VERTEX
8
CADASTRAL_PARCEL
10
77.234316
20
28.615948
30
0.0
0
VERTEX
8
CADASTRAL_PARCEL
10
77.233854
20
28.615956
30
0.0
0
VERTEX
8
CADASTRAL_PARCEL
10
77.233861
20
28.616284
30
0.0
0
VERTEX
8
CADASTRAL_PARCEL
10
77.234323
20
28.616276
30
0.0
0
VERTEX
8
CADASTRAL_PARCEL
10
77.234316
20
28.615948
30
0.0
0
SEQEND
0
POLYLINE
8
CADASTRAL_PARCEL
66
1
70
1
0
VERTEX
8
CADASTRAL_PARCEL
10
77.234319
20
28.61521
30
0.0
0
VERTEX
8
CADASTRAL_PARCEL
10
77.234817
20
28.615202
30
0.0
0
VERTEX
8
CADASTRAL_PARCEL
10
77.234809
20
28.614841
30
0.0
0
VERTEX
8
CADASTRAL_PARCEL
10
77.234311
20
28.614849
30
0.0
0
VERTEX
8
CADASTRAL_PARCEL
10
77.234319
20
28.61521
30
0.0
0
SEQEND
0
POLYLINE
8
CADASTRAL_PARCEL
66
1
70
1
0
VERTEX
8
CADASTRAL_PARCEL
10
77.234319
20
28.61521
30
0.0
0
VERTEX
8
CADASTRAL_PARCEL
10
77.234326
20
28.615571
30
0.0
0
VERTEX
8
CADASTRAL_PARCEL
10
77.234825
20
28.615562
30
0.0
0
VERTEX
8
CADASTRAL_PARCEL
10
77.234817
20
28.615202
30
0.0
0
VERTEX
8
CADASTRAL_PARCEL
10
77.234319
20
28.61521
30
0.0
0
SEQEND
0
POLYLINE
8
CADASTRAL_PARCEL
66
1
70
1
0
VERTEX
8
CADASTRAL_PARCEL
10
77.234326
20
28.615571
30
0.0
0
VERTEX
8
CADASTRAL_PARCEL
10
77.234334
20
28.615931
30
0.0
0
VERTEX
8
CADASTRAL_PARCEL
10
77.234832
20
28.615923
30
0.0
0
VERTEX
8
CADASTRAL_PARCEL
10
77.234825
20
28.615562
30
0.0
0
VERTEX
8
CADASTRAL_PARCEL
10
77.234326
20
28.615571
30
0.0
0
SEQEND
0
POLYLINE
8
CADASTRAL_PARCEL
66
1
70
1
0
VERTEX
8
CADASTRAL_PARCEL
10
77.234832
20
28.615923
30
0.0
0
VERTEX
8
CADASTRAL_PARCEL
10
77.234334
20
28.615931
30
0.0
0
VERTEX
8
CADASTRAL_PARCEL
10
77.234342
20
28.616292
30
0.0
0
VERTEX
8
CADASTRAL_PARCEL
10
77.23484
20
28.616284
30
0.0
0
VERTEX
8
CADASTRAL_PARCEL
10
77.234832
20
28.615923
30
0.0
0
SEQEND
0
POLYLINE
8
CADASTRAL_PARCEL
66
1
70
1
0
VERTEX
8
CADASTRAL_PARCEL
10
77.234802
20
28.615202
30
0.0
0
VERTEX
8
CADASTRAL_PARCEL
10
77.234802
20
28.615203
30
0.0
0
VERTEX
8
CADASTRAL_PARCEL
10
77.234802
20
28.615205
30
0.0
0
VERTEX
8
CADASTRAL_PARCEL
10
77.234802
20
28.615206
30
0.0
0
VERTEX
8
CADASTRAL_PARCEL
10
77.234803
20
28.615207
30
0.0
0
VERTEX
8
CADASTRAL_PARCEL
10
77.234804
20
28.615208
30
0.0
0
VERTEX
8
CADASTRAL_PARCEL
10
77.234804
20
28.615209
30
0.0
0
VERTEX
8
CADASTRAL_PARCEL
10
77.234805
20
28.61521
30
0.0
0
VERTEX
8
CADASTRAL_PARCEL
10
77.234806
20
28.615211
30
0.0
0
VERTEX
8
CADASTRAL_PARCEL
10
77.234808
20
28.615212
30
0.0
0
VERTEX
8
CADASTRAL_PARCEL
10
77.234809
20
28.615213
30
0.0
0
VERTEX
8
CADASTRAL_PARCEL
10
77.23481
20
28.615214
30
0.0
0
VERTEX
8
CADASTRAL_PARCEL
10
77.234811
20
28.615214
30
0.0
0
VERTEX
8
CADASTRAL_PARCEL
10
77.234813
20
28.615215
30
0.0
0
VERTEX
8
CADASTRAL_PARCEL
10
77.234814
20
28.615215
30
0.0
0
VERTEX
8
CADASTRAL_PARCEL
10
77.234816
20
28.615215
30
0.0
0
VERTEX
8
CADASTRAL_PARCEL
10
77.234817
20
28.615215
30
0.0
0
VERTEX
8
CADASTRAL_PARCEL
10
77.235316
20
28.615207
30
0.0
0
VERTEX
8
CADASTRAL_PARCEL
10
77.235317
20
28.615207
30
0.0
0
VERTEX
8
CADASTRAL_PARCEL
10
77.235319
20
28.615207
30
0.0
0
VERTEX
8
CADASTRAL_PARCEL
10
77.23532
20
28.615206
30
0.0
0
VERTEX
8
CADASTRAL_PARCEL
10
77.235321
20
28.615206
30
0.0
0
VERTEX
8
CADASTRAL_PARCEL
10
77.235323
20
28.615205
30
0.0
0
VERTEX
8
CADASTRAL_PARCEL
10
77.235324
20
28.615205
30
0.0
0
VERTEX
8
CADASTRAL_PARCEL
10
77.235325
20
28.615204
30
0.0
0
VERTEX
8
CADASTRAL_PARCEL
10
77.235326
20
28.615203
30
0.0
0
VERTEX
8
CADASTRAL_PARCEL
10
77.235327
20
28.615202
30
0.0
0
VERTEX
8
CADASTRAL_PARCEL
10
77.235328
20
28.615201
30
0.0
0
VERTEX
8
CADASTRAL_PARCEL
10
77.235329
20
28.6152
30
0.0
0
VERTEX
8
CADASTRAL_PARCEL
10
77.23533
20
28.615198
30
0.0
0
VERTEX
8
CADASTRAL_PARCEL
10
77.23533
20
28.615197
30
0.0
0
VERTEX
8
CADASTRAL_PARCEL
10
77.23533
20
28.615196
30
0.0
0
VERTEX
8
CADASTRAL_PARCEL
10
77.235331
20
28.615195
30
0.0
0
VERTEX
8
CADASTRAL_PARCEL
10
77.235331
20
28.615193
30
0.0
0
VERTEX
8
CADASTRAL_PARCEL
10
77.235323
20
28.614832
30
0.0
0
VERTEX
8
CADASTRAL_PARCEL
10
77.235323
20
28.614831
30
0.0
0
VERTEX
8
CADASTRAL_PARCEL
10
77.235323
20
28.61483
30
0.0
0
VERTEX
8
CADASTRAL_PARCEL
10
77.235322
20
28.614828
30
0.0
0
VERTEX
8
CADASTRAL_PARCEL
10
77.235322
20
28.614827
30
0.0
0
VERTEX
8
CADASTRAL_PARCEL
10
77.235321
20
28.614826
30
0.0
0
VERTEX
8
CADASTRAL_PARCEL
10
77.23532
20
28.614825
30
0.0
0
VERTEX
8
CADASTRAL_PARCEL
10
77.235319
20
28.614824
30
0.0
0
VERTEX
8
CADASTRAL_PARCEL
10
77.235318
20
28.614823
30
0.0
0
VERTEX
8
CADASTRAL_PARCEL
10
77.235317
20
28.614822
30
0.0
0
VERTEX
8
CADASTRAL_PARCEL
10
77.235316
20
28.614821
30
0.0
0
VERTEX
8
CADASTRAL_PARCEL
10
77.235315
20
28.614821
30
0.0
0
VERTEX
8
CADASTRAL_PARCEL
10
77.235313
20
28.61482
30
0.0
0
VERTEX
8
CADASTRAL_PARCEL
10
77.235312
20
28.61482
30
0.0
0
VERTEX
8
CADASTRAL_PARCEL
10
77.23531
20
28.614819
30
0.0
0
VERTEX
8
CADASTRAL_PARCEL
10
77.235309
20
28.614819
30
0.0
0
VERTEX
8
CADASTRAL_PARCEL
10
77.235307
20
28.614819
30
0.0
0
VERTEX
8
CADASTRAL_PARCEL
10
77.234809
20
28.614827
30
0.0
0
VERTEX
8
CADASTRAL_PARCEL
10
77.234808
20
28.614827
30
0.0
0
VERTEX
8
CADASTRAL_PARCEL
10
77.234806
20
28.614828
30
0.0
0
VERTEX
8
CADASTRAL_PARCEL
10
77.234805
20
28.614828
30
0.0
0
VERTEX
8
CADASTRAL_PARCEL
10
77.234803
20
28.614828
30
0.0
0
VERTEX
8
CADASTRAL_PARCEL
10
77.234802
20
28.614829
30
0.0
0
VERTEX
8
CADASTRAL_PARCEL
10
77.234801
20
28.61483
30
0.0
0
VERTEX
8
CADASTRAL_PARCEL
10
77.234799
20
28.614831
30
0.0
0
VERTEX
8
CADASTRAL_PARCEL
10
77.234798
20
28.614831
30
0.0
0
VERTEX
8
CADASTRAL_PARCEL
10
77.234797
20
28.614832
30
0.0
0
VERTEX
8
CADASTRAL_PARCEL
10
77.234797
20
28.614834
30
0.0
0
VERTEX
8
CADASTRAL_PARCEL
10
77.234796
20
28.614835
30
0.0
0
VERTEX
8
CADASTRAL_PARCEL
10
77.234795
20
28.614836
30
0.0
0
VERTEX
8
CADASTRAL_PARCEL
10
77.234795
20
28.614837
30
0.0
0
VERTEX
8
CADASTRAL_PARCEL
10
77.234794
20
28.614838
30
0.0
0
VERTEX
8
CADASTRAL_PARCEL
10
77.234794
20
28.61484
30
0.0
0
VERTEX
8
CADASTRAL_PARCEL
10
77.234794
20
28.614841
30
0.0
0
VERTEX
8
CADASTRAL_PARCEL
10
77.234802
20
28.615202
30
0.0
0
SEQEND
0
POLYLINE
8
CADASTRAL_PARCEL
66
1
70
1
0
VERTEX
8
CADASTRAL_PARCEL
10
77.234817
20
28.615202
30
0.0
0
VERTEX
8
CADASTRAL_PARCEL
10
77.234825
20
28.615562
30
0.0
0
VERTEX
8
CADASTRAL_PARCEL
10
77.235323
20
28.615554
30
0.0
0
VERTEX
8
CADASTRAL_PARCEL
10
77.235315
20
28.615193
30
0.0
0
VERTEX
8
CADASTRAL_PARCEL
10
77.234817
20
28.615202
30
0.0
0
SEQEND
0
POLYLINE
8
CADASTRAL_PARCEL
66
1
70
1
0
VERTEX
8
CADASTRAL_PARCEL
10
77.234825
20
28.615562
30
0.0
0
VERTEX
8
CADASTRAL_PARCEL
10
77.234832
20
28.615923
30
0.0
0
VERTEX
8
CADASTRAL_PARCEL
10
77.235331
20
28.615915
30
0.0
0
VERTEX
8
CADASTRAL_PARCEL
10
77.235323
20
28.615554
30
0.0
0
VERTEX
8
CADASTRAL_PARCEL
10
77.234825
20
28.615562
30
0.0
0
SEQEND
0
POLYLINE
8
CADASTRAL_PARCEL
66
1
70
1
0
VERTEX
8
CADASTRAL_PARCEL
10
77.234801
20
28.615906
30
0.0
0
VERTEX
8
CADASTRAL_PARCEL
10
77.234809
20
28.616285
30
0.0
0
VERTEX
8
CADASTRAL_PARCEL
10
77.235338
20
28.616276
30
0.0
0
VERTEX
8
CADASTRAL_PARCEL
10
77.23533
20
28.615897
30
0.0
0
VERTEX
8
CADASTRAL_PARCEL
10
77.234801
20
28.615906
30
0.0
0
SEQEND
0
POLYLINE
8
CADASTRAL_PARCEL
66
1
70
1
0
VERTEX
8
CADASTRAL_PARCEL
10
77.235806
20
28.614824
30
0.0
0
VERTEX
8
CADASTRAL_PARCEL
10
77.235308
20
28.614833
30
0.0
0
VERTEX
8
CADASTRAL_PARCEL
10
77.235315
20
28.615193
30
0.0
0
VERTEX
8
CADASTRAL_PARCEL
10
77.235814
20
28.615185
30
0.0
0
VERTEX
8
CADASTRAL_PARCEL
10
77.235806
20
28.614824
30
0.0
0
SEQEND
0
POLYLINE
8
CADASTRAL_PARCEL
66
1
70
1
0
VERTEX
8
CADASTRAL_PARCEL
10
77.235796
20
28.615202
30
0.0
0
VERTEX
8
CADASTRAL_PARCEL
10
77.235334
20
28.615209
30
0.0
0
VERTEX
8
CADASTRAL_PARCEL
10
77.235341
20
28.615538
30
0.0
0
VERTEX
8
CADASTRAL_PARCEL
10
77.235803
20
28.61553
30
0.0
0
VERTEX
8
CADASTRAL_PARCEL
10
77.235796
20
28.615202
30
0.0
0
SEQEND
0
POLYLINE
8
CADASTRAL_PARCEL
66
1
70
1
0
VERTEX
8
CADASTRAL_PARCEL
10
77.235821
20
28.615546
30
0.0
0
VERTEX
8
CADASTRAL_PARCEL
10
77.235323
20
28.615554
30
0.0
0
VERTEX
8
CADASTRAL_PARCEL
10
77.235331
20
28.615915
30
0.0
0
VERTEX
8
CADASTRAL_PARCEL
10
77.235829
20
28.615907
30
0.0
0
VERTEX
8
CADASTRAL_PARCEL
10
77.235821
20
28.615546
30
0.0
0
SEQEND
0
POLYLINE
8
CADASTRAL_PARCEL
66
1
70
1
0
VERTEX
8
CADASTRAL_PARCEL
10
77.235829
20
28.615907
30
0.0
0
VERTEX
8
CADASTRAL_PARCEL
10
77.235331
20
28.615915
30
0.0
0
VERTEX
8
CADASTRAL_PARCEL
10
77.235338
20
28.616276
30
0.0
0
VERTEX
8
CADASTRAL_PARCEL
10
77.235837
20
28.616268
30
0.0
0
VERTEX
8
CADASTRAL_PARCEL
10
77.235829
20
28.615907
30
0.0
0
SEQEND
0
POLYLINE
8
CADASTRAL_PARCEL
66
1
70
1
0
VERTEX
8
CADASTRAL_PARCEL
10
77.23435
20
28.616707
30
0.0
0
VERTEX
8
CADASTRAL_PARCEL
10
77.234343
20
28.616364
30
0.0
0
VERTEX
8
CADASTRAL_PARCEL
10
77.233845
20
28.616373
30
0.0
0
VERTEX
8
CADASTRAL_PARCEL
10
77.233852
20
28.616715
30
0.0
0
VERTEX
8
CADASTRAL_PARCEL
10
77.23435
20
28.616707
30
0.0
0
SEQEND
0
POLYLINE
8
CADASTRAL_PARCEL
66
1
70
1
0
VERTEX
8
CADASTRAL_PARCEL
10
77.23435
20
28.616707
30
0.0
0
VERTEX
8
CADASTRAL_PARCEL
10
77.233852
20
28.616715
30
0.0
0
VERTEX
8
CADASTRAL_PARCEL
10
77.233859
20
28.617058
30
0.0
0
VERTEX
8
CADASTRAL_PARCEL
10
77.234358
20
28.61705
30
0.0
0
VERTEX
8
CADASTRAL_PARCEL
10
77.23435
20
28.616707
30
0.0
0
SEQEND
0
POLYLINE
8
CADASTRAL_PARCEL
66
1
70
1
0
VERTEX
8
CADASTRAL_PARCEL
10
77.234335
20
28.616707
30
0.0
0
VERTEX
8
CADASTRAL_PARCEL
10
77.234335
20
28.616709
30
0.0
0
VERTEX
8
CADASTRAL_PARCEL
10
77.234335
20
28.61671
30
0.0
0
VERTEX
8
CADASTRAL_PARCEL
10
77.234336
20
28.616711
30
0.0
0
VERTEX
8
CADASTRAL_PARCEL
10
77.234336
20
28.616713
30
0.0
0
VERTEX
8
CADASTRAL_PARCEL
10
77.234337
20
28.616714
30
0.0
0
VERTEX
8
CADASTRAL_PARCEL
10
77.234338
20
28.616715
30
0.0
0
VERTEX
8
CADASTRAL_PARCEL
10
77.234339
20
28.616716
30
0.0
0
VERTEX
8
CADASTRAL_PARCEL
10
77.23434
20
28.616717
30
0.0
0
VERTEX
8
CADASTRAL_PARCEL
10
77.234341
20
28.616718
30
0.0
0
VERTEX
8
CADASTRAL_PARCEL
10
77.234342
20
28.616719
30
0.0
0
VERTEX
8
CADASTRAL_PARCEL
10
77.234343
20
28.616719
30
0.0
0
VERTEX
8
CADASTRAL_PARCEL
10
77.234345
20
28.61672
30
0.0
0
VERTEX
8
CADASTRAL_PARCEL
10
77.234346
20
28.61672
30
0.0
0
VERTEX
8
CADASTRAL_PARCEL
10
77.234348
20
28.61672
30
0.0
0
VERTEX
8
CADASTRAL_PARCEL
10
77.234349
20
28.616721
30
0.0
0
VERTEX
8
CADASTRAL_PARCEL
10
77.234351
20
28.616721
30
0.0
0
VERTEX
8
CADASTRAL_PARCEL
10
77.234849
20
28.616712
30
0.0
0
VERTEX
8
CADASTRAL_PARCEL
10
77.234851
20
28.616712
30
0.0
0
VERTEX
8
CADASTRAL_PARCEL
10
77.234852
20
28.616712
30
0.0
0
VERTEX
8
CADASTRAL_PARCEL
10
77.234854
20
28.616712
30
0.0
0
VERTEX
8
CADASTRAL_PARCEL
10
77.234855
20
28.616711
30
0.0
0
VERTEX
8
CADASTRAL_PARCEL
10
77.234856
20
28.616711
30
0.0
0
VERTEX
8
CADASTRAL_PARCEL
10
77.234858
20
28.61671
30
0.0
0
VERTEX
8
CADASTRAL_PARCEL
10
77.234859
20
28.616709
30
0.0
0
VERTEX
8
CADASTRAL_PARCEL
10
77.23486
20
28.616708
30
0.0
0
VERTEX
8
CADASTRAL_PARCEL
10
77.234861
20
28.616707
30
0.0
0
VERTEX
8
CADASTRAL_PARCEL
10
77.234862
20
28.616706
30
0.0
0
VERTEX
8
CADASTRAL_PARCEL
10
77.234862
20
28.616705
30
0.0
0
VERTEX
8
CADASTRAL_PARCEL
10
77.234863
20
28.616704
30
0.0
0
VERTEX
8
CADASTRAL_PARCEL
10
77.234864
20
28.616703
30
0.0
0
VERTEX
8
CADASTRAL_PARCEL
10
77.234864
20
28.616701
30
0.0
0
VERTEX
8
CADASTRAL_PARCEL
10
77.234864
20
28.6167
30
0.0
0
VERTEX
8
CADASTRAL_PARCEL
10
77.234864
20
28.616699
30
0.0
0
VERTEX
8
CADASTRAL_PARCEL
10
77.234857
20
28.616356
30
0.0
0
VERTEX
8
CADASTRAL_PARCEL
10
77.234857
20
28.616355
30
0.0
0
VERTEX
8
CADASTRAL_PARCEL
10
77.234856
20
28.616353
30
0.0
0
VERTEX
8
CADASTRAL_PARCEL
10
77.234856
20
28.616352
30
0.0
0
VERTEX
8
CADASTRAL_PARCEL
10
77.234856
20
28.616351
30
0.0
0
VERTEX
8
CADASTRAL_PARCEL
10
77.234855
20
28.61635
30
0.0
0
VERTEX
8
CADASTRAL_PARCEL
10
77.234854
20
28.616348
30
0.0
0
VERTEX
8
CADASTRAL_PARCEL
10
77.234853
20
28.616347
30
0.0
0
VERTEX
8
CADASTRAL_PARCEL
10
77.234852
20
28.616346
30
0.0
0
VERTEX
8
CADASTRAL_PARCEL
10
77.234851
20
28.616346
30
0.0
0
VERTEX
8
CADASTRAL_PARCEL
10
77.23485
20
28.616345
30
0.0
0
VERTEX
8
CADASTRAL_PARCEL
10
77.234848
20
28.616344
30
0.0
0
VERTEX
8
CADASTRAL_PARCEL
10
77.234847
20
28.616344
30
0.0
0
VERTEX
8
CADASTRAL_PARCEL
10
77.234846
20
28.616343
30
0.0
0
VERTEX
8
CADASTRAL_PARCEL
10
77.234844
20
28.616343
30
0.0
0
VERTEX
8
CADASTRAL_PARCEL
10
77.234843
20
28.616343
30
0.0
0
VERTEX
8
CADASTRAL_PARCEL
10
77.234841
20
28.616343
30
0.0
0
VERTEX
8
CADASTRAL_PARCEL
10
77.234343
20
28.616351
30
0.0
0
VERTEX
8
CADASTRAL_PARCEL
10
77.234341
20
28.616351
30
0.0
0
VERTEX
8
CADASTRAL_PARCEL
10
77.23434
20
28.616351
30
0.0
0
VERTEX
8
CADASTRAL_PARCEL
10
77.234338
20
28.616352
30
0.0
0
VERTEX
8
CADASTRAL_PARCEL
10
77.234337
20
28.616352
30
0.0
0
VERTEX
8
CADASTRAL_PARCEL
10
77.234336
20
28.616353
30
0.0
0
VERTEX
8
CADASTRAL_PARCEL
10
77.234334
20
28.616353
30
0.0
0
VERTEX
8
CADASTRAL_PARCEL
10
77.234333
20
28.616354
30
0.0
0
VERTEX
8
CADASTRAL_PARCEL
10
77.234332
20
28.616355
30
0.0
0
VERTEX
8
CADASTRAL_PARCEL
10
77.234331
20
28.616356
30
0.0
0
VERTEX
8
CADASTRAL_PARCEL
10
77.23433
20
28.616357
30
0.0
0
VERTEX
8
CADASTRAL_PARCEL
10
77.23433
20
28.616358
30
0.0
0
VERTEX
8
CADASTRAL_PARCEL
10
77.234329
20
28.616359
30
0.0
0
VERTEX
8
CADASTRAL_PARCEL
10
77.234328
20
28.616361
30
0.0
0
VERTEX
8
CADASTRAL_PARCEL
10
77.234328
20
28.616362
30
0.0
0
VERTEX
8
CADASTRAL_PARCEL
10
77.234328
20
28.616363
30
0.0
0
VERTEX
8
CADASTRAL_PARCEL
10
77.234328
20
28.616365
30
0.0
0
VERTEX
8
CADASTRAL_PARCEL
10
77.234335
20
28.616707
30
0.0
0
SEQEND
0
POLYLINE
8
CADASTRAL_PARCEL
66
1
70
1
0
VERTEX
8
CADASTRAL_PARCEL
10
77.234848
20
28.616681
30
0.0
0
VERTEX
8
CADASTRAL_PARCEL
10
77.234319
20
28.61669
30
0.0
0
VERTEX
8
CADASTRAL_PARCEL
10
77.234327
20
28.61705
30
0.0
0
VERTEX
8
CADASTRAL_PARCEL
10
77.234856
20
28.617042
30
0.0
0
VERTEX
8
CADASTRAL_PARCEL
10
77.234848
20
28.616681
30
0.0
0
SEQEND
0
POLYLINE
8
CADASTRAL_PARCEL
66
1
70
1
0
VERTEX
8
CADASTRAL_PARCEL
10
77.234849
20
28.616699
30
0.0
0
VERTEX
8
CADASTRAL_PARCEL
10
77.235347
20
28.616691
30
0.0
0
VERTEX
8
CADASTRAL_PARCEL
10
77.23534
20
28.616348
30
0.0
0
VERTEX
8
CADASTRAL_PARCEL
10
77.234842
20
28.616356
30
0.0
0
VERTEX
8
CADASTRAL_PARCEL
10
77.234849
20
28.616699
30
0.0
0
SEQEND
0
POLYLINE
8
CADASTRAL_PARCEL
66
1
70
1
0
VERTEX
8
CADASTRAL_PARCEL
10
77.235347
20
28.616691
30
0.0
0
VERTEX
8
CADASTRAL_PARCEL
10
77.234849
20
28.616699
30
0.0
0
VERTEX
8
CADASTRAL_PARCEL
10
77.234856
20
28.617042
30
0.0
0
VERTEX
8
CADASTRAL_PARCEL
10
77.235354
20
28.617033
30
0.0
0
VERTEX
8
CADASTRAL_PARCEL
10
77.235347
20
28.616691
30
0.0
0
SEQEND
0
POLYLINE
8
CADASTRAL_PARCEL
66
1
70
1
0
VERTEX
8
CADASTRAL_PARCEL
10
77.235838
20
28.61634
30
0.0
0
VERTEX
8
CADASTRAL_PARCEL
10
77.23534
20
28.616348
30
0.0
0
VERTEX
8
CADASTRAL_PARCEL
10
77.235347
20
28.616691
30
0.0
0
VERTEX
8
CADASTRAL_PARCEL
10
77.235845
20
28.616682
30
0.0
0
VERTEX
8
CADASTRAL_PARCEL
10
77.235838
20
28.61634
30
0.0
0
SEQEND
0
POLYLINE
8
CADASTRAL_PARCEL
66
1
70
1
0
VERTEX
8
CADASTRAL_PARCEL
10
77.235827
20
28.616699
30
0.0
0
VERTEX
8
CADASTRAL_PARCEL
10
77.235366
20
28.616707
30
0.0
0
VERTEX
8
CADASTRAL_PARCEL
10
77.235372
20
28.617017
30
0.0
0
VERTEX
8
CADASTRAL_PARCEL
10
77.235834
20
28.617009
30
0.0
0
VERTEX
8
CADASTRAL_PARCEL
10
77.235827
20
28.616699
30
0.0
0
SEQEND
0
POLYLINE
8
CADASTRAL_PARCEL
66
1
70
1
0
VERTEX
8
CADASTRAL_PARCEL
10
77.23214
20
28.616744
30
0.0
0
VERTEX
8
CADASTRAL_PARCEL
10
77.232133
20
28.616401
30
0.0
0
VERTEX
8
CADASTRAL_PARCEL
10
77.231596
20
28.61641
30
0.0
0
VERTEX
8
CADASTRAL_PARCEL
10
77.231603
20
28.616752
30
0.0
0
VERTEX
8
CADASTRAL_PARCEL
10
77.23214
20
28.616744
30
0.0
0
SEQEND
0
POLYLINE
8
CADASTRAL_PARCEL
66
1
70
1
0
VERTEX
8
CADASTRAL_PARCEL
10
77.23214
20
28.616744
30
0.0
0
VERTEX
8
CADASTRAL_PARCEL
10
77.231603
20
28.616752
30
0.0
0
VERTEX
8
CADASTRAL_PARCEL
10
77.231611
20
28.617095
30
0.0
0
VERTEX
8
CADASTRAL_PARCEL
10
77.232147
20
28.617086
30
0.0
0
VERTEX
8
CADASTRAL_PARCEL
10
77.23214
20
28.616744
30
0.0
0
SEQEND
0
POLYLINE
8
CADASTRAL_PARCEL
66
1
70
1
0
VERTEX
8
CADASTRAL_PARCEL
10
77.23214
20
28.616744
30
0.0
0
VERTEX
8
CADASTRAL_PARCEL
10
77.232677
20
28.616735
30
0.0
0
VERTEX
8
CADASTRAL_PARCEL
10
77.232669
20
28.616392
30
0.0
0
VERTEX
8
CADASTRAL_PARCEL
10
77.232133
20
28.616401
30
0.0
0
VERTEX
8
CADASTRAL_PARCEL
10
77.23214
20
28.616744
30
0.0
0
SEQEND
0
POLYLINE
8
CADASTRAL_PARCEL
66
1
70
1
0
VERTEX
8
CADASTRAL_PARCEL
10
77.232676
20
28.616717
30
0.0
0
VERTEX
8
CADASTRAL_PARCEL
10
77.232109
20
28.616726
30
0.0
0
VERTEX
8
CADASTRAL_PARCEL
10
77.232117
20
28.617087
30
0.0
0
VERTEX
8
CADASTRAL_PARCEL
10
77.232684
20
28.617077
30
0.0
0
VERTEX
8
CADASTRAL_PARCEL
10
77.232676
20
28.616717
30
0.0
0
SEQEND
0
POLYLINE
8
CADASTRAL_PARCEL
66
1
70
1
0
VERTEX
8
CADASTRAL_PARCEL
10
77.232661
20
28.616735
30
0.0
0
VERTEX
8
CADASTRAL_PARCEL
10
77.232661
20
28.616736
30
0.0
0
VERTEX
8
CADASTRAL_PARCEL
10
77.232662
20
28.616738
30
0.0
0
VERTEX
8
CADASTRAL_PARCEL
10
77.232662
20
28.616739
30
0.0
0
VERTEX
8
CADASTRAL_PARCEL
10
77.232663
20
28.61674
30
0.0
0
VERTEX
8
CADASTRAL_PARCEL
10
77.232663
20
28.616741
30
0.0
0
VERTEX
8
CADASTRAL_PARCEL
10
77.232664
20
28.616742
30
0.0
0
VERTEX
8
CADASTRAL_PARCEL
10
77.232665
20
28.616744
30
0.0
0
VERTEX
8
CADASTRAL_PARCEL
10
77.232666
20
28.616744
30
0.0
0
VERTEX
8
CADASTRAL_PARCEL
10
77.232667
20
28.616745
30
0.0
0
VERTEX
8
CADASTRAL_PARCEL
10
77.232668
20
28.616746
30
0.0
0
VERTEX
8
CADASTRAL_PARCEL
10
77.23267
20
28.616747
30
0.0
0
VERTEX
8
CADASTRAL_PARCEL
10
77.232671
20
28.616747
30
0.0
0
VERTEX
8
CADASTRAL_PARCEL
10
77.232673
20
28.616748
30
0.0
0
VERTEX
8
CADASTRAL_PARCEL
10
77.232674
20
28.616748
30
0.0
0
VERTEX
8
CADASTRAL_PARCEL
10
77.232675
20
28.616748
30
0.0
0
VERTEX
8
CADASTRAL_PARCEL
10
77.232677
20
28.616748
30
0.0
0
VERTEX
8
CADASTRAL_PARCEL
10
77.233214
20
28.616739
30
0.0
0
VERTEX
8
CADASTRAL_PARCEL
10
77.233215
20
28.616739
30
0.0
0
VERTEX
8
CADASTRAL_PARCEL
10
77.233217
20
28.616739
30
0.0
0
VERTEX
8
CADASTRAL_PARCEL
10
77.233218
20
28.616739
30
0.0
0
VERTEX
8
CADASTRAL_PARCEL
10
77.233219
20
28.616738
30
0.0
0
VERTEX
8
CADASTRAL_PARCEL
10
77.233221
20
28.616738
30
0.0
0
VERTEX
8
CADASTRAL_PARCEL
10
77.233222
20
28.616737
30
0.0
0
VERTEX
8
CADASTRAL_PARCEL
10
77.233223
20
28.616736
30
0.0
0
VERTEX
8
CADASTRAL_PARCEL
10
77.233224
20
28.616735
30
0.0
0
VERTEX
8
CADASTRAL_PARCEL
10
77.233225
20
28.616734
30
0.0
0
VERTEX
8
CADASTRAL_PARCEL
10
77.233226
20
28.616733
30
0.0
0
VERTEX
8
CADASTRAL_PARCEL
10
77.233227
20
28.616732
30
0.0
0
VERTEX
8
CADASTRAL_PARCEL
10
77.233228
20
28.616731
30
0.0
0
VERTEX
8
CADASTRAL_PARCEL
10
77.233228
20
28.61673
30
0.0
0
VERTEX
8
CADASTRAL_PARCEL
10
77.233228
20
28.616728
30
0.0
0
VERTEX
8
CADASTRAL_PARCEL
10
77.233229
20
28.616727
30
0.0
0
VERTEX
8
CADASTRAL_PARCEL
10
77.233229
20
28.616726
30
0.0
0
VERTEX
8
CADASTRAL_PARCEL
10
77.233221
20
28.616383
30
0.0
0
VERTEX
8
CADASTRAL_PARCEL
10
77.233221
20
28.616382
30
0.0
0
VERTEX
8
CADASTRAL_PARCEL
10
77.233221
20
28.61638
30
0.0
0
VERTEX
8
CADASTRAL_PARCEL
10
77.233221
20
28.616379
30
0.0
0
VERTEX
8
CADASTRAL_PARCEL
10
77.23322
20
28.616378
30
0.0
0
VERTEX
8
CADASTRAL_PARCEL
10
77.233219
20
28.616377
30
0.0
0
VERTEX
8
CADASTRAL_PARCEL
10
77.233219
20
28.616375
30
0.0
0
VERTEX
8
CADASTRAL_PARCEL
10
77.233218
20
28.616374
30
0.0
0
VERTEX
8
CADASTRAL_PARCEL
10
77.233217
20
28.616373
30
0.0
0
VERTEX
8
CADASTRAL_PARCEL
10
77.233216
20
28.616373
30
0.0
0
VERTEX
8
CADASTRAL_PARCEL
10
77.233214
20
28.616372
30
0.0
0
VERTEX
8
CADASTRAL_PARCEL
10
77.233213
20
28.616371
30
0.0
0
VERTEX
8
CADASTRAL_PARCEL
10
77.233212
20
28.616371
30
0.0
0
VERTEX
8
CADASTRAL_PARCEL
10
77.23321
20
28.61637
30
0.0
0
VERTEX
8
CADASTRAL_PARCEL
10
77.233209
20
28.61637
30
0.0
0
VERTEX
8
CADASTRAL_PARCEL
10
77.233207
20
28.61637
30
0.0
0
VERTEX
8
CADASTRAL_PARCEL
10
77.233206
20
28.61637
30
0.0
0
VERTEX
8
CADASTRAL_PARCEL
10
77.232669
20
28.616378
30
0.0
0
VERTEX
8
CADASTRAL_PARCEL
10
77.232668
20
28.616379
30
0.0
0
VERTEX
8
CADASTRAL_PARCEL
10
77.232666
20
28.616379
30
0.0
0
VERTEX
8
CADASTRAL_PARCEL
10
77.232665
20
28.616379
30
0.0
0
VERTEX
8
CADASTRAL_PARCEL
10
77.232663
20
28.61638
30
0.0
0
VERTEX
8
CADASTRAL_PARCEL
10
77.232662
20
28.61638
30
0.0
0
VERTEX
8
CADASTRAL_PARCEL
10
77.232661
20
28.616381
30
0.0
0
VERTEX
8
CADASTRAL_PARCEL
10
77.232659
20
28.616382
30
0.0
0
VERTEX
8
CADASTRAL_PARCEL
10
77.232658
20
28.616383
30
0.0
0
VERTEX
8
CADASTRAL_PARCEL
10
77.232657
20
28.616384
30
0.0
0
VERTEX
8
CADASTRAL_PARCEL
10
77.232657
20
28.616385
30
0.0
0
VERTEX
8
CADASTRAL_PARCEL
10
77.232656
20
28.616386
30
0.0
0
VERTEX
8
CADASTRAL_PARCEL
10
77.232655
20
28.616387
30
0.0
0
VERTEX
8
CADASTRAL_PARCEL
10
77.232655
20
28.616388
30
0.0
0
VERTEX
8
CADASTRAL_PARCEL
10
77.232654
20
28.61639
30
0.0
0
VERTEX
8
CADASTRAL_PARCEL
10
77.232654
20
28.616391
30
0.0
0
VERTEX
8
CADASTRAL_PARCEL
10
77.232654
20
28.616392
30
0.0
0
VERTEX
8
CADASTRAL_PARCEL
10
77.232661
20
28.616735
30
0.0
0
SEQEND
0
POLYLINE
8
CADASTRAL_PARCEL
66
1
70
1
0
VERTEX
8
CADASTRAL_PARCEL
10
77.233213
20
28.616726
30
0.0
0
VERTEX
8
CADASTRAL_PARCEL
10
77.232677
20
28.616735
30
0.0
0
VERTEX
8
CADASTRAL_PARCEL
10
77.232684
20
28.617077
30
0.0
0
VERTEX
8
CADASTRAL_PARCEL
10
77.233221
20
28.617069
30
0.0
0
VERTEX
8
CADASTRAL_PARCEL
10
77.233213
20
28.616726
30
0.0
0
SEQEND
0
POLYLINE
8
CADASTRAL_PARCEL
66
1
70
1
0
VERTEX
8
CADASTRAL_PARCEL
10
77.233743
20
28.616374
30
0.0
0
VERTEX
8
CADASTRAL_PARCEL
10
77.233206
20
28.616383
30
0.0
0
VERTEX
8
CADASTRAL_PARCEL
10
77.233213
20
28.616726
30
0.0
0
VERTEX
8
CADASTRAL_PARCEL
10
77.23375
20
28.616717
30
0.0
0
VERTEX
8
CADASTRAL_PARCEL
10
77.233743
20
28.616374
30
0.0
0
SEQEND
0
POLYLINE
8
CADASTRAL_PARCEL
66
1
70
1
0
VERTEX
8
CADASTRAL_PARCEL
10
77.23375
20
28.616717
30
0.0
0
VERTEX
8
CADASTRAL_PARCEL
10
77.233213
20
28.616726
30
0.0
0
VERTEX
8
CADASTRAL_PARCEL
10
77.233221
20
28.617069
30
0.0
0
VERTEX
8
CADASTRAL_PARCEL
10
77.233757
20
28.61706
30
0.0
0
VERTEX
8
CADASTRAL_PARCEL
10
77.23375
20
28.616717
30
0.0
0
SEQEND
0
POLYLINE
8
CADASTRAL_PARCEL
66
1
70
1
0
VERTEX
8
CADASTRAL_PARCEL
10
77.230309
20
28.616774
30
0.0
0
VERTEX
8
CADASTRAL_PARCEL
10
77.230301
20
28.616431
30
0.0
0
VERTEX
8
CADASTRAL_PARCEL
10
77.229705
20
28.616441
30
0.0
0
VERTEX
8
CADASTRAL_PARCEL
10
77.229712
20
28.616784
30
0.0
0
VERTEX
8
CADASTRAL_PARCEL
10
77.230309
20
28.616774
30
0.0
0
SEQEND
0
POLYLINE
8
CADASTRAL_PARCEL
66
1
70
1
0
VERTEX
8
CADASTRAL_PARCEL
10
77.230291
20
28.61679
30
0.0
0
VERTEX
8
CADASTRAL_PARCEL
10
77.229731
20
28.616799
30
0.0
0
VERTEX
8
CADASTRAL_PARCEL
10
77.229738
20
28.61711
30
0.0
0
VERTEX
8
CADASTRAL_PARCEL
10
77.230297
20
28.617101
30
0.0
0
VERTEX
8
CADASTRAL_PARCEL
10
77.230291
20
28.61679
30
0.0
0
SEQEND
0
POLYLINE
8
CADASTRAL_PARCEL
66
1
70
1
0
VERTEX
8
CADASTRAL_PARCEL
10
77.230309
20
28.616774
30
0.0
0
VERTEX
8
CADASTRAL_PARCEL
10
77.230905
20
28.616764
30
0.0
0
VERTEX
8
CADASTRAL_PARCEL
10
77.230898
20
28.616421
30
0.0
0
VERTEX
8
CADASTRAL_PARCEL
10
77.230301
20
28.616431
30
0.0
0
VERTEX
8
CADASTRAL_PARCEL
10
77.230309
20
28.616774
30
0.0
0
SEQEND
0
POLYLINE
8
CADASTRAL_PARCEL
66
1
70
1
0
VERTEX
8
CADASTRAL_PARCEL
10
77.230905
20
28.616746
30
0.0
0
VERTEX
8
CADASTRAL_PARCEL
10
77.230278
20
28.616756
30
0.0
0
VERTEX
8
CADASTRAL_PARCEL
10
77.230285
20
28.617117
30
0.0
0
VERTEX
8
CADASTRAL_PARCEL
10
77.230912
20
28.617107
30
0.0
0
VERTEX
8
CADASTRAL_PARCEL
10
77.230905
20
28.616746
30
0.0
0
SEQEND
0
POLYLINE
8
CADASTRAL_PARCEL
66
1
70
1
0
VERTEX
8
CADASTRAL_PARCEL
10
77.231494
20
28.616411
30
0.0
0
VERTEX
8
CADASTRAL_PARCEL
10
77.230898
20
28.616421
30
0.0
0
VERTEX
8
CADASTRAL_PARCEL
10
77.230905
20
28.616764
30
0.0
0
VERTEX
8
CADASTRAL_PARCEL
10
77.231501
20
28.616754
30
0.0
0
VERTEX
8
CADASTRAL_PARCEL
10
77.231494
20
28.616411
30
0.0
0
SEQEND
0
POLYLINE
8
CADASTRAL_PARCEL
66
1
70
1
0
VERTEX
8
CADASTRAL_PARCEL
10
77.231501
20
28.616754
30
0.0
0
VERTEX
8
CADASTRAL_PARCEL
10
77.230905
20
28.616764
30
0.0
0
VERTEX
8
CADASTRAL_PARCEL
10
77.230912
20
28.617107
30
0.0
0
VERTEX
8
CADASTRAL_PARCEL
10
77.231508
20
28.617097
30
0.0
0
VERTEX
8
CADASTRAL_PARCEL
10
77.231501
20
28.616754
30
0.0
0
SEQEND
0
POLYLINE
8
CADASTRAL_PARCEL
66
1
70
1
0
VERTEX
8
CADASTRAL_PARCEL
10
77.230277
20
28.61529
30
0.0
0
VERTEX
8
CADASTRAL_PARCEL
10
77.230279
20
28.61529
30
0.0
0
VERTEX
8
CADASTRAL_PARCEL
10
77.23028
20
28.61529
30
0.0
0
VERTEX
8
CADASTRAL_PARCEL
10
77.230282
20
28.615289
30
0.0
0
VERTEX
8
CADASTRAL_PARCEL
10
77.230283
20
28.615289
30
0.0
0
VERTEX
8
CADASTRAL_PARCEL
10
77.230284
20
28.615288
30
0.0
0
VERTEX
8
CADASTRAL_PARCEL
10
77.230286
20
28.615288
30
0.0
0
VERTEX
8
CADASTRAL_PARCEL
10
77.230287
20
28.615287
30
0.0
0
VERTEX
8
CADASTRAL_PARCEL
10
77.230288
20
28.615286
30
0.0
0
VERTEX
8
CADASTRAL_PARCEL
10
77.230289
20
28.615285
30
0.0
0
VERTEX
8
CADASTRAL_PARCEL
10
77.23029
20
28.615284
30
0.0
0
VERTEX
8
CADASTRAL_PARCEL
10
77.230291
20
28.615283
30
0.0
0
VERTEX
8
CADASTRAL_PARCEL
10
77.230291
20
28.615281
30
0.0
0
VERTEX
8
CADASTRAL_PARCEL
10
77.230292
20
28.61528
30
0.0
0
VERTEX
8
CADASTRAL_PARCEL
10
77.230292
20
28.615279
30
0.0
0
VERTEX
8
CADASTRAL_PARCEL
10
77.230292
20
28.615278
30
0.0
0
VERTEX
8
CADASTRAL_PARCEL
10
77.230292
20
28.615276
30
0.0
0
VERTEX
8
CADASTRAL_PARCEL
10
77.230285
20
28.614915
30
0.0
0
VERTEX
8
CADASTRAL_PARCEL
10
77.230285
20
28.614914
30
0.0
0
VERTEX
8
CADASTRAL_PARCEL
10
77.230284
20
28.614913
30
0.0
0
VERTEX
8
CADASTRAL_PARCEL
10
77.230284
20
28.614912
30
0.0
0
VERTEX
8
CADASTRAL_PARCEL
10
77.230283
20
28.61491
30
0.0
0
VERTEX
8
CADASTRAL_PARCEL
10
77.230283
20
28.614909
30
0.0
0
VERTEX
8
CADASTRAL_PARCEL
10
77.230282
20
28.614908
30
0.0
0
VERTEX
8
CADASTRAL_PARCEL
10
77.230281
20
28.614907
30
0.0
0
VERTEX
8
CADASTRAL_PARCEL
10
77.23028
20
28.614906
30
0.0
0
VERTEX
8
CADASTRAL_PARCEL
10
77.230279
20
28.614905
30
0.0
0
VERTEX
8
CADASTRAL_PARCEL
10
77.230278
20
28.614904
30
0.0
0
VERTEX
8
CADASTRAL_PARCEL
10
77.230276
20
28.614904
30
0.0
0
VERTEX
8
CADASTRAL_PARCEL
10
77.230275
20
28.614903
30
0.0
0
VERTEX
8
CADASTRAL_PARCEL
10
77.230274
20
28.614903
30
0.0
0
VERTEX
8
CADASTRAL_PARCEL
10
77.230272
20
28.614902
30
0.0
0
VERTEX
8
CADASTRAL_PARCEL
10
77.230271
20
28.614902
30
0.0
0
VERTEX
8
CADASTRAL_PARCEL
10
77.230269
20
28.614902
30
0.0
0
VERTEX
8
CADASTRAL_PARCEL
10
77.229673
20
28.614912
30
0.0
0
VERTEX
8
CADASTRAL_PARCEL
10
77.229671
20
28.614912
30
0.0
0
VERTEX
8
CADASTRAL_PARCEL
10
77.22967
20
28.614912
30
0.0
0
VERTEX
8
CADASTRAL_PARCEL
10
77.229668
20
28.614913
30
0.0
0
VERTEX
8
CADASTRAL_PARCEL
10
77.229667
20
28.614913
30
0.0
0
VERTEX
8
CADASTRAL_PARCEL
10
77.229666
20
28.614914
30
0.0
0
VERTEX
8
CADASTRAL_PARCEL
10
77.229664
20
28.614914
30
0.0
0
VERTEX
8
CADASTRAL_PARCEL
10
77.229663
20
28.614915
30
0.0
0
VERTEX
8
CADASTRAL_PARCEL
10
77.229662
20
28.614916
30
0.0
0
VERTEX
8
CADASTRAL_PARCEL
10
77.229661
20
28.614917
30
0.0
0
VERTEX
8
CADASTRAL_PARCEL
10
77.22966
20
28.614918
30
0.0
0
VERTEX
8
CADASTRAL_PARCEL
10
77.229659
20
28.614919
30
0.0
0
VERTEX
8
CADASTRAL_PARCEL
10
77.229659
20
28.614921
30
0.0
0
VERTEX
8
CADASTRAL_PARCEL
10
77.229658
20
28.614922
30
0.0
0
VERTEX
8
CADASTRAL_PARCEL
10
77.229658
20
28.614923
30
0.0
0
VERTEX
8
CADASTRAL_PARCEL
10
77.229658
20
28.614924
30
0.0
0
VERTEX
8
CADASTRAL_PARCEL
10
77.229658
20
28.614926
30
0.0
0
VERTEX
8
CADASTRAL_PARCEL
10
77.229665
20
28.615287
30
0.0
0
VERTEX
8
CADASTRAL_PARCEL
10
77.229666
20
28.615288
30
0.0
0
VERTEX
8
CADASTRAL_PARCEL
10
77.229666
20
28.615289
30
0.0
0
VERTEX
8
CADASTRAL_PARCEL
10
77.229666
20
28.61529
30
0.0
0
VERTEX
8
CADASTRAL_PARCEL
10
77.229667
20
28.615292
30
0.0
0
VERTEX
8
CADASTRAL_PARCEL
10
77.229667
20
28.615293
30
0.0
0
VERTEX
8
CADASTRAL_PARCEL
10
77.229668
20
28.615294
30
0.0
0
VERTEX
8
CADASTRAL_PARCEL
10
77.229669
20
28.615295
30
0.0
0
VERTEX
8
CADASTRAL_PARCEL
10
77.22967
20
28.615296
30
0.0
0
VERTEX
8
CADASTRAL_PARCEL
10
77.229671
20
28.615297
30
0.0
0
VERTEX
8
CADASTRAL_PARCEL
10
77.229672
20
28.615298
30
0.0
0
VERTEX
8
CADASTRAL_PARCEL
10
77.229674
20
28.615298
30
0.0
0
VERTEX
8
CADASTRAL_PARCEL
10
77.229675
20
28.615299
30
0.0
0
VERTEX
8
CADASTRAL_PARCEL
10
77.229677
20
28.615299
30
0.0
0
VERTEX
8
CADASTRAL_PARCEL
10
77.229678
20
28.6153
30
0.0
0
VERTEX
8
CADASTRAL_PARCEL
10
77.22968
20
28.6153
30
0.0
0
VERTEX
8
CADASTRAL_PARCEL
10
77.229681
20
28.6153
30
0.0
0
VERTEX
8
CADASTRAL_PARCEL
10
77.230277
20
28.61529
30
0.0
0
SEQEND
0
POLYLINE
8
CADASTRAL_PARCEL
66
1
70
1
0
VERTEX
8
CADASTRAL_PARCEL
10
77.230285
20
28.615637
30
0.0
0
VERTEX
8
CADASTRAL_PARCEL
10
77.230277
20
28.615276
30
0.0
0
VERTEX
8
CADASTRAL_PARCEL
10
77.229681
20
28.615286
30
0.0
0
VERTEX
8
CADASTRAL_PARCEL
10
77.229688
20
28.615647
30
0.0
0
VERTEX
8
CADASTRAL_PARCEL
10
77.230285
20
28.615637
30
0.0
0
SEQEND
0
POLYLINE
8
CADASTRAL_PARCEL
66
1
70
1
0
VERTEX
8
CADASTRAL_PARCEL
10
77.230292
20
28.615998
30
0.0
0
VERTEX
8
CADASTRAL_PARCEL
10
77.230285
20
28.615637
30
0.0
0
VERTEX
8
CADASTRAL_PARCEL
10
77.229688
20
28.615647
30
0.0
0
VERTEX
8
CADASTRAL_PARCEL
10
77.229696
20
28.616008
30
0.0
0
VERTEX
8
CADASTRAL_PARCEL
10
77.230292
20
28.615998
30
0.0
0
SEQEND
0
POLYLINE
8
CADASTRAL_PARCEL
66
1
70
1
0
VERTEX
8
CADASTRAL_PARCEL
10
77.230292
20
28.615998
30
0.0
0
VERTEX
8
CADASTRAL_PARCEL
10
77.229696
20
28.616008
30
0.0
0
VERTEX
8
CADASTRAL_PARCEL
10
77.229704
20
28.616369
30
0.0
0
VERTEX
8
CADASTRAL_PARCEL
10
77.2303
20
28.616359
30
0.0
0
VERTEX
8
CADASTRAL_PARCEL
10
77.230292
20
28.615998
30
0.0
0
SEQEND
0
POLYLINE
8
CADASTRAL_PARCEL
66
1
70
1
0
VERTEX
8
CADASTRAL_PARCEL
10
77.230277
20
28.615276
30
0.0
0
VERTEX
8
CADASTRAL_PARCEL
10
77.230873
20
28.615267
30
0.0
0
VERTEX
8
CADASTRAL_PARCEL
10
77.230866
20
28.614906
30
0.0
0
VERTEX
8
CADASTRAL_PARCEL
10
77.230269
20
28.614916
30
0.0
0
VERTEX
8
CADASTRAL_PARCEL
10
77.230277
20
28.615276
30
0.0
0
SEQEND
0
POLYLINE
8
CADASTRAL_PARCEL
66
1
70
1
0
VERTEX
8
CADASTRAL_PARCEL
10
77.230296
20
28.615292
30
0.0
0
VERTEX
8
CADASTRAL_PARCEL
10
77.230303
20
28.615621
30
0.0
0
VERTEX
8
CADASTRAL_PARCEL
10
77.230862
20
28.615612
30
0.0
0
VERTEX
8
CADASTRAL_PARCEL
10
77.230855
20
28.615283
30
0.0
0
VERTEX
8
CADASTRAL_PARCEL
10
77.230296
20
28.615292
30
0.0
0
SEQEND
0
POLYLINE
8
CADASTRAL_PARCEL
66
1
70
1
0
VERTEX
8
CADASTRAL_PARCEL
10
77.230285
20
28.615637
30
0.0
0
VERTEX
8
CADASTRAL_PARCEL
10
77.230292
20
28.615998
30
0.0
0
VERTEX
8
CADASTRAL_PARCEL
10
77.230889
20
28.615988
30
0.0
0
VERTEX
8
CADASTRAL_PARCEL
10
77.230881
20
28.615627
30
0.0
0
VERTEX
8
CADASTRAL_PARCEL
10
77.230285
20
28.615637
30
0.0
0
SEQEND
0
POLYLINE
8
CADASTRAL_PARCEL
66
1
70
1
0
VERTEX
8
CADASTRAL_PARCEL
10
77.230889
20
28.615988
30
0.0
0
VERTEX
8
CADASTRAL_PARCEL
10
77.230292
20
28.615998
30
0.0
0
VERTEX
8
CADASTRAL_PARCEL
10
77.2303
20
28.616359
30
0.0
0
VERTEX
8
CADASTRAL_PARCEL
10
77.230896
20
28.616349
30
0.0
0
VERTEX
8
CADASTRAL_PARCEL
10
77.230889
20
28.615988
30
0.0
0
SEQEND
0
POLYLINE
8
CADASTRAL_PARCEL
66
1
70
1
0
VERTEX
8
CADASTRAL_PARCEL
10
77.231462
20
28.614896
30
0.0
0
VERTEX
8
CADASTRAL_PARCEL
10
77.230866
20
28.614906
30
0.0
0
VERTEX
8
CADASTRAL_PARCEL
10
77.230873
20
28.615267
30
0.0
0
VERTEX
8
CADASTRAL_PARCEL
10
77.23147
20
28.615257
30
0.0
0
VERTEX
8
CADASTRAL_PARCEL
10
77.231462
20
28.614896
30
0.0
0
SEQEND
0
POLYLINE
8
CADASTRAL_PARCEL
66
1
70
1
0
VERTEX
8
CADASTRAL_PARCEL
10
77.23147
20
28.615257
30
0.0
0
VERTEX
8
CADASTRAL_PARCEL
10
77.230873
20
28.615267
30
0.0
0
VERTEX
8
CADASTRAL_PARCEL
10
77.230881
20
28.615627
30
0.0
0
VERTEX
8
CADASTRAL_PARCEL
10
77.231477
20
28.615618
30
0.0
0
VERTEX
8
CADASTRAL_PARCEL
10
77.23147
20
28.615257
30
0.0
0
SEQEND
0
POLYLINE
8
CADASTRAL_PARCEL
66
1
70
1
0
VERTEX
8
CADASTRAL_PARCEL
10
77.231492
20
28.615617
30
0.0
0
VERTEX
8
CADASTRAL_PARCEL
10
77.231492
20
28.615616
30
0.0
0
VERTEX
8
CADASTRAL_PARCEL
10
77.231492
20
28.615615
30
0.0
0
VERTEX
8
CADASTRAL_PARCEL
10
77.231492
20
28.615613
30
0.0
0
VERTEX
8
CADASTRAL_PARCEL
10
77.231491
20
28.615612
30
0.0
0
VERTEX
8
CADASTRAL_PARCEL
10
77.231491
20
28.615611
30
0.0
0
VERTEX
8
CADASTRAL_PARCEL
10
77.23149
20
28.61561
30
0.0
0
VERTEX
8
CADASTRAL_PARCEL
10
77.231489
20
28.615609
30
0.0
0
VERTEX
8
CADASTRAL_PARCEL
10
77.231488
20
28.615608
30
0.0
0
VERTEX
8
CADASTRAL_PARCEL
10
77.231487
20
28.615607
30
0.0
0
VERTEX
8
CADASTRAL_PARCEL
10
77.231485
20
28.615606
30
0.0
0
VERTEX
8
CADASTRAL_PARCEL
10
77.231484
20
28.615606
30
0.0
0
VERTEX
8
CADASTRAL_PARCEL
10
77.231483
20
28.615605
30
0.0
0
VERTEX
8
CADASTRAL_PARCEL
10
77.231481
20
28.615605
30
0.0
0
VERTEX
8
CADASTRAL_PARCEL
10
77.23148
20
28.615604
30
0.0
0
VERTEX
8
CADASTRAL_PARCEL
10
77.231478
20
28.615604
30
0.0
0
VERTEX
8
CADASTRAL_PARCEL
10
77.231477
20
28.615604
30
0.0
0
VERTEX
8
CADASTRAL_PARCEL
10
77.230881
20
28.615614
30
0.0
0
VERTEX
8
CADASTRAL_PARCEL
10
77.230879
20
28.615614
30
0.0
0
VERTEX
8
CADASTRAL_PARCEL
10
77.230878
20
28.615614
30
0.0
0
VERTEX
8
CADASTRAL_PARCEL
10
77.230876
20
28.615615
30
0.0
0
VERTEX
8
CADASTRAL_PARCEL
10
77.230875
20
28.615615
30
0.0
0
VERTEX
8
CADASTRAL_PARCEL
10
77.230873
20
28.615616
30
0.0
0
VERTEX
8
CADASTRAL_PARCEL
10
77.230872
20
28.615616
30
0.0
0
VERTEX
8
CADASTRAL_PARCEL
10
77.230871
20
28.615617
30
0.0
0
VERTEX
8
CADASTRAL_PARCEL
10
77.23087
20
28.615618
30
0.0
0
VERTEX
8
CADASTRAL_PARCEL
10
77.230869
20
28.615619
30
0.0
0
VERTEX
8
CADASTRAL_PARCEL
10
77.230868
20
28.61562
30
0.0
0
VERTEX
8
CADASTRAL_PARCEL
10
77.230867
20
28.615621
30
0.0
0
VERTEX
8
CADASTRAL_PARCEL
10
77.230867
20
28.615622
30
0.0
0
VERTEX
8
CADASTRAL_PARCEL
10
77.230866
20
28.615624
30
0.0
0
VERTEX
8
CADASTRAL_PARCEL
10
77.230866
20
28.615625
30
0.0
0
VERTEX
8
CADASTRAL_PARCEL
10
77.230866
20
28.615626
30
0.0
0
VERTEX
8
CADASTRAL_PARCEL
10
77.230866
20
28.615628
30
0.0
0
VERTEX
8
CADASTRAL_PARCEL
10
77.230873
20
28.615988
30
0.0
0
VERTEX
8
CADASTRAL_PARCEL
10
77.230873
20
28.61599
30
0.0
0
VERTEX
8
CADASTRAL_PARCEL
10
77.230874
20
28.615991
30
0.0
0
VERTEX
8
CADASTRAL_PARCEL
10
77.230874
20
28.615992
30
0.0
0
VERTEX
8
CADASTRAL_PARCEL
10
77.230874
20
28.615994
30
0.0
0
VERTEX
8
CADASTRAL_PARCEL
10
77.230875
20
28.615995
30
0.0
0
VERTEX
8
CADASTRAL_PARCEL
10
77.230876
20
28.615996
30
0.0
0
VERTEX
8
CADASTRAL_PARCEL
10
77.230877
20
28.615997
30
0.0
0
VERTEX
8
CADASTRAL_PARCEL
10
77.230878
20
28.615998
30
0.0
0
VERTEX
8
CADASTRAL_PARCEL
10
77.230879
20
28.615999
30
0.0
0
VERTEX
8
CADASTRAL_PARCEL
10
77.23088
20
28.616
30
0.0
0
VERTEX
8
CADASTRAL_PARCEL
10
77.230882
20
28.616
30
0.0
0
VERTEX
8
CADASTRAL_PARCEL
10
77.230883
20
28.616001
30
0.0
0
VERTEX
8
CADASTRAL_PARCEL
10
77.230884
20
28.616001
30
0.0
0
VERTEX
8
CADASTRAL_PARCEL
10
77.230886
20
28.616002
30
0.0
0
VERTEX
8
CADASTRAL_PARCEL
10
77.230887
20
28.616002
30
0.0
0
VERTEX
8
CADASTRAL_PARCEL
10
77.230889
20
28.616002
30
0.0
0
VERTEX
8
CADASTRAL_PARCEL
10
77.231485
20
28.615992
30
0.0
0
VERTEX
8
CADASTRAL_PARCEL
10
77.231487
20
28.615992
30
0.0
0
VERTEX
8
CADASTRAL_PARCEL
10
77.231488
20
28.615992
30
0.0
0
VERTEX
8
CADASTRAL_PARCEL
10
77.23149
20
28.615991
30
0.0
0
VERTEX
8
CADASTRAL_PARCEL
10
77.231491
20
28.615991
30
0.0
0
VERTEX
8
CADASTRAL_PARCEL
10
77.231492
20
28.61599
30
0.0
0
VERTEX
8
CADASTRAL_PARCEL
10
77.231494
20
28.61599
30
0.0
0
VERTEX
8
CADASTRAL_PARCEL
10
77.231495
20
28.615989
30
0.0
0
VERTEX
8
CADASTRAL_PARCEL
10
77.231496
20
28.615988
30
0.0
0
VERTEX
8
CADASTRAL_PARCEL
10
77.231497
20
28.615987
30
0.0
0
VERTEX
8
CADASTRAL_PARCEL
10
77.231498
20
28.615986
30
0.0
0
VERTEX
8
CADASTRAL_PARCEL
10
77.231498
20
28.615985
30
0.0
0
VERTEX
8
CADASTRAL_PARCEL
10
77.231499
20
28.615983
30
0.0
0
VERTEX
8
CADASTRAL_PARCEL
10
77.2315
20
28.615982
30
0.0
0
VERTEX
8
CADASTRAL_PARCEL
10
77.2315
20
28.615981
30
0.0
0
VERTEX
8
CADASTRAL_PARCEL
10
77.2315
20
28.615979
30
0.0
0
VERTEX
8
CADASTRAL_PARCEL
10
77.2315
20
28.615978
30
0.0
0
VERTEX
8
CADASTRAL_PARCEL
10
77.231492
20
28.615617
30
0.0
0
SEQEND
0
POLYLINE
8
CADASTRAL_PARCEL
66
1
70
1
0
VERTEX
8
CADASTRAL_PARCEL
10
77.231485
20
28.615978
30
0.0
0
VERTEX
8
CADASTRAL_PARCEL
10
77.230889
20
28.615988
30
0.0
0
VERTEX
8
CADASTRAL_PARCEL
10
77.230896
20
28.616349
30
0.0
0
VERTEX
8
CADASTRAL_PARCEL
10
77.231492
20
28.616339
30
0.0
0
VERTEX
8
CADASTRAL_PARCEL
10
77.231485
20
28.615978
30
0.0
0
SEQEND
0
POLYLINE
8
CADASTRAL_PARCEL
66
1
70
1
0
VERTEX
8
CADASTRAL_PARCEL
10
77.230238
20
28.613436
30
0.0
0
VERTEX
8
CADASTRAL_PARCEL
10
77.230231
20
28.613094
30
0.0
0
VERTEX
8
CADASTRAL_PARCEL
10
77.229635
20
28.613104
30
0.0
0
VERTEX
8
CADASTRAL_PARCEL
10
77.229642
20
28.613446
30
0.0
0
VERTEX
8
CADASTRAL_PARCEL
10
77.230238
20
28.613436
30
0.0
0
SEQEND
0
POLYLINE
8
CADASTRAL_PARCEL
66
1
70
1
0
VERTEX
8
CADASTRAL_PARCEL
10
77.230245
20
28.613779
30
0.0
0
VERTEX
8
CADASTRAL_PARCEL
10
77.230238
20
28.613418
30
0.0
0
VERTEX
8
CADASTRAL_PARCEL
10
77.229641
20
28.613428
30
0.0
0
VERTEX
8
CADASTRAL_PARCEL
10
77.229649
20
28.613789
30
0.0
0
VERTEX
8
CADASTRAL_PARCEL
10
77.230245
20
28.613779
30
0.0
0
SEQEND
0
POLYLINE
8
CADASTRAL_PARCEL
66
1
70
1
0
VERTEX
8
CADASTRAL_PARCEL
10
77.230253
20
28.614122
30
0.0
0
VERTEX
8
CADASTRAL_PARCEL
10
77.230245
20
28.613779
30
0.0
0
VERTEX
8
CADASTRAL_PARCEL
10
77.229649
20
28.613789
30
0.0
0
VERTEX
8
CADASTRAL_PARCEL
10
77.229656
20
28.614132
30
0.0
0
VERTEX
8
CADASTRAL_PARCEL
10
77.230253
20
28.614122
30
0.0
0
SEQEND
0
POLYLINE
8
CADASTRAL_PARCEL
66
1
70
1
0
VERTEX
8
CADASTRAL_PARCEL
10
77.230241
20
28.614449
30
0.0
0
VERTEX
8
CADASTRAL_PARCEL
10
77.230235
20
28.614138
30
0.0
0
VERTEX
8
CADASTRAL_PARCEL
10
77.229675
20
28.614148
30
0.0
0
VERTEX
8
CADASTRAL_PARCEL
10
77.229682
20
28.614458
30
0.0
0
VERTEX
8
CADASTRAL_PARCEL
10
77.230241
20
28.614449
30
0.0
0
SEQEND
0
POLYLINE
8
CADASTRAL_PARCEL
66
1
70
1
0
VERTEX
8
CADASTRAL_PARCEL
10
77.23026
20
28.614465
30
0.0
0
VERTEX
8
CADASTRAL_PARCEL
10
77.229664
20
28.614475
30
0.0
0
VERTEX
8
CADASTRAL_PARCEL
10
77.229671
20
28.614817
30
0.0
0
VERTEX
8
CADASTRAL_PARCEL
10
77.230267
20
28.614807
30
0.0
0
VERTEX
8
CADASTRAL_PARCEL
10
77.23026
20
28.614465
30
0.0
0
SEQEND
0
POLYLINE
8
CADASTRAL_PARCEL
66
1
70
1
0
VERTEX
8
CADASTRAL_PARCEL
10
77.230238
20
28.613436
30
0.0
0
VERTEX
8
CADASTRAL_PARCEL
10
77.230834
20
28.613427
30
0.0
0
VERTEX
8
CADASTRAL_PARCEL
10
77.230827
20
28.613084
30
0.0
0
VERTEX
8
CADASTRAL_PARCEL
10
77.230231
20
28.613094
30
0.0
0
VERTEX
8
CADASTRAL_PARCEL
10
77.230238
20
28.613436
30
0.0
0
SEQEND
0
POLYLINE
8
CADASTRAL_PARCEL
66
1
70
1
0
VERTEX
8
CADASTRAL_PARCEL
10
77.230238
20
28.613436
30
0.0
0
VERTEX
8
CADASTRAL_PARCEL
10
77.230245
20
28.613779
30
0.0
0
VERTEX
8
CADASTRAL_PARCEL
10
77.230842
20
28.613769
30
0.0
0
VERTEX
8
CADASTRAL_PARCEL
10
77.230834
20
28.613427
30
0.0
0
VERTEX
8
CADASTRAL_PARCEL
10
77.230238
20
28.613436
30
0.0
0
SEQEND
0
POLYLINE
8
CADASTRAL_PARCEL
66
1
70
1
0
VERTEX
8
CADASTRAL_PARCEL
10
77.230245
20
28.613779
30
0.0
0
VERTEX
8
CADASTRAL_PARCEL
10
77.230253
20
28.614122
30
0.0
0
VERTEX
8
CADASTRAL_PARCEL
10
77.230849
20
28.614112
30
0.0
0
VERTEX
8
CADASTRAL_PARCEL
10
77.230842
20
28.613769
30
0.0
0
VERTEX
8
CADASTRAL_PARCEL
10
77.230245
20
28.613779
30
0.0
0
SEQEND
0
POLYLINE
8
CADASTRAL_PARCEL
66
1
70
1
0
VERTEX
8
CADASTRAL_PARCEL
10
77.230252
20
28.614108
30
0.0
0
VERTEX
8
CADASTRAL_PARCEL
10
77.230251
20
28.614109
30
0.0
0
VERTEX
8
CADASTRAL_PARCEL
10
77.230249
20
28.614109
30
0.0
0
VERTEX
8
CADASTRAL_PARCEL
10
77.230248
20
28.614109
30
0.0
0
VERTEX
8
CADASTRAL_PARCEL
10
77.230246
20
28.61411
30
0.0
0
VERTEX
8
CADASTRAL_PARCEL
10
77.230245
20
28.61411
30
0.0
0
VERTEX
8
CADASTRAL_PARCEL
10
77.230244
20
28.614111
30
0.0
0
VERTEX
8
CADASTRAL_PARCEL
10
77.230243
20
28.614112
30
0.0
0
VERTEX
8
CADASTRAL_PARCEL
10
77.230242
20
28.614113
30
0.0
0
VERTEX
8
CADASTRAL_PARCEL
10
77.230241
20
28.614114
30
0.0
0
VERTEX
8
CADASTRAL_PARCEL
10
77.23024
20
28.614115
30
0.0
0
VERTEX
8
CADASTRAL_PARCEL
10
77.230239
20
28.614116
30
0.0
0
VERTEX
8
CADASTRAL_PARCEL
10
77.230238
20
28.614117
30
0.0
0
VERTEX
8
CADASTRAL_PARCEL
10
77.230238
20
28.614118
30
0.0
0
VERTEX
8
CADASTRAL_PARCEL
10
77.230238
20
28.61412
30
0.0
0
VERTEX
8
CADASTRAL_PARCEL
10
77.230237
20
28.614121
30
0.0
0
VERTEX
8
CADASTRAL_PARCEL
10
77.230237
20
28.614122
30
0.0
0
VERTEX
8
CADASTRAL_PARCEL
10
77.230245
20
28.614465
30
0.0
0
VERTEX
8
CADASTRAL_PARCEL
10
77.230245
20
28.614466
30
0.0
0
VERTEX
8
CADASTRAL_PARCEL
10
77.230245
20
28.614468
30
0.0
0
VERTEX
8
CADASTRAL_PARCEL
10
77.230245
20
28.614469
30
0.0
0
VERTEX
8
CADASTRAL_PARCEL
10
77.230246
20
28.61447
30
0.0
0
VERTEX
8
CADASTRAL_PARCEL
10
77.230246
20
28.614471
30
0.0
0
VERTEX
8
CADASTRAL_PARCEL
10
77.230247
20
28.614472
30
0.0
0
VERTEX
8
CADASTRAL_PARCEL
10
77.230248
20
28.614473
30
0.0
0
VERTEX
8
CADASTRAL_PARCEL
10
77.230249
20
28.614474
30
0.0
0
VERTEX
8
CADASTRAL_PARCEL
10
77.23025
20
28.614475
30
0.0
0
VERTEX
8
CADASTRAL_PARCEL
10
77.230252
20
28.614476
30
0.0
0
VERTEX
8
CADASTRAL_PARCEL
10
77.230253
20
28.614477
30
0.0
0
VERTEX
8
CADASTRAL_PARCEL
10
77.230254
20
28.614477
30
0.0
0
VERTEX
8
CADASTRAL_PARCEL
10
77.230256
20
28.614478
30
0.0
0
VERTEX
8
CADASTRAL_PARCEL
10
77.230257
20
28.614478
30
0.0
0
VERTEX
8
CADASTRAL_PARCEL
10
77.230259
20
28.614478
30
0.0
0
VERTEX
8
CADASTRAL_PARCEL
10
77.23026
20
28.614478
30
0.0
0
VERTEX
8
CADASTRAL_PARCEL
10
77.230856
20
28.614468
30
0.0
0
VERTEX
8
CADASTRAL_PARCEL
10
77.230858
20
28.614468
30
0.0
0
VERTEX
8
CADASTRAL_PARCEL
10
77.230859
20
28.614468
30
0.0
0
VERTEX
8
CADASTRAL_PARCEL
10
77.230861
20
28.614468
30
0.0
0
VERTEX
8
CADASTRAL_PARCEL
10
77.230862
20
28.614467
30
0.0
0
VERTEX
8
CADASTRAL_PARCEL
10
77.230864
20
28.614467
30
0.0
0
VERTEX
8
CADASTRAL_PARCEL
10
77.230865
20
28.614466
30
0.0
0
VERTEX
8
CADASTRAL_PARCEL
10
77.230866
20
28.614465
30
0.0
0
VERTEX
8
CADASTRAL_PARCEL
10
77.230867
20
28.614464
30
0.0
0
VERTEX
8
CADASTRAL_PARCEL
10
77.230868
20
28.614463
30
0.0
0
VERTEX
8
CADASTRAL_PARCEL
10
77.230869
20
28.614462
30
0.0
0
VERTEX
8
CADASTRAL_PARCEL
10
77.23087
20
28.614461
30
0.0
0
VERTEX
8
CADASTRAL_PARCEL
10
77.23087
20
28.61446
30
0.0
0
VERTEX
8
CADASTRAL_PARCEL
10
77.230871
20
28.614459
30
0.0
0
VERTEX
8
CADASTRAL_PARCEL
10
77.230871
20
28.614457
30
0.0
0
VERTEX
8
CADASTRAL_PARCEL
10
77.230871
20
28.614456
30
0.0
0
VERTEX
8
CADASTRAL_PARCEL
10
77.230871
20
28.614455
30
0.0
0
VERTEX
8
CADASTRAL_PARCEL
10
77.230864
20
28.614112
30
0.0
0
VERTEX
8
CADASTRAL_PARCEL
10
77.230864
20
28.614111
30
0.0
0
VERTEX
8
CADASTRAL_PARCEL
10
77.230864
20
28.614109
30
0.0
0
VERTEX
8
CADASTRAL_PARCEL
10
77.230863
20
28.614108
30
0.0
0
VERTEX
8
CADASTRAL_PARCEL
10
77.230863
20
28.614107
30
0.0
0
VERTEX
8
CADASTRAL_PARCEL
10
77.230862
20
28.614106
30
0.0
0
VERTEX
8
CADASTRAL_PARCEL
10
77.230861
20
28.614104
30
0.0
0
VERTEX
8
CADASTRAL_PARCEL
10
77.230861
20
28.614103
30
0.0
0
VERTEX
8
CADASTRAL_PARCEL
10
77.230859
20
28.614102
30
0.0
0
VERTEX
8
CADASTRAL_PARCEL
10
77.230858
20
28.614102
30
0.0
0
VERTEX
8
CADASTRAL_PARCEL
10
77.230857
20
28.614101
30
0.0
0
VERTEX
8
CADASTRAL_PARCEL
10
77.230856
20
28.6141
30
0.0
0
VERTEX
8
CADASTRAL_PARCEL
10
77.230854
20
28.6141
30
0.0
0
VERTEX
8
CADASTRAL_PARCEL
10
77.230853
20
28.614099
30
0.0
0
VERTEX
8
CADASTRAL_PARCEL
10
77.230852
20
28.614099
30
0.0
0
VERTEX
8
CADASTRAL_PARCEL
10
77.23085
20
28.614099
30
0.0
0
VERTEX
8
CADASTRAL_PARCEL
10
77.230849
20
28.614099
30
0.0
0
VERTEX
8
CADASTRAL_PARCEL
10
77.230252
20
28.614108
30
0.0
0
SEQEND
0
POLYLINE
8
CADASTRAL_PARCEL
66
1
70
1
0
VERTEX
8
CADASTRAL_PARCEL
10
77.230229
20
28.614447
30
0.0
0
VERTEX
8
CADASTRAL_PARCEL
10
77.230236
20
28.614808
30
0.0
0
VERTEX
8
CADASTRAL_PARCEL
10
77.230863
20
28.614798
30
0.0
0
VERTEX
8
CADASTRAL_PARCEL
10
77.230856
20
28.614437
30
0.0
0
VERTEX
8
CADASTRAL_PARCEL
10
77.230229
20
28.614447
30
0.0
0
SEQEND
0
POLYLINE
8
CADASTRAL_PARCEL
66
1
70
1
0
VERTEX
8
CADASTRAL_PARCEL
10
77.231423
20
28.613074
30
0.0
0
VERTEX
8
CADASTRAL_PARCEL
10
77.230827
20
28.613084
30
0.0
0
VERTEX
8
CADASTRAL_PARCEL
10
77.230834
20
28.613427
30
0.0
0
VERTEX
8
CADASTRAL_PARCEL
10
77.231431
20
28.613417
30
0.0
0
VERTEX
8
CADASTRAL_PARCEL
10
77.231423
20
28.613074
30
0.0
0
SEQEND
0
POLYLINE
8
CADASTRAL_PARCEL
66
1
70
1
0
VERTEX
8
CADASTRAL_PARCEL
10
77.231431
20
28.613417
30
0.0
0
VERTEX
8
CADASTRAL_PARCEL
10
77.230834
20
28.613427
30
0.0
0
VERTEX
8
CADASTRAL_PARCEL
10
77.230842
20
28.613769
30
0.0
0
VERTEX
8
CADASTRAL_PARCEL
10
77.231438
20
28.61376
30
0.0
0
VERTEX
8
CADASTRAL_PARCEL
10
77.231431
20
28.613417
30
0.0
0
SEQEND
0
POLYLINE
8
CADASTRAL_PARCEL
66
1
70
1
0
VERTEX
8
CADASTRAL_PARCEL
10
77.231438
20
28.61376
30
0.0
0
VERTEX
8
CADASTRAL_PARCEL
10
77.230842
20
28.613769
30
0.0
0
VERTEX
8
CADASTRAL_PARCEL
10
77.230849
20
28.614112
30
0.0
0
VERTEX
8
CADASTRAL_PARCEL
10
77.231445
20
28.614102
30
0.0
0
VERTEX
8
CADASTRAL_PARCEL
10
77.231438
20
28.61376
30
0.0
0
SEQEND
0
POLYLINE
8
CADASTRAL_PARCEL
66
1
70
1
0
VERTEX
8
CADASTRAL_PARCEL
10
77.231427
20
28.614119
30
0.0
0
VERTEX
8
CADASTRAL_PARCEL
10
77.230868
20
28.614128
30
0.0
0
VERTEX
8
CADASTRAL_PARCEL
10
77.230874
20
28.614438
30
0.0
0
VERTEX
8
CADASTRAL_PARCEL
10
77.231434
20
28.614429
30
0.0
0
VERTEX
8
CADASTRAL_PARCEL
10
77.231427
20
28.614119
30
0.0
0
SEQEND
0
POLYLINE
8
CADASTRAL_PARCEL
66
1
70
1
0
VERTEX
8
CADASTRAL_PARCEL
10
77.231452
20
28.614445
30
0.0
0
VERTEX
8
CADASTRAL_PARCEL
10
77.230856
20
28.614455
30
0.0
0
VERTEX
8
CADASTRAL_PARCEL
10
77.230863
20
28.614798
30
0.0
0
VERTEX
8
CADASTRAL_PARCEL
10
77.23146
20
28.614788
30
0.0
0
VERTEX
8
CADASTRAL_PARCEL
10
77.231452
20
28.614445
30
0.0
0
SEQEND
0
POLYLINE
8
CADASTRAL_PARCEL
66
1
70
1
0
VERTEX
8
CADASTRAL_PARCEL
10
77.230208
20
28.612034
30
0.0
0
VERTEX
8
CADASTRAL_PARCEL
10
77.230202
20
28.611705
30
0.0
0
VERTEX
8
CADASTRAL_PARCEL
10
77.229605
20
28.611715
30
0.0
0
VERTEX
8
CADASTRAL_PARCEL
10
77.229612
20
28.612044
30
0.0
0
VERTEX
8
CADASTRAL_PARCEL
10
77.230208
20
28.612034
30
0.0
0
SEQEND
0
POLYLINE
8
CADASTRAL_PARCEL
66
1
70
1
0
VERTEX
8
CADASTRAL_PARCEL
10
77.230215
20
28.612363
30
0.0
0
VERTEX
8
CADASTRAL_PARCEL
10
77.230208
20
28.612034
30
0.0
0
VERTEX
8
CADASTRAL_PARCEL
10
77.229612
20
28.612044
30
0.0
0
VERTEX
8
CADASTRAL_PARCEL
10
77.229619
20
28.612373
30
0.0
0
VERTEX
8
CADASTRAL_PARCEL
10
77.230215
20
28.612363
30
0.0
0
SEQEND
0
POLYLINE
8
CADASTRAL_PARCEL
66
1
70
1
0
VERTEX
8
CADASTRAL_PARCEL
10
77.230222
20
28.612692
30
0.0
0
VERTEX
8
CADASTRAL_PARCEL
10
77.230215
20
28.612345
30
0.0
0
VERTEX
8
CADASTRAL_PARCEL
10
77.229619
20
28.612355
30
0.0
0
VERTEX
8
CADASTRAL_PARCEL
10
77.229626
20
28.612702
30
0.0
0
VERTEX
8
CADASTRAL_PARCEL
10
77.230222
20
28.612692
30
0.0
0
SEQEND
0
POLYLINE
8
CADASTRAL_PARCEL
66
1
70
1
0
VERTEX
8
CADASTRAL_PARCEL
10
77.230238
20
28.612692
30
0.0
0
VERTEX
8
CADASTRAL_PARCEL
10
77.230238
20
28.612691
30
0.0
0
VERTEX
8
CADASTRAL_PARCEL
10
77.230237
20
28.612689
30
0.0
0
VERTEX
8
CADASTRAL_PARCEL
10
77.230237
20
28.612688
30
0.0
0
VERTEX
8
CADASTRAL_PARCEL
10
77.230236
20
28.612687
30
0.0
0
VERTEX
8
CADASTRAL_PARCEL
10
77.230236
20
28.612686
30
0.0
0
VERTEX
8
CADASTRAL_PARCEL
10
77.230235
20
28.612685
30
0.0
0
VERTEX
8
CADASTRAL_PARCEL
10
77.230234
20
28.612684
30
0.0
0
VERTEX
8
CADASTRAL_PARCEL
10
77.230233
20
28.612683
30
0.0
0
VERTEX
8
CADASTRAL_PARCEL
10
77.230232
20
28.612682
30
0.0
0
VERTEX
8
CADASTRAL_PARCEL
10
77.230231
20
28.612681
30
0.0
0
VERTEX
8
CADASTRAL_PARCEL
10
77.230229
20
28.61268
30
0.0
0
VERTEX
8
CADASTRAL_PARCEL
10
77.230228
20
28.61268
30
0.0
0
VERTEX
8
CADASTRAL_PARCEL
10
77.230227
20
28.612679
30
0.0
0
VERTEX
8
CADASTRAL_PARCEL
10
77.230225
20
28.612679
30
0.0
0
VERTEX
8
CADASTRAL_PARCEL
10
77.230224
20
28.612679
30
0.0
0
VERTEX
8
CADASTRAL_PARCEL
10
77.230222
20
28.612679
30
0.0
0
VERTEX
8
CADASTRAL_PARCEL
10
77.229626
20
28.612689
30
0.0
0
VERTEX
8
CADASTRAL_PARCEL
10
77.229624
20
28.612689
30
0.0
0
VERTEX
8
CADASTRAL_PARCEL
10
77.229623
20
28.612689
30
0.0
0
VERTEX
8
CADASTRAL_PARCEL
10
77.229621
20
28.612689
30
0.0
0
VERTEX
8
CADASTRAL_PARCEL
10
77.22962
20
28.61269
30
0.0
0
VERTEX
8
CADASTRAL_PARCEL
10
77.229619
20
28.61269
30
0.0
0
VERTEX
8
CADASTRAL_PARCEL
10
77.229617
20
28.612691
30
0.0
0
VERTEX
8
CADASTRAL_PARCEL
10
77.229616
20
28.612692
30
0.0
0
VERTEX
8
CADASTRAL_PARCEL
10
77.229615
20
28.612693
30
0.0
0
VERTEX
8
CADASTRAL_PARCEL
10
77.229614
20
28.612694
30
0.0
0
VERTEX
8
CADASTRAL_PARCEL
10
77.229613
20
28.612695
30
0.0
0
VERTEX
8
CADASTRAL_PARCEL
10
77.229612
20
28.612696
30
0.0
0
VERTEX
8
CADASTRAL_PARCEL
10
77.229612
20
28.612697
30
0.0
0
VERTEX
8
CADASTRAL_PARCEL
10
77.229611
20
28.612698
30
0.0
0
VERTEX
8
CADASTRAL_PARCEL
10
77.229611
20
28.6127
30
0.0
0
VERTEX
8
CADASTRAL_PARCEL
10
77.229611
20
28.612701
30
0.0
0
VERTEX
8
CADASTRAL_PARCEL
10
77.229611
20
28.612702
30
0.0
0
VERTEX
8
CADASTRAL_PARCEL
10
77.229618
20
28.613032
30
0.0
0
VERTEX
8
CADASTRAL_PARCEL
10
77.229618
20
28.613033
30
0.0
0
VERTEX
8
CADASTRAL_PARCEL
10
77.229618
20
28.613034
30
0.0
0
VERTEX
8
CADASTRAL_PARCEL
10
77.229619
20
28.613036
30
0.0
0
VERTEX
8
CADASTRAL_PARCEL
10
77.229619
20
28.613037
30
0.0
0
VERTEX
8
CADASTRAL_PARCEL
10
77.22962
20
28.613038
30
0.0
0
VERTEX
8
CADASTRAL_PARCEL
10
77.229621
20
28.613039
30
0.0
0
VERTEX
8
CADASTRAL_PARCEL
10
77.229621
20
28.61304
30
0.0
0
VERTEX
8
CADASTRAL_PARCEL
10
77.229622
20
28.613041
30
0.0
0
VERTEX
8
CADASTRAL_PARCEL
10
77.229624
20
28.613042
30
0.0
0
VERTEX
8
CADASTRAL_PARCEL
10
77.229625
20
28.613043
30
0.0
0
VERTEX
8
CADASTRAL_PARCEL
10
77.229626
20
28.613043
30
0.0
0
VERTEX
8
CADASTRAL_PARCEL
10
77.229628
20
28.613044
30
0.0
0
VERTEX
8
CADASTRAL_PARCEL
10
77.229629
20
28.613044
30
0.0
0
VERTEX
8
CADASTRAL_PARCEL
10
77.22963
20
28.613045
30
0.0
0
VERTEX
8
CADASTRAL_PARCEL
10
77.229632
20
28.613045
30
0.0
0
VERTEX
8
CADASTRAL_PARCEL
10
77.229633
20
28.613045
30
0.0
0
VERTEX
8
CADASTRAL_PARCEL
10
77.23023
20
28.613035
30
0.0
0
VERTEX
8
CADASTRAL_PARCEL
10
77.230231
20
28.613035
30
0.0
0
VERTEX
8
CADASTRAL_PARCEL
10
77.230233
20
28.613035
30
0.0
0
VERTEX
8
CADASTRAL_PARCEL
10
77.230234
20
28.613034
30
0.0
0
VERTEX
8
CADASTRAL_PARCEL
10
77.230235
20
28.613034
30
0.0
0
VERTEX
8
CADASTRAL_PARCEL
10
77.230237
20
28.613033
30
0.0
0
VERTEX
8
CADASTRAL_PARCEL
10
77.230238
20
28.613033
30
0.0
0
VERTEX
8
CADASTRAL_PARCEL
10
77.230239
20
28.613032
30
0.0
0
VERTEX
8
CADASTRAL_PARCEL
10
77.23024
20
28.613031
30
0.0
0
VERTEX
8
CADASTRAL_PARCEL
10
77.230241
20
28.61303
30
0.0
0
VERTEX
8
CADASTRAL_PARCEL
10
77.230242
20
28.613029
30
0.0
0
VERTEX
8
CADASTRAL_PARCEL
10
77.230243
20
28.613028
30
0.0
0
VERTEX
8
CADASTRAL_PARCEL
10
77.230244
20
28.613027
30
0.0
0
VERTEX
8
CADASTRAL_PARCEL
10
77.230244
20
28.613025
30
0.0
0
VERTEX
8
CADASTRAL_PARCEL
10
77.230244
20
28.613024
30
0.0
0
VERTEX
8
CADASTRAL_PARCEL
10
77.230245
20
28.613023
30
0.0
0
VERTEX
8
CADASTRAL_PARCEL
10
77.230245
20
28.613021
30
0.0
0
VERTEX
8
CADASTRAL_PARCEL
10
77.230238
20
28.612692
30
0.0
0
SEQEND
0
POLYLINE
8
CADASTRAL_PARCEL
66
1
70
1
0
VERTEX
8
CADASTRAL_PARCEL
10
77.230208
20
28.612034
30
0.0
0
VERTEX
8
CADASTRAL_PARCEL
10
77.230805
20
28.612024
30
0.0
0
VERTEX
8
CADASTRAL_PARCEL
10
77.230798
20
28.611695
30
0.0
0
VERTEX
8
CADASTRAL_PARCEL
10
77.230202
20
28.611705
30
0.0
0
VERTEX
8
CADASTRAL_PARCEL
10
77.230208
20
28.612034
30
0.0
0
SEQEND
0
POLYLINE
8
CADASTRAL_PARCEL
66
1
70
1
0
VERTEX
8
CADASTRAL_PARCEL
10
77.230208
20
28.612034
30
0.0
0
VERTEX
8
CADASTRAL_PARCEL
10
77.230215
20
28.612363
30
0.0
0
VERTEX
8
CADASTRAL_PARCEL
10
77.230812
20
28.612353
30
0.0
0
VERTEX
8
CADASTRAL_PARCEL
10
77.230805
20
28.612024
30
0.0
0
VERTEX
8
CADASTRAL_PARCEL
10
77.230208
20
28.612034
30
0.0
0
SEQEND
0
POLYLINE
8
CADASTRAL_PARCEL
66
1
70
1
0
VERTEX
8
CADASTRAL_PARCEL
10
77.230215
20
28.612363
30
0.0
0
VERTEX
8
CADASTRAL_PARCEL
10
77.230222
20
28.612692
30
0.0
0
VERTEX
8
CADASTRAL_PARCEL
10
77.230819
20
28.612683
30
0.0
0
VERTEX
8
CADASTRAL_PARCEL
10
77.230812
20
28.612353
30
0.0
0
VERTEX
8
CADASTRAL_PARCEL
10
77.230215
20
28.612363
30
0.0
0
SEQEND
0
POLYLINE
8
CADASTRAL_PARCEL
66
1
70
1
0
VERTEX
8
CADASTRAL_PARCEL
10
77.230819
20
28.612683
30
0.0
0
VERTEX
8
CADASTRAL_PARCEL
10
77.230222
20
28.612692
30
0.0
0
VERTEX
8
CADASTRAL_PARCEL
10
77.230229
20
28.613022
30
0.0
0
VERTEX
8
CADASTRAL_PARCEL
10
77.230826
20
28.613012
30
0.0
0
VERTEX
8
CADASTRAL_PARCEL
10
77.230819
20
28.612683
30
0.0
0
SEQEND
0
POLYLINE
8
CADASTRAL_PARCEL
66
1
70
1
0
VERTEX
8
CADASTRAL_PARCEL
10
77.231376
20
28.611702
30
0.0
0
VERTEX
8
CADASTRAL_PARCEL
10
77.230816
20
28.611711
30
0.0
0
VERTEX
8
CADASTRAL_PARCEL
10
77.230823
20
28.612008
30
0.0
0
VERTEX
8
CADASTRAL_PARCEL
10
77.231382
20
28.611998
30
0.0
0
VERTEX
8
CADASTRAL_PARCEL
10
77.231376
20
28.611702
30
0.0
0
SEQEND
0
POLYLINE
8
CADASTRAL_PARCEL
66
1
70
1
0
VERTEX
8
CADASTRAL_PARCEL
10
77.231401
20
28.612014
30
0.0
0
VERTEX
8
CADASTRAL_PARCEL
10
77.230805
20
28.612024
30
0.0
0
VERTEX
8
CADASTRAL_PARCEL
10
77.230812
20
28.612353
30
0.0
0
VERTEX
8
CADASTRAL_PARCEL
10
77.231408
20
28.612343
30
0.0
0
VERTEX
8
CADASTRAL_PARCEL
10
77.231401
20
28.612014
30
0.0
0
SEQEND
0
POLYLINE
8
CADASTRAL_PARCEL
66
1
70
1
0
VERTEX
8
CADASTRAL_PARCEL
10
77.230781
20
28.612336
30
0.0
0
VERTEX
8
CADASTRAL_PARCEL
10
77.230788
20
28.612683
30
0.0
0
VERTEX
8
CADASTRAL_PARCEL
10
77.231415
20
28.612673
30
0.0
0
VERTEX
8
CADASTRAL_PARCEL
10
77.231408
20
28.612325
30
0.0
0
VERTEX
8
CADASTRAL_PARCEL
10
77.230781
20
28.612336
30
0.0
0
SEQEND
0
POLYLINE
8
CADASTRAL_PARCEL
66
1
70
1
0
VERTEX
8
CADASTRAL_PARCEL
10
77.231415
20
28.612673
30
0.0
0
VERTEX
8
CADASTRAL_PARCEL
10
77.230819
20
28.612683
30
0.0
0
VERTEX
8
CADASTRAL_PARCEL
10
77.230826
20
28.613012
30
0.0
0
VERTEX
8
CADASTRAL_PARCEL
10
77.231422
20
28.613002
30
0.0
0
VERTEX
8
CADASTRAL_PARCEL
10
77.231415
20
28.612673
30
0.0
0
SEQEND
0
POLYLINE
8
CADASTRAL_PARCEL
66
1
70
1
0
VERTEX
8
CADASTRAL_PARCEL
10
77.23204
20
28.612004
30
0.0
0
VERTEX
8
CADASTRAL_PARCEL
10
77.232033
20
28.611675
30
0.0
0
VERTEX
8
CADASTRAL_PARCEL
10
77.231496
20
28.611683
30
0.0
0
VERTEX
8
CADASTRAL_PARCEL
10
77.231503
20
28.612013
30
0.0
0
VERTEX
8
CADASTRAL_PARCEL
10
77.23204
20
28.612004
30
0.0
0
SEQEND
0
POLYLINE
8
CADASTRAL_PARCEL
66
1
70
1
0
VERTEX
8
CADASTRAL_PARCEL
10
77.232047
20
28.612347
30
0.0
0
VERTEX
8
CADASTRAL_PARCEL
10
77.232049
20
28.612346
30
0.0
0
VERTEX
8
CADASTRAL_PARCEL
10
77.23205
20
28.612346
30
0.0
0
VERTEX
8
CADASTRAL_PARCEL
10
77.232051
20
28.612346
30
0.0
0
VERTEX
8
CADASTRAL_PARCEL
10
77.232053
20
28.612345
30
0.0
0
VERTEX
8
CADASTRAL_PARCEL
10
77.232054
20
28.612345
30
0.0
0
VERTEX
8
CADASTRAL_PARCEL
10
77.232055
20
28.612344
30
0.0
0
VERTEX
8
CADASTRAL_PARCEL
10
77.232057
20
28.612343
30
0.0
0
VERTEX
8
CADASTRAL_PARCEL
10
77.232058
20
28.612342
30
0.0
0
VERTEX
8
CADASTRAL_PARCEL
10
77.232059
20
28.612341
30
0.0
0
VERTEX
8
CADASTRAL_PARCEL
10
77.23206
20
28.61234
30
0.0
0
VERTEX
8
CADASTRAL_PARCEL
10
77.23206
20
28.612339
30
0.0
0
VERTEX
8
CADASTRAL_PARCEL
10
77.232061
20
28.612338
30
0.0
0
VERTEX
8
CADASTRAL_PARCEL
10
77.232061
20
28.612337
30
0.0
0
VERTEX
8
CADASTRAL_PARCEL
10
77.232062
20
28.612335
30
0.0
0
VERTEX
8
CADASTRAL_PARCEL
10
77.232062
20
28.612334
30
0.0
0
VERTEX
8
CADASTRAL_PARCEL
10
77.232062
20
28.612333
30
0.0
0
VERTEX
8
CADASTRAL_PARCEL
10
77.232055
20
28.612004
30
0.0
0
VERTEX
8
CADASTRAL_PARCEL
10
77.232055
20
28.612002
30
0.0
0
VERTEX
8
CADASTRAL_PARCEL
10
77.232055
20
28.612001
30
0.0
0
VERTEX
8
CADASTRAL_PARCEL
10
77.232054
20
28.612
30
0.0
0
VERTEX
8
CADASTRAL_PARCEL
10
77.232054
20
28.611998
30
0.0
0
VERTEX
8
CADASTRAL_PARCEL
10
77.232053
20
28.611997
30
0.0
0
VERTEX
8
CADASTRAL_PARCEL
10
77.232052
20
28.611996
30
0.0
0
VERTEX
8
CADASTRAL_PARCEL
10
77.232051
20
28.611995
30
0.0
0
VERTEX
8
CADASTRAL_PARCEL
10
77.23205
20
28.611994
30
0.0
0
VERTEX
8
CADASTRAL_PARCEL
10
77.232049
20
28.611993
30
0.0
0
VERTEX
8
CADASTRAL_PARCEL
10
77.232048
20
28.611992
30
0.0
0
VERTEX
8
CADASTRAL_PARCEL
10
77.232047
20
28.611992
30
0.0
0
VERTEX
8
CADASTRAL_PARCEL
10
77.232045
20
28.611991
30
0.0
0
VERTEX
8
CADASTRAL_PARCEL
10
77.232044
20
28.611991
30
0.0
0
VERTEX
8
CADASTRAL_PARCEL
10
77.232042
20
28.61199
30
0.0
0
VERTEX
8
CADASTRAL_PARCEL
10
77.232041
20
28.61199
30
0.0
0
VERTEX
8
CADASTRAL_PARCEL
10
77.232039
20
28.61199
30
0.0
0
VERTEX
8
CADASTRAL_PARCEL
10
77.231503
20
28.611999
30
0.0
0
VERTEX
8
CADASTRAL_PARCEL
10
77.231501
20
28.611999
30
0.0
0
VERTEX
8
CADASTRAL_PARCEL
10
77.2315
20
28.611999
30
0.0
0
VERTEX
8
CADASTRAL_PARCEL
10
77.231498
20
28.612
30
0.0
0
VERTEX
8
CADASTRAL_PARCEL
10
77.231497
20
28.612
30
0.0
0
VERTEX
8
CADASTRAL_PARCEL
10
77.231496
20
28.612001
30
0.0
0
VERTEX
8
CADASTRAL_PARCEL
10
77.231494
20
28.612001
30
0.0
0
VERTEX
8
CADASTRAL_PARCEL
10
77.231493
20
28.612002
30
0.0
0
VERTEX
8
CADASTRAL_PARCEL
10
77.231492
20
28.612003
30
0.0
0
VERTEX
8
CADASTRAL_PARCEL
10
77.231491
20
28.612004
30
0.0
0
VERTEX
8
CADASTRAL_PARCEL
10
77.23149
20
28.612005
30
0.0
0
VERTEX
8
CADASTRAL_PARCEL
10
77.23149
20
28.612006
30
0.0
0
VERTEX
8
CADASTRAL_PARCEL
10
77.231489
20
28.612008
30
0.0
0
VERTEX
8
CADASTRAL_PARCEL
10
77.231488
20
28.612009
30
0.0
0
VERTEX
8
CADASTRAL_PARCEL
10
77.231488
20
28.61201
30
0.0
0
VERTEX
8
CADASTRAL_PARCEL
10
77.231488
20
28.612012
30
0.0
0
VERTEX
8
CADASTRAL_PARCEL
10
77.231488
20
28.612013
30
0.0
0
VERTEX
8
CADASTRAL_PARCEL
10
77.231495
20
28.612342
30
0.0
0
VERTEX
8
CADASTRAL_PARCEL
10
77.231495
20
28.612343
30
0.0
0
VERTEX
8
CADASTRAL_PARCEL
10
77.231495
20
28.612345
30
0.0
0
VERTEX
8
CADASTRAL_PARCEL
10
77.231496
20
28.612346
30
0.0
0
VERTEX
8
CADASTRAL_PARCEL
10
77.231496
20
28.612347
30
0.0
0
VERTEX
8
CADASTRAL_PARCEL
10
77.231497
20
28.612348
30
0.0
0
VERTEX
8
CADASTRAL_PARCEL
10
77.231498
20
28.61235
30
0.0
0
VERTEX
8
CADASTRAL_PARCEL
10
77.231498
20
28.612351
30
0.0
0
VERTEX
8
CADASTRAL_PARCEL
10
77.231499
20
28.612352
30
0.0
0
VERTEX
8
CADASTRAL_PARCEL
10
77.231501
20
28.612352
30
0.0
0
VERTEX
8
CADASTRAL_PARCEL
10
77.231502
20
28.612353
30
0.0
0
VERTEX
8
CADASTRAL_PARCEL
10
77.231503
20
28.612354
30
0.0
0
VERTEX
8
CADASTRAL_PARCEL
10
77.231505
20
28.612354
30
0.0
0
VERTEX
8
CADASTRAL_PARCEL
10
77.231506
20
28.612355
30
0.0
0
VERTEX
8
CADASTRAL_PARCEL
10
77.231507
20
28.612355
30
0.0
0
VERTEX
8
CADASTRAL_PARCEL
10
77.231509
20
28.612355
30
0.0
0
VERTEX
8
CADASTRAL_PARCEL
10
77.23151
20
28.612355
30
0.0
0
VERTEX
8
CADASTRAL_PARCEL
10
77.232047
20
28.612347
30
0.0
0
SEQEND
0
POLYLINE
8
CADASTRAL_PARCEL
66
1
70
1
0
VERTEX
8
CADASTRAL_PARCEL
10
77.232054
20
28.612662
30
0.0
0
VERTEX
8
CADASTRAL_PARCEL
10
77.232047
20
28.612333
30
0.0
0
VERTEX
8
CADASTRAL_PARCEL
10
77.23151
20
28.612342
30
0.0
0
VERTEX
8
CADASTRAL_PARCEL
10
77.231517
20
28.612671
30
0.0
0
VERTEX
8
CADASTRAL_PARCEL
10
77.232054
20
28.612662
30
0.0
0
SEQEND
0
POLYLINE
8
CADASTRAL_PARCEL
66
1
70
1
0
VERTEX
8
CADASTRAL_PARCEL
10
77.232054
20
28.612662
30
0.0
0
VERTEX
8
CADASTRAL_PARCEL
10
77.231517
20
28.612671
30
0.0
0
VERTEX
8
CADASTRAL_PARCEL
10
77.231524
20
28.613
30
0.0
0
VERTEX
8
CADASTRAL_PARCEL
10
77.232061
20
28.612991
30
0.0
0
VERTEX
8
CADASTRAL_PARCEL
10
77.232054
20
28.612662
30
0.0
0
SEQEND
0
POLYLINE
8
CADASTRAL_PARCEL
66
1
70
1
0
VERTEX
8
CADASTRAL_PARCEL
10
77.23204
20
28.612004
30
0.0
0
VERTEX
8
CADASTRAL_PARCEL
10
77.232576
20
28.611995
30
0.0
0
VERTEX
8
CADASTRAL_PARCEL
10
77.232569
20
28.611666
30
0.0
0
VERTEX
8
CADASTRAL_PARCEL
10
77.232033
20
28.611675
30
0.0
0
VERTEX
8
CADASTRAL_PARCEL
10
77.23204
20
28.612004
30
0.0
0
SEQEND
0
POLYLINE
8
CADASTRAL_PARCEL
66
1
70
1
0
VERTEX
8
CADASTRAL_PARCEL
10
77.23204
20
28.612004
30
0.0
0
VERTEX
8
CADASTRAL_PARCEL
10
77.232047
20
28.612333
30
0.0
0
VERTEX
8
CADASTRAL_PARCEL
10
77.232583
20
28.612324
30
0.0
0
VERTEX
8
CADASTRAL_PARCEL
10
77.232576
20
28.611995
30
0.0
0
VERTEX
8
CADASTRAL_PARCEL
10
77.23204
20
28.612004
30
0.0
0
SEQEND
0
POLYLINE
8
CADASTRAL_PARCEL
66
1
70
1
0
VERTEX
8
CADASTRAL_PARCEL
10
77.232065
20
28.612349
30
0.0
0
VERTEX
8
CADASTRAL_PARCEL
10
77.232072
20
28.612646
30
0.0
0
VERTEX
8
CADASTRAL_PARCEL
10
77.232572
20
28.612637
30
0.0
0
VERTEX
8
CADASTRAL_PARCEL
10
77.232565
20
28.612341
30
0.0
0
VERTEX
8
CADASTRAL_PARCEL
10
77.232065
20
28.612349
30
0.0
0
SEQEND
0
POLYLINE
8
CADASTRAL_PARCEL
66
1
70
1
0
VERTEX
8
CADASTRAL_PARCEL
10
77.23259
20
28.612653
30
0.0
0
VERTEX
8
CADASTRAL_PARCEL
10
77.232054
20
28.612662
30
0.0
0
VERTEX
8
CADASTRAL_PARCEL
10
77.232061
20
28.612991
30
0.0
0
VERTEX
8
CADASTRAL_PARCEL
10
77.232597
20
28.612983
30
0.0
0
VERTEX
8
CADASTRAL_PARCEL
10
77.23259
20
28.612653
30
0.0
0
SEQEND
0
POLYLINE
8
CADASTRAL_PARCEL
66
1
70
1
0
VERTEX
8
CADASTRAL_PARCEL
10
77.232576
20
28.611995
30
0.0
0
VERTEX
8
CADASTRAL_PARCEL
10
77.233113
20
28.611986
30
0.0
0
VERTEX
8
CADASTRAL_PARCEL
10
77.233106
20
28.611657
30
0.0
0
VERTEX
8
CADASTRAL_PARCEL
10
77.232569
20
28.611666
30
0.0
0
VERTEX
8
CADASTRAL_PARCEL
10
77.232576
20
28.611995
30
0.0
0
SEQEND
0
POLYLINE
8
CADASTRAL_PARCEL
66
1
70
1
0
VERTEX
8
CADASTRAL_PARCEL
10
77.232576
20
28.611995
30
0.0
0
VERTEX
8
CADASTRAL_PARCEL
10
77.232583
20
28.612324
30
0.0
0
VERTEX
8
CADASTRAL_PARCEL
10
77.23312
20
28.612315
30
0.0
0
VERTEX
8
CADASTRAL_PARCEL
10
77.233113
20
28.611986
30
0.0
0
VERTEX
8
CADASTRAL_PARCEL
10
77.232576
20
28.611995
30
0.0
0
SEQEND
0
POLYLINE
8
CADASTRAL_PARCEL
66
1
70
1
0
VERTEX
8
CADASTRAL_PARCEL
10
77.232583
20
28.612324
30
0.0
0
VERTEX
8
CADASTRAL_PARCEL
10
77.23259
20
28.612653
30
0.0
0
VERTEX
8
CADASTRAL_PARCEL
10
77.233127
20
28.612645
30
0.0
0
VERTEX
8
CADASTRAL_PARCEL
10
77.23312
20
28.612315
30
0.0
0
VERTEX
8
CADASTRAL_PARCEL
10
77.232583
20
28.612324
30
0.0
0
SEQEND
0
POLYLINE
8
CADASTRAL_PARCEL
66
1
70
1
0
VERTEX
8
CADASTRAL_PARCEL
10
77.233142
20
28.612644
30
0.0
0
VERTEX
8
CADASTRAL_PARCEL
10
77.233142
20
28.612643
30
0.0
0
VERTEX
8
CADASTRAL_PARCEL
10
77.233142
20
28.612642
30
0.0
0
VERTEX
8
CADASTRAL_PARCEL
10
77.233142
20
28.61264
30
0.0
0
VERTEX
8
CADASTRAL_PARCEL
10
77.233141
20
28.612639
30
0.0
0
VERTEX
8
CADASTRAL_PARCEL
10
77.23314
20
28.612638
30
0.0
0
VERTEX
8
CADASTRAL_PARCEL
10
77.23314
20
28.612637
30
0.0
0
VERTEX
8
CADASTRAL_PARCEL
10
77.233139
20
28.612636
30
0.0
0
VERTEX
8
CADASTRAL_PARCEL
10
77.233138
20
28.612635
30
0.0
0
VERTEX
8
CADASTRAL_PARCEL
10
77.233136
20
28.612634
30
0.0
0
VERTEX
8
CADASTRAL_PARCEL
10
77.233135
20
28.612633
30
0.0
0
VERTEX
8
CADASTRAL_PARCEL
10
77.233134
20
28.612632
30
0.0
0
VERTEX
8
CADASTRAL_PARCEL
10
77.233133
20
28.612632
30
0.0
0
VERTEX
8
CADASTRAL_PARCEL
10
77.233131
20
28.612631
30
0.0
0
VERTEX
8
CADASTRAL_PARCEL
10
77.23313
20
28.612631
30
0.0
0
VERTEX
8
CADASTRAL_PARCEL
10
77.233128
20
28.612631
30
0.0
0
VERTEX
8
CADASTRAL_PARCEL
10
77.233127
20
28.612631
30
0.0
0
VERTEX
8
CADASTRAL_PARCEL
10
77.23259
20
28.61264
30
0.0
0
VERTEX
8
CADASTRAL_PARCEL
10
77.232589
20
28.61264
30
0.0
0
VERTEX
8
CADASTRAL_PARCEL
10
77.232587
20
28.61264
30
0.0
0
VERTEX
8
CADASTRAL_PARCEL
10
77.232586
20
28.61264
30
0.0
0
VERTEX
8
CADASTRAL_PARCEL
10
77.232584
20
28.612641
30
0.0
0
VERTEX
8
CADASTRAL_PARCEL
10
77.232583
20
28.612642
30
0.0
0
VERTEX
8
CADASTRAL_PARCEL
10
77.232582
20
28.612642
30
0.0
0
VERTEX
8
CADASTRAL_PARCEL
10
77.23258
20
28.612643
30
0.0
0
VERTEX
8
CADASTRAL_PARCEL
10
77.232579
20
28.612644
30
0.0
0
VERTEX
8
CADASTRAL_PARCEL
10
77.232578
20
28.612645
30
0.0
0
VERTEX
8
CADASTRAL_PARCEL
10
77.232577
20
28.612646
30
0.0
0
VERTEX
8
CADASTRAL_PARCEL
10
77.232577
20
28.612647
30
0.0
0
VERTEX
8
CADASTRAL_PARCEL
10
77.232576
20
28.612648
30
0.0
0
VERTEX
8
CADASTRAL_PARCEL
10
77.232576
20
28.61265
30
0.0
0
VERTEX
8
CADASTRAL_PARCEL
10
77.232575
20
28.612651
30
0.0
0
VERTEX
8
CADASTRAL_PARCEL
10
77.232575
20
28.612652
30
0.0
0
VERTEX
8
CADASTRAL_PARCEL
10
77.232575
20
28.612654
30
0.0
0
VERTEX
8
CADASTRAL_PARCEL
10
77.232582
20
28.612983
30
0.0
0
VERTEX
8
CADASTRAL_PARCEL
10
77.232582
20
28.612984
30
0.0
0
VERTEX
8
CADASTRAL_PARCEL
10
77.232582
20
28.612985
30
0.0
0
VERTEX
8
CADASTRAL_PARCEL
10
77.232583
20
28.612987
30
0.0
0
VERTEX
8
CADASTRAL_PARCEL
10
77.232583
20
28.612988
30
0.0
0
VERTEX
8
CADASTRAL_PARCEL
10
77.232584
20
28.612989
30
0.0
0
VERTEX
8
CADASTRAL_PARCEL
10
77.232585
20
28.61299
30
0.0
0
VERTEX
8
CADASTRAL_PARCEL
10
77.232586
20
28.612991
30
0.0
0
VERTEX
8
CADASTRAL_PARCEL
10
77.232587
20
28.612992
30
0.0
0
VERTEX
8
CADASTRAL_PARCEL
10
77.232588
20
28.612993
30
0.0
0
VERTEX
8
CADASTRAL_PARCEL
10
77.232589
20
28.612994
30
0.0
0
VERTEX
8
CADASTRAL_PARCEL
10
77.23259
20
28.612995
30
0.0
0
VERTEX
8
CADASTRAL_PARCEL
10
77.232592
20
28.612995
30
0.0
0
VERTEX
8
CADASTRAL_PARCEL
10
77.232593
20
28.612996
30
0.0
0
VERTEX
8
CADASTRAL_PARCEL
10
77.232595
20
28.612996
30
0.0
0
VERTEX
8
CADASTRAL_PARCEL
10
77.232596
20
28.612996
30
0.0
0
VERTEX
8
CADASTRAL_PARCEL
10
77.232598
20
28.612996
30
0.0
0
VERTEX
8
CADASTRAL_PARCEL
10
77.233134
20
28.612987
30
0.0
0
VERTEX
8
CADASTRAL_PARCEL
10
77.233136
20
28.612987
30
0.0
0
VERTEX
8
CADASTRAL_PARCEL
10
77.233137
20
28.612987
30
0.0
0
VERTEX
8
CADASTRAL_PARCEL
10
77.233139
20
28.612987
30
0.0
0
VERTEX
8
CADASTRAL_PARCEL
10
77.23314
20
28.612986
30
0.0
0
VERTEX
8
CADASTRAL_PARCEL
10
77.233141
20
28.612986
30
0.0
0
VERTEX
8
CADASTRAL_PARCEL
10
77.233143
20
28.612985
30
0.0
0
VERTEX
8
CADASTRAL_PARCEL
10
77.233144
20
28.612984
30
0.0
0
VERTEX
8
CADASTRAL_PARCEL
10
77.233145
20
28.612983
30
0.0
0
VERTEX
8
CADASTRAL_PARCEL
10
77.233146
20
28.612982
30
0.0
0
VERTEX
8
CADASTRAL_PARCEL
10
77.233147
20
28.612981
30
0.0
0
VERTEX
8
CADASTRAL_PARCEL
10
77.233148
20
28.61298
30
0.0
0
VERTEX
8
CADASTRAL_PARCEL
10
77.233148
20
28.612979
30
0.0
0
VERTEX
8
CADASTRAL_PARCEL
10
77.233149
20
28.612977
30
0.0
0
VERTEX
8
CADASTRAL_PARCEL
10
77.233149
20
28.612976
30
0.0
0
VERTEX
8
CADASTRAL_PARCEL
10
77.233149
20
28.612975
30
0.0
0
VERTEX
8
CADASTRAL_PARCEL
10
77.233149
20
28.612973
30
0.0
0
VERTEX
8
CADASTRAL_PARCEL
10
77.233142
20
28.612644
30
0.0
0
SEQEND
0
POLYLINE
8
CADASTRAL_PARCEL
66
1
70
1
0
VERTEX
8
CADASTRAL_PARCEL
10
77.233643
20
28.611648
30
0.0
0
VERTEX
8
CADASTRAL_PARCEL
10
77.233106
20
28.611657
30
0.0
0
VERTEX
8
CADASTRAL_PARCEL
10
77.233113
20
28.611986
30
0.0
0
VERTEX
8
CADASTRAL_PARCEL
10
77.23365
20
28.611977
30
0.0
0
VERTEX
8
CADASTRAL_PARCEL
10
77.233643
20
28.611648
30
0.0
0
SEQEND
0
POLYLINE
8
CADASTRAL_PARCEL
66
1
70
1
0
VERTEX
8
CADASTRAL_PARCEL
10
77.23365
20
28.611977
30
0.0
0
VERTEX
8
CADASTRAL_PARCEL
10
77.233113
20
28.611986
30
0.0
0
VERTEX
8
CADASTRAL_PARCEL
10
77.23312
20
28.612315
30
0.0
0
VERTEX
8
CADASTRAL_PARCEL
10
77.233657
20
28.612306
30
0.0
0
VERTEX
8
CADASTRAL_PARCEL
10
77.23365
20
28.611977
30
0.0
0
SEQEND
0
POLYLINE
8
CADASTRAL_PARCEL
66
1
70
1
0
VERTEX
8
CADASTRAL_PARCEL
10
77.233089
20
28.612298
30
0.0
0
VERTEX
8
CADASTRAL_PARCEL
10
77.233096
20
28.612645
30
0.0
0
VERTEX
8
CADASTRAL_PARCEL
10
77.233664
20
28.612636
30
0.0
0
VERTEX
8
CADASTRAL_PARCEL
10
77.233656
20
28.612288
30
0.0
0
VERTEX
8
CADASTRAL_PARCEL
10
77.233089
20
28.612298
30
0.0
0
SEQEND
0
POLYLINE
8
CADASTRAL_PARCEL
66
1
70
1
0
VERTEX
8
CADASTRAL_PARCEL
10
77.233664
20
28.612636
30
0.0
0
VERTEX
8
CADASTRAL_PARCEL
10
77.233127
20
28.612645
30
0.0
0
VERTEX
8
CADASTRAL_PARCEL
10
77.233134
20
28.612974
30
0.0
0
VERTEX
8
CADASTRAL_PARCEL
10
77.233671
20
28.612965
30
0.0
0
VERTEX
8
CADASTRAL_PARCEL
10
77.233664
20
28.612636
30
0.0
0
SEQEND
0
POLYLINE
8
CADASTRAL_PARCEL
66
1
70
1
0
VERTEX
8
CADASTRAL_PARCEL
10
77.23209
20
28.61523
30
0.0
0
VERTEX
8
CADASTRAL_PARCEL
10
77.232083
20
28.614902
30
0.0
0
VERTEX
8
CADASTRAL_PARCEL
10
77.231583
20
28.61491
30
0.0
0
VERTEX
8
CADASTRAL_PARCEL
10
77.23159
20
28.615239
30
0.0
0
VERTEX
8
CADASTRAL_PARCEL
10
77.23209
20
28.61523
30
0.0
0
SEQEND
0
POLYLINE
8
CADASTRAL_PARCEL
66
1
70
1
0
VERTEX
8
CADASTRAL_PARCEL
10
77.232116
20
28.615607
30
0.0
0
VERTEX
8
CADASTRAL_PARCEL
10
77.232108
20
28.615246
30
0.0
0
VERTEX
8
CADASTRAL_PARCEL
10
77.231572
20
28.615255
30
0.0
0
VERTEX
8
CADASTRAL_PARCEL
10
77.231579
20
28.615616
30
0.0
0
VERTEX
8
CADASTRAL_PARCEL
10
77.232116
20
28.615607
30
0.0
0
SEQEND
0
POLYLINE
8
CADASTRAL_PARCEL
66
1
70
1
0
VERTEX
8
CADASTRAL_PARCEL
10
77.232124
20
28.615968
30
0.0
0
VERTEX
8
CADASTRAL_PARCEL
10
77.232116
20
28.615607
30
0.0
0
VERTEX
8
CADASTRAL_PARCEL
10
77.231579
20
28.615616
30
0.0
0
VERTEX
8
CADASTRAL_PARCEL
10
77.231587
20
28.615977
30
0.0
0
VERTEX
8
CADASTRAL_PARCEL
10
77.232124
20
28.615968
30
0.0
0
SEQEND
0
POLYLINE
8
CADASTRAL_PARCEL
66
1
70
1
0
VERTEX
8
CADASTRAL_PARCEL
10
77.232124
20
28.615968
30
0.0
0
VERTEX
8
CADASTRAL_PARCEL
10
77.231587
20
28.615977
30
0.0
0
VERTEX
8
CADASTRAL_PARCEL
10
77.231595
20
28.616338
30
0.0
0
VERTEX
8
CADASTRAL_PARCEL
10
77.232131
20
28.616329
30
0.0
0
VERTEX
8
CADASTRAL_PARCEL
10
77.232124
20
28.615968
30
0.0
0
SEQEND
0
POLYLINE
8
CADASTRAL_PARCEL
66
1
70
1
0
VERTEX
8
CADASTRAL_PARCEL
10
77.232108
20
28.615246
30
0.0
0
VERTEX
8
CADASTRAL_PARCEL
10
77.232645
20
28.615237
30
0.0
0
VERTEX
8
CADASTRAL_PARCEL
10
77.232637
20
28.614877
30
0.0
0
VERTEX
8
CADASTRAL_PARCEL
10
77.232101
20
28.614886
30
0.0
0
VERTEX
8
CADASTRAL_PARCEL
10
77.232108
20
28.615246
30
0.0
0
SEQEND
0
POLYLINE
8
CADASTRAL_PARCEL
66
1
70
1
0
VERTEX
8
CADASTRAL_PARCEL
10
77.232108
20
28.615233
30
0.0
0
VERTEX
8
CADASTRAL_PARCEL
10
77.232107
20
28.615233
30
0.0
0
VERTEX
8
CADASTRAL_PARCEL
10
77.232105
20
28.615233
30
0.0
0
VERTEX
8
CADASTRAL_PARCEL
10
77.232104
20
28.615233
30
0.0
0
VERTEX
8
CADASTRAL_PARCEL
10
77.232102
20
28.615234
30
0.0
0
VERTEX
8
CADASTRAL_PARCEL
10
77.232101
20
28.615234
30
0.0
0
VERTEX
8
CADASTRAL_PARCEL
10
77.2321
20
28.615235
30
0.0
0
VERTEX
8
CADASTRAL_PARCEL
10
77.232098
20
28.615236
30
0.0
0
VERTEX
8
CADASTRAL_PARCEL
10
77.232097
20
28.615237
30
0.0
0
VERTEX
8
CADASTRAL_PARCEL
10
77.232096
20
28.615238
30
0.0
0
VERTEX
8
CADASTRAL_PARCEL
10
77.232095
20
28.615239
30
0.0
0
VERTEX
8
CADASTRAL_PARCEL
10
77.232095
20
28.61524
30
0.0
0
VERTEX
8
CADASTRAL_PARCEL
10
77.232094
20
28.615241
30
0.0
0
VERTEX
8
CADASTRAL_PARCEL
10
77.232094
20
28.615243
30
0.0
0
VERTEX
8
CADASTRAL_PARCEL
10
77.232093
20
28.615244
30
0.0
0
VERTEX
8
CADASTRAL_PARCEL
10
77.232093
20
28.615245
30
0.0
0
VERTEX
8
CADASTRAL_PARCEL
10
77.232093
20
28.615247
30
0.0
0
VERTEX
8
CADASTRAL_PARCEL
10
77.232101
20
28.615607
30
0.0
0
VERTEX
8
CADASTRAL_PARCEL
10
77.232101
20
28.615609
30
0.0
0
VERTEX
8
CADASTRAL_PARCEL
10
77.232101
20
28.61561
30
0.0
0
VERTEX
8
CADASTRAL_PARCEL
10
77.232101
20
28.615611
30
0.0
0
VERTEX
8
CADASTRAL_PARCEL
10
77.232102
20
28.615613
30
0.0
0
VERTEX
8
CADASTRAL_PARCEL
10
77.232103
20
28.615614
30
0.0
0
VERTEX
8
CADASTRAL_PARCEL
10
77.232103
20
28.615615
30
0.0
0
VERTEX
8
CADASTRAL_PARCEL
10
77.232104
20
28.615616
30
0.0
0
VERTEX
8
CADASTRAL_PARCEL
10
77.232105
20
28.615617
30
0.0
0
VERTEX
8
CADASTRAL_PARCEL
10
77.232106
20
28.615618
30
0.0
0
VERTEX
8
CADASTRAL_PARCEL
10
77.232108
20
28.615618
30
0.0
0
VERTEX
8
CADASTRAL_PARCEL
10
77.232109
20
28.615619
30
0.0
0
VERTEX
8
CADASTRAL_PARCEL
10
77.23211
20
28.61562
30
0.0
0
VERTEX
8
CADASTRAL_PARCEL
10
77.232112
20
28.61562
30
0.0
0
VERTEX
8
CADASTRAL_PARCEL
10
77.232113
20
28.61562
30
0.0
0
VERTEX
8
CADASTRAL_PARCEL
10
77.232115
20
28.615621
30
0.0
0
VERTEX
8
CADASTRAL_PARCEL
10
77.232116
20
28.615621
30
0.0
0
VERTEX
8
CADASTRAL_PARCEL
10
77.232653
20
28.615612
30
0.0
0
VERTEX
8
CADASTRAL_PARCEL
10
77.232654
20
28.615612
30
0.0
0
VERTEX
8
CADASTRAL_PARCEL
10
77.232656
20
28.615611
30
0.0
0
VERTEX
8
CADASTRAL_PARCEL
10
77.232657
20
28.615611
30
0.0
0
VERTEX
8
CADASTRAL_PARCEL
10
77.232659
20
28.615611
30
0.0
0
VERTEX
8
CADASTRAL_PARCEL
10
77.23266
20
28.61561
30
0.0
0
VERTEX
8
CADASTRAL_PARCEL
10
77.232661
20
28.615609
30
0.0
0
VERTEX
8
CADASTRAL_PARCEL
10
77.232663
20
28.615609
30
0.0
0
VERTEX
8
CADASTRAL_PARCEL
10
77.232664
20
28.615608
30
0.0
0
VERTEX
8
CADASTRAL_PARCEL
10
77.232665
20
28.615607
30
0.0
0
VERTEX
8
CADASTRAL_PARCEL
10
77.232666
20
28.615606
30
0.0
0
VERTEX
8
CADASTRAL_PARCEL
10
77.232666
20
28.615604
30
0.0
0
VERTEX
8
CADASTRAL_PARCEL
10
77.232667
20
28.615603
30
0.0
0
VERTEX
8
CADASTRAL_PARCEL
10
77.232667
20
28.615602
30
0.0
0
VERTEX
8
CADASTRAL_PARCEL
10
77.232668
20
28.615601
30
0.0
0
VERTEX
8
CADASTRAL_PARCEL
10
77.232668
20
28.615599
30
0.0
0
VERTEX
8
CADASTRAL_PARCEL
10
77.232668
20
28.615598
30
0.0
0
VERTEX
8
CADASTRAL_PARCEL
10
77.23266
20
28.615237
30
0.0
0
VERTEX
8
CADASTRAL_PARCEL
10
77.23266
20
28.615236
30
0.0
0
VERTEX
8
CADASTRAL_PARCEL
10
77.23266
20
28.615235
30
0.0
0
VERTEX
8
CADASTRAL_PARCEL
10
77.23266
20
28.615233
30
0.0
0
VERTEX
8
CADASTRAL_PARCEL
10
77.232659
20
28.615232
30
0.0
0
VERTEX
8
CADASTRAL_PARCEL
10
77.232658
20
28.615231
30
0.0
0
VERTEX
8
CADASTRAL_PARCEL
10
77.232658
20
28.61523
30
0.0
0
VERTEX
8
CADASTRAL_PARCEL
10
77.232657
20
28.615229
30
0.0
0
VERTEX
8
CADASTRAL_PARCEL
10
77.232656
20
28.615228
30
0.0
0
VERTEX
8
CADASTRAL_PARCEL
10
77.232655
20
28.615227
30
0.0
0
VERTEX
8
CADASTRAL_PARCEL
10
77.232653
20
28.615226
30
0.0
0
VERTEX
8
CADASTRAL_PARCEL
10
77.232652
20
28.615225
30
0.0
0
VERTEX
8
CADASTRAL_PARCEL
10
77.232651
20
28.615225
30
0.0
0
VERTEX
8
CADASTRAL_PARCEL
10
77.232649
20
28.615224
30
0.0
0
VERTEX
8
CADASTRAL_PARCEL
10
77.232648
20
28.615224
30
0.0
0
VERTEX
8
CADASTRAL_PARCEL
10
77.232646
20
28.615224
30
0.0
0
VERTEX
8
CADASTRAL_PARCEL
10
77.232645
20
28.615224
30
0.0
0
VERTEX
8
CADASTRAL_PARCEL
10
77.232108
20
28.615233
30
0.0
0
SEQEND
0
POLYLINE
8
CADASTRAL_PARCEL
66
1
70
1
0
VERTEX
8
CADASTRAL_PARCEL
10
77.232085
20
28.61559
30
0.0
0
VERTEX
8
CADASTRAL_PARCEL
10
77.232093
20
28.615968
30
0.0
0
VERTEX
8
CADASTRAL_PARCEL
10
77.23266
20
28.615959
30
0.0
0
VERTEX
8
CADASTRAL_PARCEL
10
77.232652
20
28.61558
30
0.0
0
VERTEX
8
CADASTRAL_PARCEL
10
77.232085
20
28.61559
30
0.0
0
SEQEND
0
POLYLINE
8
CADASTRAL_PARCEL
66
1
70
1
0
VERTEX
8
CADASTRAL_PARCEL
10
77.23266
20
28.615959
30
0.0
0
VERTEX
8
CADASTRAL_PARCEL
10
77.232124
20
28.615968
30
0.0
0
VERTEX
8
CADASTRAL_PARCEL
10
77.232131
20
28.616329
30
0.0
0
VERTEX
8
CADASTRAL_PARCEL
10
77.232668
20
28.61632
30
0.0
0
VERTEX
8
CADASTRAL_PARCEL
10
77.23266
20
28.615959
30
0.0
0
SEQEND
0
POLYLINE
8
CADASTRAL_PARCEL
66
1
70
1
0
VERTEX
8
CADASTRAL_PARCEL
10
77.232645
20
28.615237
30
0.0
0
VERTEX
8
CADASTRAL_PARCEL
10
77.233182
20
28.615229
30
0.0
0
VERTEX
8
CADASTRAL_PARCEL
10
77.233174
20
28.614868
30
0.0
0
VERTEX
8
CADASTRAL_PARCEL
10
77.232637
20
28.614877
30
0.0
0
VERTEX
8
CADASTRAL_PARCEL
10
77.232645
20
28.615237
30
0.0
0
SEQEND
0
POLYLINE
8
CADASTRAL_PARCEL
66
1
70
1
0
VERTEX
8
CADASTRAL_PARCEL
10
77.232645
20
28.615237
30
0.0
0
VERTEX
8
CADASTRAL_PARCEL
10
77.232653
20
28.615598
30
0.0
0
VERTEX
8
CADASTRAL_PARCEL
10
77.233189
20
28.615589
30
0.0
0
VERTEX
8
CADASTRAL_PARCEL
10
77.233182
20
28.615229
30
0.0
0
VERTEX
8
CADASTRAL_PARCEL
10
77.232645
20
28.615237
30
0.0
0
SEQEND
0
POLYLINE
8
CADASTRAL_PARCEL
66
1
70
1
0
VERTEX
8
CADASTRAL_PARCEL
10
77.232671
20
28.615614
30
0.0
0
VERTEX
8
CADASTRAL_PARCEL
10
77.232678
20
28.615942
30
0.0
0
VERTEX
8
CADASTRAL_PARCEL
10
77.233178
20
28.615934
30
0.0
0
VERTEX
8
CADASTRAL_PARCEL
10
77.233171
20
28.615606
30
0.0
0
VERTEX
8
CADASTRAL_PARCEL
10
77.232671
20
28.615614
30
0.0
0
SEQEND
0
POLYLINE
8
CADASTRAL_PARCEL
66
1
70
1
0
VERTEX
8
CADASTRAL_PARCEL
10
77.233197
20
28.61595
30
0.0
0
VERTEX
8
CADASTRAL_PARCEL
10
77.23266
20
28.615959
30
0.0
0
VERTEX
8
CADASTRAL_PARCEL
10
77.232668
20
28.61632
30
0.0
0
VERTEX
8
CADASTRAL_PARCEL
10
77.233205
20
28.616311
30
0.0
0
VERTEX
8
CADASTRAL_PARCEL
10
77.233197
20
28.61595
30
0.0
0
SEQEND
0
POLYLINE
8
CADASTRAL_PARCEL
66
1
70
1
0
VERTEX
8
CADASTRAL_PARCEL
10
77.233711
20
28.614859
30
0.0
0
VERTEX
8
CADASTRAL_PARCEL
10
77.233174
20
28.614868
30
0.0
0
VERTEX
8
CADASTRAL_PARCEL
10
77.233182
20
28.615229
30
0.0
0
VERTEX
8
CADASTRAL_PARCEL
10
77.233718
20
28.61522
30
0.0
0
VERTEX
8
CADASTRAL_PARCEL
10
77.233711
20
28.614859
30
0.0
0
SEQEND
0
POLYLINE
8
CADASTRAL_PARCEL
66
1
70
1
0
VERTEX
8
CADASTRAL_PARCEL
10
77.233718
20
28.61522
30
0.0
0
VERTEX
8
CADASTRAL_PARCEL
10
77.233182
20
28.615229
30
0.0
0
VERTEX
8
CADASTRAL_PARCEL
10
77.233189
20
28.615589
30
0.0
0
VERTEX
8
CADASTRAL_PARCEL
10
77.233726
20
28.615581
30
0.0
0
VERTEX
8
CADASTRAL_PARCEL
10
77.233718
20
28.61522
30
0.0
0
SEQEND
0
POLYLINE
8
CADASTRAL_PARCEL
66
1
70
1
0
VERTEX
8
CADASTRAL_PARCEL
10
77.233158
20
28.615572
30
0.0
0
VERTEX
8
CADASTRAL_PARCEL
10
77.233166
20
28.615951
30
0.0
0
VERTEX
8
CADASTRAL_PARCEL
10
77.233734
20
28.615941
30
0.0
0
VERTEX
8
CADASTRAL_PARCEL
10
77.233726
20
28.615563
30
0.0
0
VERTEX
8
CADASTRAL_PARCEL
10
77.233158
20
28.615572
30
0.0
0
SEQEND
0
POLYLINE
8
CADASTRAL_PARCEL
66
1
70
1
0
VERTEX
8
CADASTRAL_PARCEL
10
77.233749
20
28.615941
30
0.0
0
VERTEX
8
CADASTRAL_PARCEL
10
77.233749
20
28.61594
30
0.0
0
VERTEX
8
CADASTRAL_PARCEL
10
77.233749
20
28.615938
30
0.0
0
VERTEX
8
CADASTRAL_PARCEL
10
77.233748
20
28.615937
30
0.0
0
VERTEX
8
CADASTRAL_PARCEL
10
77.233748
20
28.615936
30
0.0
0
VERTEX
8
CADASTRAL_PARCEL
10
77.233747
20
28.615935
30
0.0
0
VERTEX
8
CADASTRAL_PARCEL
10
77.233746
20
28.615934
30
0.0
0
VERTEX
8
CADASTRAL_PARCEL
10
77.233745
20
28.615933
30
0.0
0
VERTEX
8
CADASTRAL_PARCEL
10
77.233744
20
28.615932
30
0.0
0
VERTEX
8
CADASTRAL_PARCEL
10
77.233743
20
28.615931
30
0.0
0
VERTEX
8
CADASTRAL_PARCEL
10
77.233742
20
28.61593
30
0.0
0
VERTEX
8
CADASTRAL_PARCEL
10
77.233741
20
28.615929
30
0.0
0
VERTEX
8
CADASTRAL_PARCEL
10
77.233739
20
28.615929
30
0.0
0
VERTEX
8
CADASTRAL_PARCEL
10
77.233738
20
28.615928
30
0.0
0
VERTEX
8
CADASTRAL_PARCEL
10
77.233736
20
28.615928
30
0.0
0
VERTEX
8
CADASTRAL_PARCEL
10
77.233735
20
28.615928
30
0.0
0
VERTEX
8
CADASTRAL_PARCEL
10
77.233733
20
28.615928
30
0.0
0
VERTEX
8
CADASTRAL_PARCEL
10
77.233197
20
28.615937
30
0.0
0
VERTEX
8
CADASTRAL_PARCEL
10
77.233195
20
28.615937
30
0.0
0
VERTEX
8
CADASTRAL_PARCEL
10
77.233194
20
28.615937
30
0.0
0
VERTEX
8
CADASTRAL_PARCEL
10
77.233192
20
28.615937
30
0.0
0
VERTEX
8
CADASTRAL_PARCEL
10
77.233191
20
28.615938
30
0.0
0
VERTEX
8
CADASTRAL_PARCEL
10
77.233189
20
28.615938
30
0.0
0
VERTEX
8
CADASTRAL_PARCEL
10
77.233188
20
28.615939
30
0.0
0
VERTEX
8
CADASTRAL_PARCEL
10
77.233187
20
28.61594
30
0.0
0
VERTEX
8
CADASTRAL_PARCEL
10
77.233186
20
28.615941
30
0.0
0
VERTEX
8
CADASTRAL_PARCEL
10
77.233185
20
28.615942
30
0.0
0
VERTEX
8
CADASTRAL_PARCEL
10
77.233184
20
28.615943
30
0.0
0
VERTEX
8
CADASTRAL_PARCEL
10
77.233183
20
28.615944
30
0.0
0
VERTEX
8
CADASTRAL_PARCEL
10
77.233183
20
28.615945
30
0.0
0
VERTEX
8
CADASTRAL_PARCEL
10
77.233182
20
28.615947
30
0.0
0
VERTEX
8
CADASTRAL_PARCEL
10
77.233182
20
28.615948
30
0.0
0
VERTEX
8
CADASTRAL_PARCEL
10
77.233182
20
28.615949
30
0.0
0
VERTEX
8
CADASTRAL_PARCEL
10
77.233182
20
28.61595
30
0.0
0
VERTEX
8
CADASTRAL_PARCEL
10
77.233189
20
28.616311
30
0.0
0
VERTEX
8
CADASTRAL_PARCEL
10
77.233189
20
28.616313
30
0.0
0
VERTEX
8
CADASTRAL_PARCEL
10
77.23319
20
28.616314
30
0.0
0
VERTEX
8
CADASTRAL_PARCEL
10
77.23319
20
28.616315
30
0.0
0
VERTEX
8
CADASTRAL_PARCEL
10
77.23319
20
28.616316
30
0.0
0
VERTEX
8
CADASTRAL_PARCEL
10
77.233191
20
28.616318
30
0.0
0
VERTEX
8
CADASTRAL_PARCEL
10
77.233192
20
28.616319
30
0.0
0
VERTEX
8
CADASTRAL_PARCEL
10
77.233193
20
28.61632
30
0.0
0
VERTEX
8
CADASTRAL_PARCEL
10
77.233194
20
28.616321
30
0.0
0
VERTEX
8
CADASTRAL_PARCEL
10
77.233195
20
28.616322
30
0.0
0
VERTEX
8
CADASTRAL_PARCEL
10
77.233196
20
28.616322
30
0.0
0
VERTEX
8
CADASTRAL_PARCEL
10
77.233198
20
28.616323
30
0.0
0
VERTEX
8
CADASTRAL_PARCEL
10
77.233199
20
28.616324
30
0.0
0
VERTEX
8
CADASTRAL_PARCEL
10
77.2332
20
28.616324
30
0.0
0
VERTEX
8
CADASTRAL_PARCEL
10
77.233202
20
28.616324
30
0.0
0
VERTEX
8
CADASTRAL_PARCEL
10
77.233203
20
28.616324
30
0.0
0
VERTEX
8
CADASTRAL_PARCEL
10
77.233205
20
28.616325
30
0.0
0
VERTEX
8
CADASTRAL_PARCEL
10
77.233741
20
28.616316
30
0.0
0
VERTEX
8
CADASTRAL_PARCEL
10
77.233743
20
28.616316
30
0.0
0
VERTEX
8
CADASTRAL_PARCEL
10
77.233744
20
28.616315
30
0.0
0
VERTEX
8
CADASTRAL_PARCEL
10
77.233746
20
28.616315
30
0.0
0
VERTEX
8
CADASTRAL_PARCEL
10
77.233747
20
28.616315
30
0.0
0
VERTEX
8
CADASTRAL_PARCEL
10
77.233749
20
28.616314
30
0.0
0
VERTEX
8
CADASTRAL_PARCEL
10
77.23375
20
28.616313
30
0.0
0
VERTEX
8
CADASTRAL_PARCEL
10
77.233751
20
28.616312
30
0.0
0
VERTEX
8
CADASTRAL_PARCEL
10
77.233752
20
28.616312
30
0.0
0
VERTEX
8
CADASTRAL_PARCEL
10
77.233753
20
28.616311
30
0.0
0
VERTEX
8
CADASTRAL_PARCEL
10
77.233754
20
28.616309
30
0.0
0
VERTEX
8
CADASTRAL_PARCEL
10
77.233755
20
28.616308
30
0.0
0
VERTEX
8
CADASTRAL_PARCEL
10
77.233755
20
28.616307
30
0.0
0
VERTEX
8
CADASTRAL_PARCEL
10
77.233756
20
28.616306
30
0.0
0
VERTEX
8
CADASTRAL_PARCEL
10
77.233756
20
28.616305
30
0.0
0
VERTEX
8
CADASTRAL_PARCEL
10
77.233756
20
28.616303
30
0.0
0
VERTEX
8
CADASTRAL_PARCEL
10
77.233756
20
28.616302
30
0.0
0
VERTEX
8
CADASTRAL_PARCEL
10
77.233749
20
28.615941
30
0.0
0
SEQEND
0
POLYLINE
8
CADASTRAL_PARCEL
66
1
70
1
0
VERTEX
8
CADASTRAL_PARCEL
10
77.232069
20
28.613406
30
0.0
0
VERTEX
8
CADASTRAL_PARCEL
10
77.232062
20
28.613064
30
0.0
0
VERTEX
8
CADASTRAL_PARCEL
10
77.231526
20
28.613072
30
0.0
0
VERTEX
8
CADASTRAL_PARCEL
10
77.231533
20
28.613415
30
0.0
0
VERTEX
8
CADASTRAL_PARCEL
10
77.232069
20
28.613406
30
0.0
0
SEQEND
0
POLYLINE
8
CADASTRAL_PARCEL
66
1
70
1
0
VERTEX
8
CADASTRAL_PARCEL
10
77.232077
20
28.613749
30
0.0
0
VERTEX
8
CADASTRAL_PARCEL
10
77.232069
20
28.613406
30
0.0
0
VERTEX
8
CADASTRAL_PARCEL
10
77.231533
20
28.613415
30
0.0
0
VERTEX
8
CADASTRAL_PARCEL
10
77.23154
20
28.613758
30
0.0
0
VERTEX
8
CADASTRAL_PARCEL
10
77.232077
20
28.613749
30
0.0
0
SEQEND
0
POLYLINE
8
CADASTRAL_PARCEL
66
1
70
1
0
VERTEX
8
CADASTRAL_PARCEL
10
77.232084
20
28.614092
30
0.0
0
VERTEX
8
CADASTRAL_PARCEL
10
77.232077
20
28.613749
30
0.0
0
VERTEX
8
CADASTRAL_PARCEL
10
77.23154
20
28.613758
30
0.0
0
VERTEX
8
CADASTRAL_PARCEL
10
77.231547
20
28.614101
30
0.0
0
VERTEX
8
CADASTRAL_PARCEL
10
77.232084
20
28.614092
30
0.0
0
SEQEND
0
POLYLINE
8
CADASTRAL_PARCEL
66
1
70
1
0
VERTEX
8
CADASTRAL_PARCEL
10
77.232091
20
28.614435
30
0.0
0
VERTEX
8
CADASTRAL_PARCEL
10
77.232084
20
28.614092
30
0.0
0
VERTEX
8
CADASTRAL_PARCEL
10
77.231547
20
28.614101
30
0.0
0
VERTEX
8
CADASTRAL_PARCEL
10
77.231555
20
28.614443
30
0.0
0
VERTEX
8
CADASTRAL_PARCEL
10
77.232091
20
28.614435
30
0.0
0
SEQEND
0
POLYLINE
8
CADASTRAL_PARCEL
66
1
70
1
0
VERTEX
8
CADASTRAL_PARCEL
10
77.232073
20
28.614451
30
0.0
0
VERTEX
8
CADASTRAL_PARCEL
10
77.231573
20
28.614459
30
0.0
0
VERTEX
8
CADASTRAL_PARCEL
10
77.23158
20
28.61477
30
0.0
0
VERTEX
8
CADASTRAL_PARCEL
10
77.23208
20
28.614761
30
0.0
0
VERTEX
8
CADASTRAL_PARCEL
10
77.232073
20
28.614451
30
0.0
0
SEQEND
0
POLYLINE
8
CADASTRAL_PARCEL
66
1
70
1
0
VERTEX
8
CADASTRAL_PARCEL
10
77.232069
20
28.613406
30
0.0
0
VERTEX
8
CADASTRAL_PARCEL
10
77.232606
20
28.613397
30
0.0
0
VERTEX
8
CADASTRAL_PARCEL
10
77.232599
20
28.613055
30
0.0
0
VERTEX
8
CADASTRAL_PARCEL
10
77.232062
20
28.613064
30
0.0
0
VERTEX
8
CADASTRAL_PARCEL
10
77.232069
20
28.613406
30
0.0
0
SEQEND
0
POLYLINE
8
CADASTRAL_PARCEL
66
1
70
1
0
VERTEX
8
CADASTRAL_PARCEL
10
77.232038
20
28.613389
30
0.0
0
VERTEX
8
CADASTRAL_PARCEL
10
77.232046
20
28.61375
30
0.0
0
VERTEX
8
CADASTRAL_PARCEL
10
77.232613
20
28.61374
30
0.0
0
VERTEX
8
CADASTRAL_PARCEL
10
77.232606
20
28.613379
30
0.0
0
VERTEX
8
CADASTRAL_PARCEL
10
77.232038
20
28.613389
30
0.0
0
SEQEND
0
POLYLINE
8
CADASTRAL_PARCEL
66
1
70
1
0
VERTEX
8
CADASTRAL_PARCEL
10
77.232077
20
28.613749
30
0.0
0
VERTEX
8
CADASTRAL_PARCEL
10
77.232084
20
28.614092
30
0.0
0
VERTEX
8
CADASTRAL_PARCEL
10
77.232621
20
28.614083
30
0.0
0
VERTEX
8
CADASTRAL_PARCEL
10
77.232613
20
28.61374
30
0.0
0
VERTEX
8
CADASTRAL_PARCEL
10
77.232077
20
28.613749
30
0.0
0
SEQEND
0
POLYLINE
8
CADASTRAL_PARCEL
66
1
70
1
0
VERTEX
8
CADASTRAL_PARCEL
10
77.232084
20
28.614092
30
0.0
0
VERTEX
8
CADASTRAL_PARCEL
10
77.232091
20
28.614435
30
0.0
0
VERTEX
8
CADASTRAL_PARCEL
10
77.232628
20
28.614426
30
0.0
0
VERTEX
8
CADASTRAL_PARCEL
10
77.232621
20
28.614083
30
0.0
0
VERTEX
8
CADASTRAL_PARCEL
10
77.232084
20
28.614092
30
0.0
0
SEQEND
0
POLYLINE
8
CADASTRAL_PARCEL
66
1
70
1
0
VERTEX
8
CADASTRAL_PARCEL
10
77.232643
20
28.614425
30
0.0
0
VERTEX
8
CADASTRAL_PARCEL
10
77.232643
20
28.614424
30
0.0
0
VERTEX
8
CADASTRAL_PARCEL
10
77.232643
20
28.614423
30
0.0
0
VERTEX
8
CADASTRAL_PARCEL
10
77.232642
20
28.614422
30
0.0
0
VERTEX
8
CADASTRAL_PARCEL
10
77.232642
20
28.61442
30
0.0
0
VERTEX
8
CADASTRAL_PARCEL
10
77.232641
20
28.614419
30
0.0
0
VERTEX
8
CADASTRAL_PARCEL
10
77.23264
20
28.614418
30
0.0
0
VERTEX
8
CADASTRAL_PARCEL
10
77.232639
20
28.614417
30
0.0
0
VERTEX
8
CADASTRAL_PARCEL
10
77.232638
20
28.614416
30
0.0
0
VERTEX
8
CADASTRAL_PARCEL
10
77.232637
20
28.614415
30
0.0
0
VERTEX
8
CADASTRAL_PARCEL
10
77.232636
20
28.614414
30
0.0
0
VERTEX
8
CADASTRAL_PARCEL
10
77.232635
20
28.614414
30
0.0
0
VERTEX
8
CADASTRAL_PARCEL
10
77.232633
20
28.614413
30
0.0
0
VERTEX
8
CADASTRAL_PARCEL
10
77.232632
20
28.614413
30
0.0
0
VERTEX
8
CADASTRAL_PARCEL
10
77.232631
20
28.614412
30
0.0
0
VERTEX
8
CADASTRAL_PARCEL
10
77.232629
20
28.614412
30
0.0
0
VERTEX
8
CADASTRAL_PARCEL
10
77.232628
20
28.614412
30
0.0
0
VERTEX
8
CADASTRAL_PARCEL
10
77.232091
20
28.614421
30
0.0
0
VERTEX
8
CADASTRAL_PARCEL
10
77.232089
20
28.614421
30
0.0
0
VERTEX
8
CADASTRAL_PARCEL
10
77.232088
20
28.614421
30
0.0
0
VERTEX
8
CADASTRAL_PARCEL
10
77.232086
20
28.614422
30
0.0
0
VERTEX
8
CADASTRAL_PARCEL
10
77.232085
20
28.614422
30
0.0
0
VERTEX
8
CADASTRAL_PARCEL
10
77.232084
20
28.614423
30
0.0
0
VERTEX
8
CADASTRAL_PARCEL
10
77.232082
20
28.614423
30
0.0
0
VERTEX
8
CADASTRAL_PARCEL
10
77.232081
20
28.614424
30
0.0
0
VERTEX
8
CADASTRAL_PARCEL
10
77.23208
20
28.614425
30
0.0
0
VERTEX
8
CADASTRAL_PARCEL
10
77.232079
20
28.614426
30
0.0
0
VERTEX
8
CADASTRAL_PARCEL
10
77.232078
20
28.614427
30
0.0
0
VERTEX
8
CADASTRAL_PARCEL
10
77.232078
20
28.614428
30
0.0
0
VERTEX
8
CADASTRAL_PARCEL
10
77.232077
20
28.61443
30
0.0
0
VERTEX
8
CADASTRAL_PARCEL
10
77.232076
20
28.614431
30
0.0
0
VERTEX
8
CADASTRAL_PARCEL
10
77.232076
20
28.614432
30
0.0
0
VERTEX
8
CADASTRAL_PARCEL
10
77.232076
20
28.614433
30
0.0
0
VERTEX
8
CADASTRAL_PARCEL
10
77.232076
20
28.614435
30
0.0
0
VERTEX
8
CADASTRAL_PARCEL
10
77.232083
20
28.614778
30
0.0
0
VERTEX
8
CADASTRAL_PARCEL
10
77.232083
20
28.614779
30
0.0
0
VERTEX
8
CADASTRAL_PARCEL
10
77.232083
20
28.61478
30
0.0
0
VERTEX
8
CADASTRAL_PARCEL
10
77.232084
20
28.614781
30
0.0
0
VERTEX
8
CADASTRAL_PARCEL
10
77.232084
20
28.614783
30
0.0
0
VERTEX
8
CADASTRAL_PARCEL
10
77.232085
20
28.614784
30
0.0
0
VERTEX
8
CADASTRAL_PARCEL
10
77.232086
20
28.614785
30
0.0
0
VERTEX
8
CADASTRAL_PARCEL
10
77.232087
20
28.614786
30
0.0
0
VERTEX
8
CADASTRAL_PARCEL
10
77.232088
20
28.614787
30
0.0
0
VERTEX
8
CADASTRAL_PARCEL
10
77.232089
20
28.614788
30
0.0
0
VERTEX
8
CADASTRAL_PARCEL
10
77.23209
20
28.614789
30
0.0
0
VERTEX
8
CADASTRAL_PARCEL
10
77.232091
20
28.614789
30
0.0
0
VERTEX
8
CADASTRAL_PARCEL
10
77.232093
20
28.61479
30
0.0
0
VERTEX
8
CADASTRAL_PARCEL
10
77.232094
20
28.61479
30
0.0
0
VERTEX
8
CADASTRAL_PARCEL
10
77.232096
20
28.614791
30
0.0
0
VERTEX
8
CADASTRAL_PARCEL
10
77.232097
20
28.614791
30
0.0
0
VERTEX
8
CADASTRAL_PARCEL
10
77.232099
20
28.614791
30
0.0
0
VERTEX
8
CADASTRAL_PARCEL
10
77.232635
20
28.614782
30
0.0
0
VERTEX
8
CADASTRAL_PARCEL
10
77.232637
20
28.614782
30
0.0
0
VERTEX
8
CADASTRAL_PARCEL
10
77.232638
20
28.614782
30
0.0
0
VERTEX
8
CADASTRAL_PARCEL
10
77.23264
20
28.614781
30
0.0
0
VERTEX
8
CADASTRAL_PARCEL
10
77.232641
20
28.614781
30
0.0
0
VERTEX
8
CADASTRAL_PARCEL
10
77.232643
20
28.61478
30
0.0
0
VERTEX
8
CADASTRAL_PARCEL
10
77.232644
20
28.61478
30
0.0
0
VERTEX
8
CADASTRAL_PARCEL
10
77.232645
20
28.614779
30
0.0
0
VERTEX
8
CADASTRAL_PARCEL
10
77.232646
20
28.614778
30
0.0
0
VERTEX
8
CADASTRAL_PARCEL
10
77.232647
20
28.614777
30
0.0
0
VERTEX
8
CADASTRAL_PARCEL
10
77.232648
20
28.614776
30
0.0
0
VERTEX
8
CADASTRAL_PARCEL
10
77.232649
20
28.614775
30
0.0
0
VERTEX
8
CADASTRAL_PARCEL
10
77.232649
20
28.614773
30
0.0
0
VERTEX
8
CADASTRAL_PARCEL
10
77.23265
20
28.614772
30
0.0
0
VERTEX
8
CADASTRAL_PARCEL
10
77.23265
20
28.614771
30
0.0
0
VERTEX
8
CADASTRAL_PARCEL
10
77.23265
20
28.61477
30
0.0
0
VERTEX
8
CADASTRAL_PARCEL
10
77.23265
20
28.614768
30
0.0
0
VERTEX
8
CADASTRAL_PARCEL
10
77.232643
20
28.614425
30
0.0
0
SEQEND
0
POLYLINE
8
CADASTRAL_PARCEL
66
1
70
1
0
VERTEX
8
CADASTRAL_PARCEL
10
77.232606
20
28.613397
30
0.0
0
VERTEX
8
CADASTRAL_PARCEL
10
77.233143
20
28.613389
30
0.0
0
VERTEX
8
CADASTRAL_PARCEL
10
77.233135
20
28.613046
30
0.0
0
VERTEX
8
CADASTRAL_PARCEL
10
77.232599
20
28.613055
30
0.0
0
VERTEX
8
CADASTRAL_PARCEL
10
77.232606
20
28.613397
30
0.0
0
SEQEND
0
POLYLINE
8
CADASTRAL_PARCEL
66
1
70
1
0
VERTEX
8
CADASTRAL_PARCEL
10
77.232606
20
28.613397
30
0.0
0
VERTEX
8
CADASTRAL_PARCEL
10
77.232613
20
28.61374
30
0.0
0
VERTEX
8
CADASTRAL_PARCEL
10
77.23315
20
28.613731
30
0.0
0
VERTEX
8
CADASTRAL_PARCEL
10
77.233143
20
28.613389
30
0.0
0
VERTEX
8
CADASTRAL_PARCEL
10
77.232606
20
28.613397
30
0.0
0
SEQEND
0
POLYLINE
8
CADASTRAL_PARCEL
66
1
70
1
0
VERTEX
8
CADASTRAL_PARCEL
10
77.232613
20
28.61374
30
0.0
0
VERTEX
8
CADASTRAL_PARCEL
10
77.232621
20
28.614083
30
0.0
0
VERTEX
8
CADASTRAL_PARCEL
10
77.233157
20
28.614074
30
0.0
0
VERTEX
8
CADASTRAL_PARCEL
10
77.23315
20
28.613731
30
0.0
0
VERTEX
8
CADASTRAL_PARCEL
10
77.232613
20
28.61374
30
0.0
0
SEQEND
0
POLYLINE
8
CADASTRAL_PARCEL
66
1
70
1
0
VERTEX
8
CADASTRAL_PARCEL
10
77.232621
20
28.614083
30
0.0
0
VERTEX
8
CADASTRAL_PARCEL
10
77.232628
20
28.614426
30
0.0
0
VERTEX
8
CADASTRAL_PARCEL
10
77.233164
20
28.614417
30
0.0
0
VERTEX
8
CADASTRAL_PARCEL
10
77.233157
20
28.614074
30
0.0
0
VERTEX
8
CADASTRAL_PARCEL
10
77.232621
20
28.614083
30
0.0
0
SEQEND
0
POLYLINE
8
CADASTRAL_PARCEL
66
1
70
1
0
VERTEX
8
CADASTRAL_PARCEL
10
77.233146
20
28.614433
30
0.0
0
VERTEX
8
CADASTRAL_PARCEL
10
77.232647
20
28.614442
30
0.0
0
VERTEX
8
CADASTRAL_PARCEL
10
77.232653
20
28.614752
30
0.0
0
VERTEX
8
CADASTRAL_PARCEL
10
77.233153
20
28.614744
30
0.0
0
VERTEX
8
CADASTRAL_PARCEL
10
77.233146
20
28.614433
30
0.0
0
SEQEND
0
POLYLINE
8
CADASTRAL_PARCEL
66
1
70
1
0
VERTEX
8
CADASTRAL_PARCEL
10
77.233672
20
28.613037
30
0.0
0
VERTEX
8
CADASTRAL_PARCEL
10
77.233135
20
28.613046
30
0.0
0
VERTEX
8
CADASTRAL_PARCEL
10
77.233143
20
28.613389
30
0.0
0
VERTEX
8
CADASTRAL_PARCEL
10
77.233679
20
28.61338
30
0.0
0
VERTEX
8
CADASTRAL_PARCEL
10
77.233672
20
28.613037
30
0.0
0
SEQEND
0
POLYLINE
8
CADASTRAL_PARCEL
66
1
70
1
0
VERTEX
8
CADASTRAL_PARCEL
10
77.233679
20
28.61338
30
0.0
0
VERTEX
8
CADASTRAL_PARCEL
10
77.233143
20
28.613389
30
0.0
0
VERTEX
8
CADASTRAL_PARCEL
10
77.23315
20
28.613731
30
0.0
0
VERTEX
8
CADASTRAL_PARCEL
10
77.233687
20
28.613723
30
0.0
0
VERTEX
8
CADASTRAL_PARCEL
10
77.233679
20
28.61338
30
0.0
0
SEQEND
0
POLYLINE
8
CADASTRAL_PARCEL
66
1
70
1
0
VERTEX
8
CADASTRAL_PARCEL
10
77.233687
20
28.613723
30
0.0
0
VERTEX
8
CADASTRAL_PARCEL
10
77.23315
20
28.613731
30
0.0
0
VERTEX
8
CADASTRAL_PARCEL
10
77.233157
20
28.614074
30
0.0
0
VERTEX
8
CADASTRAL_PARCEL
10
77.233694
20
28.614065
30
0.0
0
VERTEX
8
CADASTRAL_PARCEL
10
77.233687
20
28.613723
30
0.0
0
SEQEND
0
POLYLINE
8
CADASTRAL_PARCEL
66
1
70
1
0
VERTEX
8
CADASTRAL_PARCEL
10
77.233694
20
28.614065
30
0.0
0
VERTEX
8
CADASTRAL_PARCEL
10
77.233157
20
28.614074
30
0.0
0
VERTEX
8
CADASTRAL_PARCEL
10
77.233164
20
28.614417
30
0.0
0
VERTEX
8
CADASTRAL_PARCEL
10
77.233701
20
28.614408
30
0.0
0
VERTEX
8
CADASTRAL_PARCEL
10
77.233694
20
28.614065
30
0.0
0
SEQEND
0
POLYLINE
8
CADASTRAL_PARCEL
66
1
70
1
0
VERTEX
8
CADASTRAL_PARCEL
10
77.233716
20
28.614408
30
0.0
0
VERTEX
8
CADASTRAL_PARCEL
10
77.233716
20
28.614406
30
0.0
0
VERTEX
8
CADASTRAL_PARCEL
10
77.233716
20
28.614405
30
0.0
0
VERTEX
8
CADASTRAL_PARCEL
10
77.233716
20
28.614404
30
0.0
0
VERTEX
8
CADASTRAL_PARCEL
10
77.233715
20
28.614403
30
0.0
0
VERTEX
8
CADASTRAL_PARCEL
10
77.233714
20
28.614401
30
0.0
0
VERTEX
8
CADASTRAL_PARCEL
10
77.233714
20
28.6144
30
0.0
0
VERTEX
8
CADASTRAL_PARCEL
10
77.233713
20
28.614399
30
0.0
0
VERTEX
8
CADASTRAL_PARCEL
10
77.233712
20
28.614398
30
0.0
0
VERTEX
8
CADASTRAL_PARCEL
10
77.233711
20
28.614397
30
0.0
0
VERTEX
8
CADASTRAL_PARCEL
10
77.233709
20
28.614397
30
0.0
0
VERTEX
8
CADASTRAL_PARCEL
10
77.233708
20
28.614396
30
0.0
0
VERTEX
8
CADASTRAL_PARCEL
10
77.233707
20
28.614395
30
0.0
0
VERTEX
8
CADASTRAL_PARCEL
10
77.233705
20
28.614395
30
0.0
0
VERTEX
8
CADASTRAL_PARCEL
10
77.233704
20
28.614395
30
0.0
0
VERTEX
8
CADASTRAL_PARCEL
10
77.233702
20
28.614395
30
0.0
0
VERTEX
8
CADASTRAL_PARCEL
10
77.233701
20
28.614394
30
0.0
0
VERTEX
8
CADASTRAL_PARCEL
10
77.233164
20
28.614403
30
0.0
0
VERTEX
8
CADASTRAL_PARCEL
10
77.233163
20
28.614403
30
0.0
0
VERTEX
8
CADASTRAL_PARCEL
10
77.233161
20
28.614404
30
0.0
0
VERTEX
8
CADASTRAL_PARCEL
10
77.23316
20
28.614404
30
0.0
0
VERTEX
8
CADASTRAL_PARCEL
10
77.233158
20
28.614404
30
0.0
0
VERTEX
8
CADASTRAL_PARCEL
10
77.233157
20
28.614405
30
0.0
0
VERTEX
8
CADASTRAL_PARCEL
10
77.233156
20
28.614406
30
0.0
0
VERTEX
8
CADASTRAL_PARCEL
10
77.233154
20
28.614407
30
0.0
0
VERTEX
8
CADASTRAL_PARCEL
10
77.233153
20
28.614407
30
0.0
0
VERTEX
8
CADASTRAL_PARCEL
10
77.233152
20
28.614408
30
0.0
0
VERTEX
8
CADASTRAL_PARCEL
10
77.233152
20
28.61441
30
0.0
0
VERTEX
8
CADASTRAL_PARCEL
10
77.233151
20
28.614411
30
0.0
0
VERTEX
8
CADASTRAL_PARCEL
10
77.23315
20
28.614412
30
0.0
0
VERTEX
8
CADASTRAL_PARCEL
10
77.23315
20
28.614413
30
0.0
0
VERTEX
8
CADASTRAL_PARCEL
10
77.233149
20
28.614414
30
0.0
0
VERTEX
8
CADASTRAL_PARCEL
10
77.233149
20
28.614416
30
0.0
0
VERTEX
8
CADASTRAL_PARCEL
10
77.233149
20
28.614417
30
0.0
0
VERTEX
8
CADASTRAL_PARCEL
10
77.233156
20
28.61476
30
0.0
0
VERTEX
8
CADASTRAL_PARCEL
10
77.233156
20
28.614761
30
0.0
0
VERTEX
8
CADASTRAL_PARCEL
10
77.233157
20
28.614762
30
0.0
0
VERTEX
8
CADASTRAL_PARCEL
10
77.233157
20
28.614764
30
0.0
0
VERTEX
8
CADASTRAL_PARCEL
10
77.233158
20
28.614765
30
0.0
0
VERTEX
8
CADASTRAL_PARCEL
10
77.233158
20
28.614766
30
0.0
0
VERTEX
8
CADASTRAL_PARCEL
10
77.233159
20
28.614767
30
0.0
0
VERTEX
8
CADASTRAL_PARCEL
10
77.23316
20
28.614768
30
0.0
0
VERTEX
8
CADASTRAL_PARCEL
10
77.233161
20
28.614769
30
0.0
0
VERTEX
8
CADASTRAL_PARCEL
10
77.233162
20
28.61477
30
0.0
0
VERTEX
8
CADASTRAL_PARCEL
10
77.233163
20
28.614771
30
0.0
0
VERTEX
8
CADASTRAL_PARCEL
10
77.233165
20
28.614772
30
0.0
0
VERTEX
8
CADASTRAL_PARCEL
10
77.233166
20
28.614772
30
0.0
0
VERTEX
8
CADASTRAL_PARCEL
10
77.233168
20
28.614773
30
0.0
0
VERTEX
8
CADASTRAL_PARCEL
10
77.233169
20
28.614773
30
0.0
0
VERTEX
8
CADASTRAL_PARCEL
10
77.23317
20
28.614773
30
0.0
0
VERTEX
8
CADASTRAL_PARCEL
10
77.233172
20
28.614773
30
0.0
0
VERTEX
8
CADASTRAL_PARCEL
10
77.233709
20
28.614764
30
0.0
0
VERTEX
8
CADASTRAL_PARCEL
10
77.23371
20
28.614764
30
0.0
0
VERTEX
8
CADASTRAL_PARCEL
10
77.233712
20
28.614764
30
0.0
0
VERTEX
8
CADASTRAL_PARCEL
10
77.233713
20
28.614764
30
0.0
0
VERTEX
8
CADASTRAL_PARCEL
10
77.233714
20
28.614763
30
0.0
0
VERTEX
8
CADASTRAL_PARCEL
10
77.233716
20
28.614763
30
0.0
0
VERTEX
8
CADASTRAL_PARCEL
10
77.233717
20
28.614762
30
0.0
0
VERTEX
8
CADASTRAL_PARCEL
10
77.233718
20
28.614761
30
0.0
0
VERTEX
8
CADASTRAL_PARCEL
10
77.233719
20
28.61476
30
0.0
0
VERTEX
8
CADASTRAL_PARCEL
10
77.23372
20
28.614759
30
0.0
0
VERTEX
8
CADASTRAL_PARCEL
10
77.233721
20
28.614758
30
0.0
0
VERTEX
8
CADASTRAL_PARCEL
10
77.233722
20
28.614757
30
0.0
0
VERTEX
8
CADASTRAL_PARCEL
10
77.233723
20
28.614756
30
0.0
0
VERTEX
8
CADASTRAL_PARCEL
10
77.233723
20
28.614754
30
0.0
0
VERTEX
8
CADASTRAL_PARCEL
10
77.233723
20
28.614753
30
0.0
0
VERTEX
8
CADASTRAL_PARCEL
10
77.233724
20
28.614752
30
0.0
0
VERTEX
8
CADASTRAL_PARCEL
10
77.233724
20
28.614751
30
0.0
0
VERTEX
8
CADASTRAL_PARCEL
10
77.233716
20
28.614408
30
0.0
0
SEQEND
0
ENDSEC
0
EOF